G04 #@! TF.FileFunction,Legend,Top*
%FSLAX46Y46*%
G04 Gerber Fmt 4.6, Leading zero omitted, Abs format (unit mm)*
G04 Created by KiCad (PCBNEW 4.0.7) date 12/17/17 19:14:42*
%MOMM*%
%LPD*%
G01*
G04 APERTURE LIST*
%ADD10C,0.100000*%
%ADD11C,0.175000*%
%ADD12C,0.300000*%
%ADD13C,0.120000*%
%ADD14C,0.150000*%
%ADD15C,0.010000*%
G04 APERTURE END LIST*
D10*
D11*
X81850002Y-96258333D02*
X81850002Y-96591667D01*
X81616669Y-95891667D02*
X81850002Y-96258333D01*
X82083335Y-95891667D01*
X82616669Y-96591667D02*
X82616669Y-96225000D01*
X82583335Y-96158333D01*
X82516669Y-96125000D01*
X82383335Y-96125000D01*
X82316669Y-96158333D01*
X82616669Y-96558333D02*
X82550002Y-96591667D01*
X82383335Y-96591667D01*
X82316669Y-96558333D01*
X82283335Y-96491667D01*
X82283335Y-96425000D01*
X82316669Y-96358333D01*
X82383335Y-96325000D01*
X82550002Y-96325000D01*
X82616669Y-96291667D01*
X82950002Y-96125000D02*
X82950002Y-96591667D01*
X82950002Y-96191667D02*
X82983335Y-96158333D01*
X83050002Y-96125000D01*
X83150002Y-96125000D01*
X83216668Y-96158333D01*
X83250002Y-96225000D01*
X83250002Y-96591667D01*
X83583335Y-96125000D02*
X83583335Y-96591667D01*
X83583335Y-96191667D02*
X83616668Y-96158333D01*
X83683335Y-96125000D01*
X83783335Y-96125000D01*
X83850001Y-96158333D01*
X83883335Y-96225000D01*
X83883335Y-96591667D01*
X84216668Y-96591667D02*
X84216668Y-96125000D01*
X84216668Y-95891667D02*
X84183334Y-95925000D01*
X84216668Y-95958333D01*
X84250001Y-95925000D01*
X84216668Y-95891667D01*
X84216668Y-95958333D01*
X84850001Y-96558333D02*
X84783334Y-96591667D01*
X84650001Y-96591667D01*
X84583334Y-96558333D01*
X84550001Y-96525000D01*
X84516667Y-96458333D01*
X84516667Y-96258333D01*
X84550001Y-96191667D01*
X84583334Y-96158333D01*
X84650001Y-96125000D01*
X84783334Y-96125000D01*
X84850001Y-96158333D01*
X85150001Y-96591667D02*
X85150001Y-95891667D01*
X85216667Y-96325000D02*
X85416667Y-96591667D01*
X85416667Y-96125000D02*
X85150001Y-96391667D01*
X86650001Y-96525000D02*
X86616667Y-96558333D01*
X86516667Y-96591667D01*
X86450001Y-96591667D01*
X86350001Y-96558333D01*
X86283334Y-96491667D01*
X86250001Y-96425000D01*
X86216667Y-96291667D01*
X86216667Y-96191667D01*
X86250001Y-96058333D01*
X86283334Y-95991667D01*
X86350001Y-95925000D01*
X86450001Y-95891667D01*
X86516667Y-95891667D01*
X86616667Y-95925000D01*
X86650001Y-95958333D01*
X86950001Y-96591667D02*
X86950001Y-95891667D01*
X87250001Y-96591667D02*
X87250001Y-96225000D01*
X87216667Y-96158333D01*
X87150001Y-96125000D01*
X87050001Y-96125000D01*
X86983334Y-96158333D01*
X86950001Y-96191667D01*
X87583334Y-96591667D02*
X87583334Y-96125000D01*
X87583334Y-95891667D02*
X87550000Y-95925000D01*
X87583334Y-95958333D01*
X87616667Y-95925000D01*
X87583334Y-95891667D01*
X87583334Y-95958333D01*
X87916667Y-96591667D02*
X87916667Y-96125000D01*
X87916667Y-96258333D02*
X87950000Y-96191667D01*
X87983333Y-96158333D01*
X88050000Y-96125000D01*
X88116667Y-96125000D01*
X88450000Y-96591667D02*
X88383333Y-96558333D01*
X88350000Y-96525000D01*
X88316666Y-96458333D01*
X88316666Y-96258333D01*
X88350000Y-96191667D01*
X88383333Y-96158333D01*
X88450000Y-96125000D01*
X88550000Y-96125000D01*
X88616666Y-96158333D01*
X88650000Y-96191667D01*
X88683333Y-96258333D01*
X88683333Y-96458333D01*
X88650000Y-96525000D01*
X88616666Y-96558333D01*
X88550000Y-96591667D01*
X88450000Y-96591667D01*
X88983333Y-96125000D02*
X88983333Y-96591667D01*
X88983333Y-96191667D02*
X89016666Y-96158333D01*
X89083333Y-96125000D01*
X89183333Y-96125000D01*
X89249999Y-96158333D01*
X89283333Y-96225000D01*
X89283333Y-96591667D01*
X80433336Y-97450000D02*
X80666669Y-97450000D01*
X80766669Y-97816667D02*
X80433336Y-97816667D01*
X80433336Y-97116667D01*
X80766669Y-97116667D01*
X81066669Y-97350000D02*
X81066669Y-97816667D01*
X81066669Y-97416667D02*
X81100002Y-97383333D01*
X81166669Y-97350000D01*
X81266669Y-97350000D01*
X81333335Y-97383333D01*
X81366669Y-97450000D01*
X81366669Y-97816667D01*
X81800002Y-97816667D02*
X81733335Y-97783333D01*
X81700002Y-97716667D01*
X81700002Y-97116667D01*
X82366669Y-97816667D02*
X82366669Y-97450000D01*
X82333335Y-97383333D01*
X82266669Y-97350000D01*
X82133335Y-97350000D01*
X82066669Y-97383333D01*
X82366669Y-97783333D02*
X82300002Y-97816667D01*
X82133335Y-97816667D01*
X82066669Y-97783333D01*
X82033335Y-97716667D01*
X82033335Y-97650000D01*
X82066669Y-97583333D01*
X82133335Y-97550000D01*
X82300002Y-97550000D01*
X82366669Y-97516667D01*
X82700002Y-97816667D02*
X82700002Y-97350000D01*
X82700002Y-97483333D02*
X82733335Y-97416667D01*
X82766668Y-97383333D01*
X82833335Y-97350000D01*
X82900002Y-97350000D01*
X83433335Y-97350000D02*
X83433335Y-97916667D01*
X83400001Y-97983333D01*
X83366668Y-98016667D01*
X83300001Y-98050000D01*
X83200001Y-98050000D01*
X83133335Y-98016667D01*
X83433335Y-97783333D02*
X83366668Y-97816667D01*
X83233335Y-97816667D01*
X83166668Y-97783333D01*
X83133335Y-97750000D01*
X83100001Y-97683333D01*
X83100001Y-97483333D01*
X83133335Y-97416667D01*
X83166668Y-97383333D01*
X83233335Y-97350000D01*
X83366668Y-97350000D01*
X83433335Y-97383333D01*
X84033334Y-97783333D02*
X83966668Y-97816667D01*
X83833334Y-97816667D01*
X83766668Y-97783333D01*
X83733334Y-97716667D01*
X83733334Y-97450000D01*
X83766668Y-97383333D01*
X83833334Y-97350000D01*
X83966668Y-97350000D01*
X84033334Y-97383333D01*
X84066668Y-97450000D01*
X84066668Y-97516667D01*
X83733334Y-97583333D01*
X84366668Y-97816667D02*
X84366668Y-97350000D01*
X84366668Y-97483333D02*
X84400001Y-97416667D01*
X84433334Y-97383333D01*
X84500001Y-97350000D01*
X84566668Y-97350000D01*
X85333334Y-97450000D02*
X85566667Y-97450000D01*
X85666667Y-97816667D02*
X85333334Y-97816667D01*
X85333334Y-97116667D01*
X85666667Y-97116667D01*
X86066667Y-97816667D02*
X86000000Y-97783333D01*
X85966667Y-97716667D01*
X85966667Y-97116667D01*
X86600000Y-97783333D02*
X86533334Y-97816667D01*
X86400000Y-97816667D01*
X86333334Y-97783333D01*
X86300000Y-97716667D01*
X86300000Y-97450000D01*
X86333334Y-97383333D01*
X86400000Y-97350000D01*
X86533334Y-97350000D01*
X86600000Y-97383333D01*
X86633334Y-97450000D01*
X86633334Y-97516667D01*
X86300000Y-97583333D01*
X87233334Y-97783333D02*
X87166667Y-97816667D01*
X87033334Y-97816667D01*
X86966667Y-97783333D01*
X86933334Y-97750000D01*
X86900000Y-97683333D01*
X86900000Y-97483333D01*
X86933334Y-97416667D01*
X86966667Y-97383333D01*
X87033334Y-97350000D01*
X87166667Y-97350000D01*
X87233334Y-97383333D01*
X87966667Y-97116667D02*
X88366667Y-97116667D01*
X88166667Y-97816667D02*
X88166667Y-97116667D01*
X88600000Y-97816667D02*
X88600000Y-97350000D01*
X88600000Y-97116667D02*
X88566666Y-97150000D01*
X88600000Y-97183333D01*
X88633333Y-97150000D01*
X88600000Y-97116667D01*
X88600000Y-97183333D01*
X88933333Y-97816667D02*
X88933333Y-97350000D01*
X88933333Y-97416667D02*
X88966666Y-97383333D01*
X89033333Y-97350000D01*
X89133333Y-97350000D01*
X89199999Y-97383333D01*
X89233333Y-97450000D01*
X89233333Y-97816667D01*
X89233333Y-97450000D02*
X89266666Y-97383333D01*
X89333333Y-97350000D01*
X89433333Y-97350000D01*
X89499999Y-97383333D01*
X89533333Y-97450000D01*
X89533333Y-97816667D01*
X90133332Y-97783333D02*
X90066666Y-97816667D01*
X89933332Y-97816667D01*
X89866666Y-97783333D01*
X89833332Y-97716667D01*
X89833332Y-97450000D01*
X89866666Y-97383333D01*
X89933332Y-97350000D01*
X90066666Y-97350000D01*
X90133332Y-97383333D01*
X90166666Y-97450000D01*
X90166666Y-97516667D01*
X89833332Y-97583333D01*
X90466666Y-97816667D02*
X90466666Y-97350000D01*
X90466666Y-97483333D02*
X90499999Y-97416667D01*
X90533332Y-97383333D01*
X90599999Y-97350000D01*
X90666666Y-97350000D01*
X81600000Y-98341667D02*
X81833333Y-99041667D01*
X82066666Y-98341667D01*
X82666666Y-99041667D02*
X82266666Y-99041667D01*
X82466666Y-99041667D02*
X82466666Y-98341667D01*
X82400000Y-98441667D01*
X82333333Y-98508333D01*
X82266666Y-98541667D01*
X83500000Y-98775000D02*
X84033333Y-98775000D01*
X85266666Y-99041667D02*
X84866666Y-99041667D01*
X85066666Y-99041667D02*
X85066666Y-98341667D01*
X85000000Y-98441667D01*
X84933333Y-98508333D01*
X84866666Y-98541667D01*
X85533333Y-98408333D02*
X85566667Y-98375000D01*
X85633333Y-98341667D01*
X85800000Y-98341667D01*
X85866667Y-98375000D01*
X85900000Y-98408333D01*
X85933333Y-98475000D01*
X85933333Y-98541667D01*
X85900000Y-98641667D01*
X85500000Y-99041667D01*
X85933333Y-99041667D01*
X86733334Y-98308333D02*
X86133334Y-99208333D01*
X86933333Y-98408333D02*
X86966667Y-98375000D01*
X87033333Y-98341667D01*
X87200000Y-98341667D01*
X87266667Y-98375000D01*
X87300000Y-98408333D01*
X87333333Y-98475000D01*
X87333333Y-98541667D01*
X87300000Y-98641667D01*
X86900000Y-99041667D01*
X87333333Y-99041667D01*
X87766667Y-98341667D02*
X87833334Y-98341667D01*
X87900000Y-98375000D01*
X87933334Y-98408333D01*
X87966667Y-98475000D01*
X88000000Y-98608333D01*
X88000000Y-98775000D01*
X87966667Y-98908333D01*
X87933334Y-98975000D01*
X87900000Y-99008333D01*
X87833334Y-99041667D01*
X87766667Y-99041667D01*
X87700000Y-99008333D01*
X87666667Y-98975000D01*
X87633334Y-98908333D01*
X87600000Y-98775000D01*
X87600000Y-98608333D01*
X87633334Y-98475000D01*
X87666667Y-98408333D01*
X87700000Y-98375000D01*
X87766667Y-98341667D01*
X88666667Y-99041667D02*
X88266667Y-99041667D01*
X88466667Y-99041667D02*
X88466667Y-98341667D01*
X88400001Y-98441667D01*
X88333334Y-98508333D01*
X88266667Y-98541667D01*
X88900001Y-98341667D02*
X89366668Y-98341667D01*
X89066668Y-99041667D01*
D12*
X91678571Y-92071429D02*
X91678571Y-91214286D01*
X93178571Y-91642857D02*
X91678571Y-91642857D01*
X93178571Y-90714286D02*
X91678571Y-90714286D01*
X93178571Y-90000000D02*
X91678571Y-90000000D01*
X92750000Y-89500000D01*
X91678571Y-89000000D01*
X93178571Y-89000000D01*
X92392857Y-88285714D02*
X92392857Y-87785714D01*
X93178571Y-87571428D02*
X93178571Y-88285714D01*
X91678571Y-88285714D01*
X91678571Y-87571428D01*
X93178571Y-86071428D02*
X92464286Y-86571428D01*
X93178571Y-86928571D02*
X91678571Y-86928571D01*
X91678571Y-86357143D01*
X91750000Y-86214285D01*
X91821429Y-86142857D01*
X91964286Y-86071428D01*
X92178571Y-86071428D01*
X92321429Y-86142857D01*
X92392857Y-86214285D01*
X92464286Y-86357143D01*
X92464286Y-86928571D01*
X92607143Y-82285714D02*
X92607143Y-81142857D01*
X93178571Y-79642857D02*
X93178571Y-80500000D01*
X93178571Y-80071428D02*
X91678571Y-80071428D01*
X91892857Y-80214285D01*
X92035714Y-80357143D01*
X92107143Y-80500000D01*
X92607143Y-75285714D02*
X92607143Y-74142857D01*
X93178571Y-74714286D02*
X92035714Y-74714286D01*
X93178571Y-72642857D02*
X93178571Y-73500000D01*
X93178571Y-73071428D02*
X91678571Y-73071428D01*
X91892857Y-73214285D01*
X92035714Y-73357143D01*
X92107143Y-73500000D01*
X91678571Y-69785715D02*
X91678571Y-69500001D01*
X91750000Y-69357143D01*
X91892857Y-69214286D01*
X92178571Y-69142858D01*
X92678571Y-69142858D01*
X92964286Y-69214286D01*
X93107143Y-69357143D01*
X93178571Y-69500001D01*
X93178571Y-69785715D01*
X93107143Y-69928572D01*
X92964286Y-70071429D01*
X92678571Y-70142858D01*
X92178571Y-70142858D01*
X91892857Y-70071429D01*
X91750000Y-69928572D01*
X91678571Y-69785715D01*
X93178571Y-68500000D02*
X91678571Y-68500000D01*
X93178571Y-67642857D01*
X91678571Y-67642857D01*
X91607143Y-65857143D02*
X93535714Y-67142857D01*
X91678571Y-65071428D02*
X91678571Y-64785714D01*
X91750000Y-64642856D01*
X91892857Y-64499999D01*
X92178571Y-64428571D01*
X92678571Y-64428571D01*
X92964286Y-64499999D01*
X93107143Y-64642856D01*
X93178571Y-64785714D01*
X93178571Y-65071428D01*
X93107143Y-65214285D01*
X92964286Y-65357142D01*
X92678571Y-65428571D01*
X92178571Y-65428571D01*
X91892857Y-65357142D01*
X91750000Y-65214285D01*
X91678571Y-65071428D01*
X92392857Y-63285713D02*
X92392857Y-63785713D01*
X93178571Y-63785713D02*
X91678571Y-63785713D01*
X91678571Y-63071427D01*
X92392857Y-61999999D02*
X92392857Y-62499999D01*
X93178571Y-62499999D02*
X91678571Y-62499999D01*
X91678571Y-61785713D01*
X51892858Y-93178571D02*
X51892858Y-91678571D01*
X52250001Y-91678571D01*
X52464286Y-91750000D01*
X52607144Y-91892857D01*
X52678572Y-92035714D01*
X52750001Y-92321429D01*
X52750001Y-92535714D01*
X52678572Y-92821429D01*
X52607144Y-92964286D01*
X52464286Y-93107143D01*
X52250001Y-93178571D01*
X51892858Y-93178571D01*
X53392858Y-93178571D02*
X53392858Y-91678571D01*
X54035715Y-93107143D02*
X54250001Y-93178571D01*
X54607144Y-93178571D01*
X54750001Y-93107143D01*
X54821430Y-93035714D01*
X54892858Y-92892857D01*
X54892858Y-92750000D01*
X54821430Y-92607143D01*
X54750001Y-92535714D01*
X54607144Y-92464286D01*
X54321430Y-92392857D01*
X54178572Y-92321429D01*
X54107144Y-92250000D01*
X54035715Y-92107143D01*
X54035715Y-91964286D01*
X54107144Y-91821429D01*
X54178572Y-91750000D01*
X54321430Y-91678571D01*
X54678572Y-91678571D01*
X54892858Y-91750000D01*
X55535715Y-93178571D02*
X55535715Y-91678571D01*
X56107143Y-91678571D01*
X56250001Y-91750000D01*
X56321429Y-91821429D01*
X56392858Y-91964286D01*
X56392858Y-92178571D01*
X56321429Y-92321429D01*
X56250001Y-92392857D01*
X56107143Y-92464286D01*
X55535715Y-92464286D01*
X57750001Y-93178571D02*
X57035715Y-93178571D01*
X57035715Y-91678571D01*
X58178572Y-92750000D02*
X58892858Y-92750000D01*
X58035715Y-93178571D02*
X58535715Y-91678571D01*
X59035715Y-93178571D01*
X59821429Y-92464286D02*
X59821429Y-93178571D01*
X59321429Y-91678571D02*
X59821429Y-92464286D01*
X60321429Y-91678571D01*
X52892858Y-73178571D02*
X52392858Y-72464286D01*
X52035715Y-73178571D02*
X52035715Y-71678571D01*
X52607143Y-71678571D01*
X52750001Y-71750000D01*
X52821429Y-71821429D01*
X52892858Y-71964286D01*
X52892858Y-72178571D01*
X52821429Y-72321429D01*
X52750001Y-72392857D01*
X52607143Y-72464286D01*
X52035715Y-72464286D01*
X53535715Y-72392857D02*
X54035715Y-72392857D01*
X54250001Y-73178571D02*
X53535715Y-73178571D01*
X53535715Y-71678571D01*
X54250001Y-71678571D01*
X55607144Y-73178571D02*
X54892858Y-73178571D01*
X54892858Y-71678571D01*
X56035715Y-72750000D02*
X56750001Y-72750000D01*
X55892858Y-73178571D02*
X56392858Y-71678571D01*
X56892858Y-73178571D01*
X57678572Y-72464286D02*
X57678572Y-73178571D01*
X57178572Y-71678571D02*
X57678572Y-72464286D01*
X58178572Y-71678571D01*
D13*
X51700000Y-67500000D02*
X51700000Y-68100000D01*
X51700000Y-62900000D02*
X51700000Y-63500000D01*
X57550000Y-60000000D02*
X57550000Y-71050000D01*
X51700000Y-60000000D02*
X57550000Y-60000000D01*
X51700000Y-63750000D02*
X51700000Y-67250000D01*
X51700000Y-71050000D02*
X57550000Y-71050000D01*
X51700000Y-60000000D02*
X51700000Y-62650000D01*
X51700000Y-68400000D02*
X51700000Y-71050000D01*
X51700000Y-87500000D02*
X51700000Y-88100000D01*
X51700000Y-82900000D02*
X51700000Y-83500000D01*
X57550000Y-80000000D02*
X57550000Y-91050000D01*
X51700000Y-80000000D02*
X57550000Y-80000000D01*
X51700000Y-83750000D02*
X51700000Y-87250000D01*
X51700000Y-91050000D02*
X57550000Y-91050000D01*
X51700000Y-80000000D02*
X51700000Y-82650000D01*
X51700000Y-88400000D02*
X51700000Y-91050000D01*
X98830000Y-63630000D02*
X96170000Y-63630000D01*
X98830000Y-66230000D02*
X98830000Y-63630000D01*
X96170000Y-66230000D02*
X96170000Y-63630000D01*
X98830000Y-66230000D02*
X96170000Y-66230000D01*
X98830000Y-67500000D02*
X98830000Y-68830000D01*
X98830000Y-68830000D02*
X97500000Y-68830000D01*
X98830000Y-71130000D02*
X96170000Y-71130000D01*
X98830000Y-73730000D02*
X98830000Y-71130000D01*
X96170000Y-73730000D02*
X96170000Y-71130000D01*
X98830000Y-73730000D02*
X96170000Y-73730000D01*
X98830000Y-75000000D02*
X98830000Y-76330000D01*
X98830000Y-76330000D02*
X97500000Y-76330000D01*
X98830000Y-78630000D02*
X96170000Y-78630000D01*
X98830000Y-81230000D02*
X98830000Y-78630000D01*
X96170000Y-81230000D02*
X96170000Y-78630000D01*
X98830000Y-81230000D02*
X96170000Y-81230000D01*
X98830000Y-82500000D02*
X98830000Y-83830000D01*
X98830000Y-83830000D02*
X97500000Y-83830000D01*
X98830000Y-86130000D02*
X96170000Y-86130000D01*
X98830000Y-88730000D02*
X98830000Y-86130000D01*
X96170000Y-88730000D02*
X96170000Y-86130000D01*
X98830000Y-88730000D02*
X96170000Y-88730000D01*
X98830000Y-90000000D02*
X98830000Y-91330000D01*
X98830000Y-91330000D02*
X97500000Y-91330000D01*
X88180000Y-66250000D02*
X88180000Y-67250000D01*
X86820000Y-67250000D02*
X86820000Y-66250000D01*
X88180000Y-73750000D02*
X88180000Y-74750000D01*
X86820000Y-74750000D02*
X86820000Y-73750000D01*
X88180000Y-81250000D02*
X88180000Y-82250000D01*
X86820000Y-82250000D02*
X86820000Y-81250000D01*
X88180000Y-88750000D02*
X88180000Y-89750000D01*
X86820000Y-89750000D02*
X86820000Y-88750000D01*
D14*
X73600000Y-93200000D02*
G75*
G03X73600000Y-93200000I-200000J0D01*
G01*
X72000000Y-93600000D02*
X78000000Y-93600000D01*
X79000000Y-98200000D02*
X79000000Y-96600000D01*
X71000000Y-98200000D02*
X71000000Y-96600000D01*
X79000000Y-101800000D02*
X79000000Y-101400000D01*
X71000000Y-101800000D02*
X71000000Y-101400000D01*
X79000000Y-101800000D02*
X71000000Y-101800000D01*
D15*
G36*
X62099744Y-98919918D02*
X62155201Y-98947568D01*
X62204148Y-98998480D01*
X62217629Y-99017338D01*
X62232314Y-99042015D01*
X62241842Y-99068816D01*
X62247293Y-99104587D01*
X62249747Y-99156169D01*
X62250286Y-99224267D01*
X62247852Y-99317588D01*
X62239394Y-99387657D01*
X62223174Y-99439931D01*
X62197454Y-99479869D01*
X62160497Y-99512929D01*
X62157782Y-99514886D01*
X62121360Y-99534908D01*
X62077502Y-99544815D01*
X62021724Y-99547257D01*
X61931048Y-99547257D01*
X61931010Y-99635283D01*
X61930166Y-99684308D01*
X61925024Y-99713065D01*
X61911587Y-99730311D01*
X61885858Y-99744808D01*
X61879679Y-99747769D01*
X61850764Y-99761648D01*
X61828376Y-99770414D01*
X61811729Y-99771171D01*
X61800036Y-99761023D01*
X61792510Y-99737073D01*
X61788366Y-99696426D01*
X61786815Y-99636186D01*
X61787071Y-99553455D01*
X61788349Y-99445339D01*
X61788748Y-99413000D01*
X61790185Y-99301524D01*
X61791472Y-99228603D01*
X61930971Y-99228603D01*
X61931755Y-99290499D01*
X61935240Y-99330997D01*
X61943124Y-99357708D01*
X61957105Y-99378244D01*
X61966597Y-99388260D01*
X62005404Y-99417567D01*
X62039763Y-99419952D01*
X62075216Y-99395750D01*
X62076114Y-99394857D01*
X62090539Y-99376153D01*
X62099313Y-99350732D01*
X62103739Y-99311584D01*
X62105118Y-99251697D01*
X62105143Y-99238430D01*
X62101812Y-99155901D01*
X62090969Y-99098691D01*
X62071340Y-99063766D01*
X62041650Y-99048094D01*
X62024491Y-99046514D01*
X61983766Y-99053926D01*
X61955832Y-99078330D01*
X61939017Y-99122980D01*
X61931650Y-99191130D01*
X61930971Y-99228603D01*
X61791472Y-99228603D01*
X61791708Y-99215245D01*
X61793677Y-99150333D01*
X61796450Y-99102958D01*
X61800388Y-99069290D01*
X61805849Y-99045498D01*
X61813192Y-99027753D01*
X61822777Y-99012224D01*
X61826887Y-99006381D01*
X61881405Y-98951185D01*
X61950336Y-98919890D01*
X62030072Y-98911165D01*
X62099744Y-98919918D01*
X62099744Y-98919918D01*
G37*
X62099744Y-98919918D02*
X62155201Y-98947568D01*
X62204148Y-98998480D01*
X62217629Y-99017338D01*
X62232314Y-99042015D01*
X62241842Y-99068816D01*
X62247293Y-99104587D01*
X62249747Y-99156169D01*
X62250286Y-99224267D01*
X62247852Y-99317588D01*
X62239394Y-99387657D01*
X62223174Y-99439931D01*
X62197454Y-99479869D01*
X62160497Y-99512929D01*
X62157782Y-99514886D01*
X62121360Y-99534908D01*
X62077502Y-99544815D01*
X62021724Y-99547257D01*
X61931048Y-99547257D01*
X61931010Y-99635283D01*
X61930166Y-99684308D01*
X61925024Y-99713065D01*
X61911587Y-99730311D01*
X61885858Y-99744808D01*
X61879679Y-99747769D01*
X61850764Y-99761648D01*
X61828376Y-99770414D01*
X61811729Y-99771171D01*
X61800036Y-99761023D01*
X61792510Y-99737073D01*
X61788366Y-99696426D01*
X61786815Y-99636186D01*
X61787071Y-99553455D01*
X61788349Y-99445339D01*
X61788748Y-99413000D01*
X61790185Y-99301524D01*
X61791472Y-99228603D01*
X61930971Y-99228603D01*
X61931755Y-99290499D01*
X61935240Y-99330997D01*
X61943124Y-99357708D01*
X61957105Y-99378244D01*
X61966597Y-99388260D01*
X62005404Y-99417567D01*
X62039763Y-99419952D01*
X62075216Y-99395750D01*
X62076114Y-99394857D01*
X62090539Y-99376153D01*
X62099313Y-99350732D01*
X62103739Y-99311584D01*
X62105118Y-99251697D01*
X62105143Y-99238430D01*
X62101812Y-99155901D01*
X62090969Y-99098691D01*
X62071340Y-99063766D01*
X62041650Y-99048094D01*
X62024491Y-99046514D01*
X61983766Y-99053926D01*
X61955832Y-99078330D01*
X61939017Y-99122980D01*
X61931650Y-99191130D01*
X61930971Y-99228603D01*
X61791472Y-99228603D01*
X61791708Y-99215245D01*
X61793677Y-99150333D01*
X61796450Y-99102958D01*
X61800388Y-99069290D01*
X61805849Y-99045498D01*
X61813192Y-99027753D01*
X61822777Y-99012224D01*
X61826887Y-99006381D01*
X61881405Y-98951185D01*
X61950336Y-98919890D01*
X62030072Y-98911165D01*
X62099744Y-98919918D01*
G36*
X63216093Y-98927780D02*
X63262672Y-98954723D01*
X63295057Y-98981466D01*
X63318742Y-99009484D01*
X63335059Y-99043748D01*
X63345339Y-99089227D01*
X63350914Y-99150892D01*
X63353116Y-99233711D01*
X63353371Y-99293246D01*
X63353371Y-99512391D01*
X63291686Y-99540044D01*
X63230000Y-99567697D01*
X63222743Y-99327670D01*
X63219744Y-99238028D01*
X63216598Y-99172962D01*
X63212701Y-99128026D01*
X63207447Y-99098770D01*
X63200231Y-99080748D01*
X63190450Y-99069511D01*
X63187312Y-99067079D01*
X63139761Y-99048083D01*
X63091697Y-99055600D01*
X63063086Y-99075543D01*
X63051447Y-99089675D01*
X63043391Y-99108220D01*
X63038271Y-99136334D01*
X63035441Y-99179173D01*
X63034256Y-99241895D01*
X63034057Y-99307261D01*
X63034018Y-99389268D01*
X63032614Y-99447316D01*
X63027914Y-99486465D01*
X63017987Y-99511780D01*
X63000903Y-99528323D01*
X62974732Y-99541156D01*
X62939775Y-99554491D01*
X62901596Y-99569007D01*
X62906141Y-99311389D01*
X62907971Y-99218519D01*
X62910112Y-99149889D01*
X62913181Y-99100711D01*
X62917794Y-99066198D01*
X62924568Y-99041562D01*
X62934119Y-99022016D01*
X62945634Y-99004770D01*
X63001190Y-98949680D01*
X63068980Y-98917822D01*
X63142713Y-98910191D01*
X63216093Y-98927780D01*
X63216093Y-98927780D01*
G37*
X63216093Y-98927780D02*
X63262672Y-98954723D01*
X63295057Y-98981466D01*
X63318742Y-99009484D01*
X63335059Y-99043748D01*
X63345339Y-99089227D01*
X63350914Y-99150892D01*
X63353116Y-99233711D01*
X63353371Y-99293246D01*
X63353371Y-99512391D01*
X63291686Y-99540044D01*
X63230000Y-99567697D01*
X63222743Y-99327670D01*
X63219744Y-99238028D01*
X63216598Y-99172962D01*
X63212701Y-99128026D01*
X63207447Y-99098770D01*
X63200231Y-99080748D01*
X63190450Y-99069511D01*
X63187312Y-99067079D01*
X63139761Y-99048083D01*
X63091697Y-99055600D01*
X63063086Y-99075543D01*
X63051447Y-99089675D01*
X63043391Y-99108220D01*
X63038271Y-99136334D01*
X63035441Y-99179173D01*
X63034256Y-99241895D01*
X63034057Y-99307261D01*
X63034018Y-99389268D01*
X63032614Y-99447316D01*
X63027914Y-99486465D01*
X63017987Y-99511780D01*
X63000903Y-99528323D01*
X62974732Y-99541156D01*
X62939775Y-99554491D01*
X62901596Y-99569007D01*
X62906141Y-99311389D01*
X62907971Y-99218519D01*
X62910112Y-99149889D01*
X62913181Y-99100711D01*
X62917794Y-99066198D01*
X62924568Y-99041562D01*
X62934119Y-99022016D01*
X62945634Y-99004770D01*
X63001190Y-98949680D01*
X63068980Y-98917822D01*
X63142713Y-98910191D01*
X63216093Y-98927780D01*
G36*
X61541115Y-98921962D02*
X61609145Y-98957733D01*
X61659351Y-99015301D01*
X61677185Y-99052312D01*
X61691063Y-99107882D01*
X61698167Y-99178096D01*
X61698840Y-99254727D01*
X61693427Y-99329552D01*
X61682270Y-99394342D01*
X61665714Y-99440873D01*
X61660626Y-99448887D01*
X61600355Y-99508707D01*
X61528769Y-99544535D01*
X61451092Y-99555020D01*
X61372548Y-99538810D01*
X61350689Y-99529092D01*
X61308122Y-99499143D01*
X61270763Y-99459433D01*
X61267232Y-99454397D01*
X61252881Y-99430124D01*
X61243394Y-99404178D01*
X61237790Y-99370022D01*
X61235086Y-99321119D01*
X61234299Y-99250935D01*
X61234286Y-99235200D01*
X61234322Y-99230192D01*
X61379429Y-99230192D01*
X61380273Y-99296430D01*
X61383596Y-99340386D01*
X61390583Y-99368779D01*
X61402416Y-99388325D01*
X61408457Y-99394857D01*
X61443186Y-99419680D01*
X61476903Y-99418548D01*
X61510995Y-99397016D01*
X61531329Y-99374029D01*
X61543371Y-99340478D01*
X61550134Y-99287569D01*
X61550598Y-99281399D01*
X61551752Y-99185513D01*
X61539688Y-99114299D01*
X61514570Y-99068194D01*
X61476560Y-99047635D01*
X61462992Y-99046514D01*
X61427364Y-99052152D01*
X61402994Y-99071686D01*
X61388093Y-99109042D01*
X61380875Y-99168150D01*
X61379429Y-99230192D01*
X61234322Y-99230192D01*
X61234826Y-99160413D01*
X61237096Y-99108159D01*
X61242068Y-99071949D01*
X61250713Y-99045299D01*
X61264005Y-99021722D01*
X61266943Y-99017338D01*
X61316313Y-98958249D01*
X61370109Y-98923947D01*
X61435602Y-98910331D01*
X61457842Y-98909665D01*
X61541115Y-98921962D01*
X61541115Y-98921962D01*
G37*
X61541115Y-98921962D02*
X61609145Y-98957733D01*
X61659351Y-99015301D01*
X61677185Y-99052312D01*
X61691063Y-99107882D01*
X61698167Y-99178096D01*
X61698840Y-99254727D01*
X61693427Y-99329552D01*
X61682270Y-99394342D01*
X61665714Y-99440873D01*
X61660626Y-99448887D01*
X61600355Y-99508707D01*
X61528769Y-99544535D01*
X61451092Y-99555020D01*
X61372548Y-99538810D01*
X61350689Y-99529092D01*
X61308122Y-99499143D01*
X61270763Y-99459433D01*
X61267232Y-99454397D01*
X61252881Y-99430124D01*
X61243394Y-99404178D01*
X61237790Y-99370022D01*
X61235086Y-99321119D01*
X61234299Y-99250935D01*
X61234286Y-99235200D01*
X61234322Y-99230192D01*
X61379429Y-99230192D01*
X61380273Y-99296430D01*
X61383596Y-99340386D01*
X61390583Y-99368779D01*
X61402416Y-99388325D01*
X61408457Y-99394857D01*
X61443186Y-99419680D01*
X61476903Y-99418548D01*
X61510995Y-99397016D01*
X61531329Y-99374029D01*
X61543371Y-99340478D01*
X61550134Y-99287569D01*
X61550598Y-99281399D01*
X61551752Y-99185513D01*
X61539688Y-99114299D01*
X61514570Y-99068194D01*
X61476560Y-99047635D01*
X61462992Y-99046514D01*
X61427364Y-99052152D01*
X61402994Y-99071686D01*
X61388093Y-99109042D01*
X61380875Y-99168150D01*
X61379429Y-99230192D01*
X61234322Y-99230192D01*
X61234826Y-99160413D01*
X61237096Y-99108159D01*
X61242068Y-99071949D01*
X61250713Y-99045299D01*
X61264005Y-99021722D01*
X61266943Y-99017338D01*
X61316313Y-98958249D01*
X61370109Y-98923947D01*
X61435602Y-98910331D01*
X61457842Y-98909665D01*
X61541115Y-98921962D01*
G36*
X62668303Y-98931239D02*
X62725527Y-98969735D01*
X62769749Y-99025335D01*
X62796167Y-99096086D01*
X62801510Y-99148162D01*
X62800903Y-99169893D01*
X62795822Y-99186531D01*
X62781855Y-99201437D01*
X62754589Y-99217973D01*
X62709612Y-99239498D01*
X62642511Y-99269374D01*
X62642171Y-99269524D01*
X62580407Y-99297813D01*
X62529759Y-99322933D01*
X62495404Y-99342179D01*
X62482518Y-99352848D01*
X62482514Y-99352934D01*
X62493872Y-99376166D01*
X62520431Y-99401774D01*
X62550923Y-99420221D01*
X62566370Y-99423886D01*
X62608515Y-99411212D01*
X62644808Y-99379471D01*
X62662517Y-99344572D01*
X62679552Y-99318845D01*
X62712922Y-99289546D01*
X62752149Y-99264235D01*
X62786756Y-99250471D01*
X62793993Y-99249714D01*
X62802139Y-99262160D01*
X62802630Y-99293972D01*
X62796643Y-99336866D01*
X62785357Y-99382558D01*
X62769950Y-99422761D01*
X62769171Y-99424322D01*
X62722804Y-99489062D01*
X62662711Y-99533097D01*
X62594465Y-99554711D01*
X62523638Y-99552185D01*
X62455804Y-99523804D01*
X62452788Y-99521808D01*
X62399427Y-99473448D01*
X62364340Y-99410352D01*
X62344922Y-99327387D01*
X62342316Y-99304078D01*
X62337701Y-99194055D01*
X62343233Y-99142748D01*
X62482514Y-99142748D01*
X62484324Y-99174753D01*
X62494222Y-99184093D01*
X62518898Y-99177105D01*
X62557795Y-99160587D01*
X62601275Y-99139881D01*
X62602356Y-99139333D01*
X62639209Y-99119949D01*
X62654000Y-99107013D01*
X62650353Y-99093451D01*
X62634995Y-99075632D01*
X62595923Y-99049845D01*
X62553846Y-99047950D01*
X62516103Y-99066717D01*
X62490034Y-99102915D01*
X62482514Y-99142748D01*
X62343233Y-99142748D01*
X62347194Y-99106027D01*
X62371550Y-99036212D01*
X62405456Y-98987302D01*
X62466653Y-98937878D01*
X62534063Y-98913359D01*
X62602880Y-98911797D01*
X62668303Y-98931239D01*
X62668303Y-98931239D01*
G37*
X62668303Y-98931239D02*
X62725527Y-98969735D01*
X62769749Y-99025335D01*
X62796167Y-99096086D01*
X62801510Y-99148162D01*
X62800903Y-99169893D01*
X62795822Y-99186531D01*
X62781855Y-99201437D01*
X62754589Y-99217973D01*
X62709612Y-99239498D01*
X62642511Y-99269374D01*
X62642171Y-99269524D01*
X62580407Y-99297813D01*
X62529759Y-99322933D01*
X62495404Y-99342179D01*
X62482518Y-99352848D01*
X62482514Y-99352934D01*
X62493872Y-99376166D01*
X62520431Y-99401774D01*
X62550923Y-99420221D01*
X62566370Y-99423886D01*
X62608515Y-99411212D01*
X62644808Y-99379471D01*
X62662517Y-99344572D01*
X62679552Y-99318845D01*
X62712922Y-99289546D01*
X62752149Y-99264235D01*
X62786756Y-99250471D01*
X62793993Y-99249714D01*
X62802139Y-99262160D01*
X62802630Y-99293972D01*
X62796643Y-99336866D01*
X62785357Y-99382558D01*
X62769950Y-99422761D01*
X62769171Y-99424322D01*
X62722804Y-99489062D01*
X62662711Y-99533097D01*
X62594465Y-99554711D01*
X62523638Y-99552185D01*
X62455804Y-99523804D01*
X62452788Y-99521808D01*
X62399427Y-99473448D01*
X62364340Y-99410352D01*
X62344922Y-99327387D01*
X62342316Y-99304078D01*
X62337701Y-99194055D01*
X62343233Y-99142748D01*
X62482514Y-99142748D01*
X62484324Y-99174753D01*
X62494222Y-99184093D01*
X62518898Y-99177105D01*
X62557795Y-99160587D01*
X62601275Y-99139881D01*
X62602356Y-99139333D01*
X62639209Y-99119949D01*
X62654000Y-99107013D01*
X62650353Y-99093451D01*
X62634995Y-99075632D01*
X62595923Y-99049845D01*
X62553846Y-99047950D01*
X62516103Y-99066717D01*
X62490034Y-99102915D01*
X62482514Y-99142748D01*
X62343233Y-99142748D01*
X62347194Y-99106027D01*
X62371550Y-99036212D01*
X62405456Y-98987302D01*
X62466653Y-98937878D01*
X62534063Y-98913359D01*
X62602880Y-98911797D01*
X62668303Y-98931239D01*
G36*
X63875886Y-98851289D02*
X63880139Y-98910613D01*
X63885025Y-98945572D01*
X63891795Y-98960820D01*
X63901702Y-98961015D01*
X63904914Y-98959195D01*
X63947644Y-98946015D01*
X64003227Y-98946785D01*
X64059737Y-98960333D01*
X64095082Y-98977861D01*
X64131321Y-99005861D01*
X64157813Y-99037549D01*
X64175999Y-99077813D01*
X64187322Y-99131543D01*
X64193222Y-99203626D01*
X64195143Y-99298951D01*
X64195177Y-99317237D01*
X64195200Y-99522646D01*
X64149491Y-99538580D01*
X64117027Y-99549420D01*
X64099215Y-99554468D01*
X64098691Y-99554514D01*
X64096937Y-99540828D01*
X64095444Y-99503076D01*
X64094326Y-99446224D01*
X64093697Y-99375234D01*
X64093600Y-99332073D01*
X64093398Y-99246973D01*
X64092358Y-99185981D01*
X64089831Y-99144177D01*
X64085164Y-99116642D01*
X64077707Y-99098456D01*
X64066811Y-99084698D01*
X64060007Y-99078073D01*
X64013272Y-99051375D01*
X63962272Y-99049375D01*
X63916001Y-99071955D01*
X63907444Y-99080107D01*
X63894893Y-99095436D01*
X63886188Y-99113618D01*
X63880631Y-99139909D01*
X63877526Y-99179562D01*
X63876176Y-99237832D01*
X63875886Y-99318173D01*
X63875886Y-99522646D01*
X63830177Y-99538580D01*
X63797713Y-99549420D01*
X63779901Y-99554468D01*
X63779377Y-99554514D01*
X63778037Y-99540623D01*
X63776828Y-99501439D01*
X63775801Y-99440700D01*
X63775002Y-99362141D01*
X63774481Y-99269498D01*
X63774286Y-99166509D01*
X63774286Y-98769342D01*
X63821457Y-98749444D01*
X63868629Y-98729547D01*
X63875886Y-98851289D01*
X63875886Y-98851289D01*
G37*
X63875886Y-98851289D02*
X63880139Y-98910613D01*
X63885025Y-98945572D01*
X63891795Y-98960820D01*
X63901702Y-98961015D01*
X63904914Y-98959195D01*
X63947644Y-98946015D01*
X64003227Y-98946785D01*
X64059737Y-98960333D01*
X64095082Y-98977861D01*
X64131321Y-99005861D01*
X64157813Y-99037549D01*
X64175999Y-99077813D01*
X64187322Y-99131543D01*
X64193222Y-99203626D01*
X64195143Y-99298951D01*
X64195177Y-99317237D01*
X64195200Y-99522646D01*
X64149491Y-99538580D01*
X64117027Y-99549420D01*
X64099215Y-99554468D01*
X64098691Y-99554514D01*
X64096937Y-99540828D01*
X64095444Y-99503076D01*
X64094326Y-99446224D01*
X64093697Y-99375234D01*
X64093600Y-99332073D01*
X64093398Y-99246973D01*
X64092358Y-99185981D01*
X64089831Y-99144177D01*
X64085164Y-99116642D01*
X64077707Y-99098456D01*
X64066811Y-99084698D01*
X64060007Y-99078073D01*
X64013272Y-99051375D01*
X63962272Y-99049375D01*
X63916001Y-99071955D01*
X63907444Y-99080107D01*
X63894893Y-99095436D01*
X63886188Y-99113618D01*
X63880631Y-99139909D01*
X63877526Y-99179562D01*
X63876176Y-99237832D01*
X63875886Y-99318173D01*
X63875886Y-99522646D01*
X63830177Y-99538580D01*
X63797713Y-99549420D01*
X63779901Y-99554468D01*
X63779377Y-99554514D01*
X63778037Y-99540623D01*
X63776828Y-99501439D01*
X63775801Y-99440700D01*
X63775002Y-99362141D01*
X63774481Y-99269498D01*
X63774286Y-99166509D01*
X63774286Y-98769342D01*
X63821457Y-98749444D01*
X63868629Y-98729547D01*
X63875886Y-98851289D01*
G36*
X64539744Y-98950968D02*
X64596616Y-98972087D01*
X64597267Y-98972493D01*
X64632440Y-98998380D01*
X64658407Y-99028633D01*
X64676670Y-99068058D01*
X64688732Y-99121462D01*
X64696096Y-99193651D01*
X64700264Y-99289432D01*
X64700629Y-99303078D01*
X64705876Y-99508842D01*
X64661716Y-99531678D01*
X64629763Y-99547110D01*
X64610470Y-99554423D01*
X64609578Y-99554514D01*
X64606239Y-99541022D01*
X64603587Y-99504626D01*
X64601956Y-99451452D01*
X64601600Y-99408393D01*
X64601592Y-99338641D01*
X64598403Y-99294837D01*
X64587288Y-99273944D01*
X64563501Y-99272925D01*
X64522296Y-99288741D01*
X64460086Y-99317815D01*
X64414341Y-99341963D01*
X64390813Y-99362913D01*
X64383896Y-99385747D01*
X64383886Y-99386877D01*
X64395299Y-99426212D01*
X64429092Y-99447462D01*
X64480809Y-99450539D01*
X64518061Y-99450006D01*
X64537703Y-99460735D01*
X64549952Y-99486505D01*
X64557002Y-99519337D01*
X64546842Y-99537966D01*
X64543017Y-99540632D01*
X64507001Y-99551340D01*
X64456566Y-99552856D01*
X64404626Y-99545759D01*
X64367822Y-99532788D01*
X64316938Y-99489585D01*
X64288014Y-99429446D01*
X64282286Y-99382462D01*
X64286657Y-99340082D01*
X64302475Y-99305488D01*
X64333797Y-99274763D01*
X64384678Y-99243990D01*
X64459176Y-99209252D01*
X64463714Y-99207288D01*
X64530821Y-99176287D01*
X64572232Y-99150862D01*
X64589981Y-99128014D01*
X64586107Y-99104745D01*
X64562643Y-99078056D01*
X64555627Y-99071914D01*
X64508630Y-99048100D01*
X64459933Y-99049103D01*
X64417522Y-99072451D01*
X64389384Y-99115675D01*
X64386769Y-99124160D01*
X64361308Y-99165308D01*
X64329001Y-99185128D01*
X64282286Y-99204770D01*
X64282286Y-99153950D01*
X64296496Y-99080082D01*
X64338675Y-99012327D01*
X64360624Y-98989661D01*
X64410517Y-98960569D01*
X64473967Y-98947400D01*
X64539744Y-98950968D01*
X64539744Y-98950968D01*
G37*
X64539744Y-98950968D02*
X64596616Y-98972087D01*
X64597267Y-98972493D01*
X64632440Y-98998380D01*
X64658407Y-99028633D01*
X64676670Y-99068058D01*
X64688732Y-99121462D01*
X64696096Y-99193651D01*
X64700264Y-99289432D01*
X64700629Y-99303078D01*
X64705876Y-99508842D01*
X64661716Y-99531678D01*
X64629763Y-99547110D01*
X64610470Y-99554423D01*
X64609578Y-99554514D01*
X64606239Y-99541022D01*
X64603587Y-99504626D01*
X64601956Y-99451452D01*
X64601600Y-99408393D01*
X64601592Y-99338641D01*
X64598403Y-99294837D01*
X64587288Y-99273944D01*
X64563501Y-99272925D01*
X64522296Y-99288741D01*
X64460086Y-99317815D01*
X64414341Y-99341963D01*
X64390813Y-99362913D01*
X64383896Y-99385747D01*
X64383886Y-99386877D01*
X64395299Y-99426212D01*
X64429092Y-99447462D01*
X64480809Y-99450539D01*
X64518061Y-99450006D01*
X64537703Y-99460735D01*
X64549952Y-99486505D01*
X64557002Y-99519337D01*
X64546842Y-99537966D01*
X64543017Y-99540632D01*
X64507001Y-99551340D01*
X64456566Y-99552856D01*
X64404626Y-99545759D01*
X64367822Y-99532788D01*
X64316938Y-99489585D01*
X64288014Y-99429446D01*
X64282286Y-99382462D01*
X64286657Y-99340082D01*
X64302475Y-99305488D01*
X64333797Y-99274763D01*
X64384678Y-99243990D01*
X64459176Y-99209252D01*
X64463714Y-99207288D01*
X64530821Y-99176287D01*
X64572232Y-99150862D01*
X64589981Y-99128014D01*
X64586107Y-99104745D01*
X64562643Y-99078056D01*
X64555627Y-99071914D01*
X64508630Y-99048100D01*
X64459933Y-99049103D01*
X64417522Y-99072451D01*
X64389384Y-99115675D01*
X64386769Y-99124160D01*
X64361308Y-99165308D01*
X64329001Y-99185128D01*
X64282286Y-99204770D01*
X64282286Y-99153950D01*
X64296496Y-99080082D01*
X64338675Y-99012327D01*
X64360624Y-98989661D01*
X64410517Y-98960569D01*
X64473967Y-98947400D01*
X64539744Y-98950968D01*
G36*
X65029926Y-98949755D02*
X65095858Y-98974084D01*
X65149273Y-99017117D01*
X65170164Y-99047409D01*
X65192939Y-99102994D01*
X65192466Y-99143186D01*
X65168562Y-99170217D01*
X65159717Y-99174813D01*
X65121530Y-99189144D01*
X65102028Y-99185472D01*
X65095422Y-99161407D01*
X65095086Y-99148114D01*
X65082992Y-99099210D01*
X65051471Y-99064999D01*
X65007659Y-99048476D01*
X64958695Y-99052634D01*
X64918894Y-99074227D01*
X64905450Y-99086544D01*
X64895921Y-99101487D01*
X64889485Y-99124075D01*
X64885317Y-99159328D01*
X64882597Y-99212266D01*
X64880502Y-99287907D01*
X64879960Y-99311857D01*
X64877981Y-99393790D01*
X64875731Y-99451455D01*
X64872357Y-99489608D01*
X64867006Y-99513004D01*
X64858824Y-99526398D01*
X64846959Y-99534545D01*
X64839362Y-99538144D01*
X64807102Y-99550452D01*
X64788111Y-99554514D01*
X64781836Y-99540948D01*
X64778006Y-99499934D01*
X64776600Y-99430999D01*
X64777598Y-99333669D01*
X64777908Y-99318657D01*
X64780101Y-99229859D01*
X64782693Y-99165019D01*
X64786382Y-99119067D01*
X64791864Y-99086935D01*
X64799835Y-99063553D01*
X64810993Y-99043852D01*
X64816830Y-99035410D01*
X64850296Y-98998057D01*
X64887727Y-98969003D01*
X64892309Y-98966467D01*
X64959426Y-98946443D01*
X65029926Y-98949755D01*
X65029926Y-98949755D01*
G37*
X65029926Y-98949755D02*
X65095858Y-98974084D01*
X65149273Y-99017117D01*
X65170164Y-99047409D01*
X65192939Y-99102994D01*
X65192466Y-99143186D01*
X65168562Y-99170217D01*
X65159717Y-99174813D01*
X65121530Y-99189144D01*
X65102028Y-99185472D01*
X65095422Y-99161407D01*
X65095086Y-99148114D01*
X65082992Y-99099210D01*
X65051471Y-99064999D01*
X65007659Y-99048476D01*
X64958695Y-99052634D01*
X64918894Y-99074227D01*
X64905450Y-99086544D01*
X64895921Y-99101487D01*
X64889485Y-99124075D01*
X64885317Y-99159328D01*
X64882597Y-99212266D01*
X64880502Y-99287907D01*
X64879960Y-99311857D01*
X64877981Y-99393790D01*
X64875731Y-99451455D01*
X64872357Y-99489608D01*
X64867006Y-99513004D01*
X64858824Y-99526398D01*
X64846959Y-99534545D01*
X64839362Y-99538144D01*
X64807102Y-99550452D01*
X64788111Y-99554514D01*
X64781836Y-99540948D01*
X64778006Y-99499934D01*
X64776600Y-99430999D01*
X64777598Y-99333669D01*
X64777908Y-99318657D01*
X64780101Y-99229859D01*
X64782693Y-99165019D01*
X64786382Y-99119067D01*
X64791864Y-99086935D01*
X64799835Y-99063553D01*
X64810993Y-99043852D01*
X64816830Y-99035410D01*
X64850296Y-98998057D01*
X64887727Y-98969003D01*
X64892309Y-98966467D01*
X64959426Y-98946443D01*
X65029926Y-98949755D01*
G36*
X65690117Y-99065358D02*
X65689933Y-99173837D01*
X65689219Y-99257287D01*
X65687675Y-99319704D01*
X65685001Y-99365085D01*
X65680894Y-99397429D01*
X65675055Y-99420733D01*
X65667182Y-99438995D01*
X65661221Y-99449418D01*
X65611855Y-99505945D01*
X65549264Y-99541377D01*
X65480013Y-99554090D01*
X65410668Y-99542463D01*
X65369375Y-99521568D01*
X65326025Y-99485422D01*
X65296481Y-99441276D01*
X65278655Y-99383462D01*
X65270463Y-99306313D01*
X65269302Y-99249714D01*
X65269458Y-99245647D01*
X65370857Y-99245647D01*
X65371476Y-99310550D01*
X65374314Y-99353514D01*
X65380840Y-99381622D01*
X65392523Y-99401953D01*
X65406483Y-99417288D01*
X65453365Y-99446890D01*
X65503701Y-99449419D01*
X65551276Y-99424705D01*
X65554979Y-99421356D01*
X65570783Y-99403935D01*
X65580693Y-99383209D01*
X65586058Y-99352362D01*
X65588228Y-99304577D01*
X65588571Y-99251748D01*
X65587827Y-99185381D01*
X65584748Y-99141106D01*
X65578061Y-99112009D01*
X65566496Y-99091173D01*
X65557013Y-99080107D01*
X65512960Y-99052198D01*
X65462224Y-99048843D01*
X65413796Y-99070159D01*
X65404450Y-99078073D01*
X65388540Y-99095647D01*
X65378610Y-99116587D01*
X65373278Y-99147782D01*
X65371163Y-99196122D01*
X65370857Y-99245647D01*
X65269458Y-99245647D01*
X65272810Y-99158568D01*
X65284726Y-99090086D01*
X65307135Y-99038600D01*
X65342124Y-98998443D01*
X65369375Y-98977861D01*
X65418907Y-98955625D01*
X65476316Y-98945304D01*
X65529682Y-98948067D01*
X65559543Y-98959212D01*
X65571261Y-98962383D01*
X65579037Y-98950557D01*
X65584465Y-98918866D01*
X65588571Y-98870593D01*
X65593067Y-98816829D01*
X65599313Y-98784482D01*
X65610676Y-98765985D01*
X65630528Y-98753770D01*
X65643000Y-98748362D01*
X65690171Y-98728601D01*
X65690117Y-99065358D01*
X65690117Y-99065358D01*
G37*
X65690117Y-99065358D02*
X65689933Y-99173837D01*
X65689219Y-99257287D01*
X65687675Y-99319704D01*
X65685001Y-99365085D01*
X65680894Y-99397429D01*
X65675055Y-99420733D01*
X65667182Y-99438995D01*
X65661221Y-99449418D01*
X65611855Y-99505945D01*
X65549264Y-99541377D01*
X65480013Y-99554090D01*
X65410668Y-99542463D01*
X65369375Y-99521568D01*
X65326025Y-99485422D01*
X65296481Y-99441276D01*
X65278655Y-99383462D01*
X65270463Y-99306313D01*
X65269302Y-99249714D01*
X65269458Y-99245647D01*
X65370857Y-99245647D01*
X65371476Y-99310550D01*
X65374314Y-99353514D01*
X65380840Y-99381622D01*
X65392523Y-99401953D01*
X65406483Y-99417288D01*
X65453365Y-99446890D01*
X65503701Y-99449419D01*
X65551276Y-99424705D01*
X65554979Y-99421356D01*
X65570783Y-99403935D01*
X65580693Y-99383209D01*
X65586058Y-99352362D01*
X65588228Y-99304577D01*
X65588571Y-99251748D01*
X65587827Y-99185381D01*
X65584748Y-99141106D01*
X65578061Y-99112009D01*
X65566496Y-99091173D01*
X65557013Y-99080107D01*
X65512960Y-99052198D01*
X65462224Y-99048843D01*
X65413796Y-99070159D01*
X65404450Y-99078073D01*
X65388540Y-99095647D01*
X65378610Y-99116587D01*
X65373278Y-99147782D01*
X65371163Y-99196122D01*
X65370857Y-99245647D01*
X65269458Y-99245647D01*
X65272810Y-99158568D01*
X65284726Y-99090086D01*
X65307135Y-99038600D01*
X65342124Y-98998443D01*
X65369375Y-98977861D01*
X65418907Y-98955625D01*
X65476316Y-98945304D01*
X65529682Y-98948067D01*
X65559543Y-98959212D01*
X65571261Y-98962383D01*
X65579037Y-98950557D01*
X65584465Y-98918866D01*
X65588571Y-98870593D01*
X65593067Y-98816829D01*
X65599313Y-98784482D01*
X65610676Y-98765985D01*
X65630528Y-98753770D01*
X65643000Y-98748362D01*
X65690171Y-98728601D01*
X65690117Y-99065358D01*
G36*
X66279833Y-98958663D02*
X66282048Y-98996850D01*
X66283784Y-99054886D01*
X66284899Y-99128180D01*
X66285257Y-99205055D01*
X66285257Y-99465196D01*
X66239326Y-99511127D01*
X66207675Y-99539429D01*
X66179890Y-99550893D01*
X66141915Y-99550168D01*
X66126840Y-99548321D01*
X66079726Y-99542948D01*
X66040756Y-99539869D01*
X66031257Y-99539585D01*
X65999233Y-99541445D01*
X65953432Y-99546114D01*
X65935674Y-99548321D01*
X65892057Y-99551735D01*
X65862745Y-99544320D01*
X65833680Y-99521427D01*
X65823188Y-99511127D01*
X65777257Y-99465196D01*
X65777257Y-98978602D01*
X65814226Y-98961758D01*
X65846059Y-98949282D01*
X65864683Y-98944914D01*
X65869458Y-98958718D01*
X65873921Y-98997286D01*
X65877775Y-99056356D01*
X65880722Y-99131663D01*
X65882143Y-99195286D01*
X65886114Y-99445657D01*
X65920759Y-99450556D01*
X65952268Y-99447131D01*
X65967708Y-99436041D01*
X65972023Y-99415308D01*
X65975708Y-99371145D01*
X65978469Y-99309146D01*
X65980012Y-99234909D01*
X65980235Y-99196706D01*
X65980457Y-98976783D01*
X66026166Y-98960849D01*
X66058518Y-98950015D01*
X66076115Y-98944962D01*
X66076623Y-98944914D01*
X66078388Y-98958648D01*
X66080329Y-98996730D01*
X66082282Y-99054482D01*
X66084084Y-99127227D01*
X66085343Y-99195286D01*
X66089314Y-99445657D01*
X66176400Y-99445657D01*
X66180396Y-99217240D01*
X66184392Y-98988822D01*
X66226847Y-98966868D01*
X66258192Y-98951793D01*
X66276744Y-98944951D01*
X66277279Y-98944914D01*
X66279833Y-98958663D01*
X66279833Y-98958663D01*
G37*
X66279833Y-98958663D02*
X66282048Y-98996850D01*
X66283784Y-99054886D01*
X66284899Y-99128180D01*
X66285257Y-99205055D01*
X66285257Y-99465196D01*
X66239326Y-99511127D01*
X66207675Y-99539429D01*
X66179890Y-99550893D01*
X66141915Y-99550168D01*
X66126840Y-99548321D01*
X66079726Y-99542948D01*
X66040756Y-99539869D01*
X66031257Y-99539585D01*
X65999233Y-99541445D01*
X65953432Y-99546114D01*
X65935674Y-99548321D01*
X65892057Y-99551735D01*
X65862745Y-99544320D01*
X65833680Y-99521427D01*
X65823188Y-99511127D01*
X65777257Y-99465196D01*
X65777257Y-98978602D01*
X65814226Y-98961758D01*
X65846059Y-98949282D01*
X65864683Y-98944914D01*
X65869458Y-98958718D01*
X65873921Y-98997286D01*
X65877775Y-99056356D01*
X65880722Y-99131663D01*
X65882143Y-99195286D01*
X65886114Y-99445657D01*
X65920759Y-99450556D01*
X65952268Y-99447131D01*
X65967708Y-99436041D01*
X65972023Y-99415308D01*
X65975708Y-99371145D01*
X65978469Y-99309146D01*
X65980012Y-99234909D01*
X65980235Y-99196706D01*
X65980457Y-98976783D01*
X66026166Y-98960849D01*
X66058518Y-98950015D01*
X66076115Y-98944962D01*
X66076623Y-98944914D01*
X66078388Y-98958648D01*
X66080329Y-98996730D01*
X66082282Y-99054482D01*
X66084084Y-99127227D01*
X66085343Y-99195286D01*
X66089314Y-99445657D01*
X66176400Y-99445657D01*
X66180396Y-99217240D01*
X66184392Y-98988822D01*
X66226847Y-98966868D01*
X66258192Y-98951793D01*
X66276744Y-98944951D01*
X66277279Y-98944914D01*
X66279833Y-98958663D01*
G36*
X66644876Y-98956335D02*
X66686667Y-98975344D01*
X66719469Y-98998378D01*
X66743503Y-99024133D01*
X66760097Y-99057358D01*
X66770577Y-99102800D01*
X66776271Y-99165207D01*
X66778507Y-99249327D01*
X66778743Y-99304721D01*
X66778743Y-99520826D01*
X66741774Y-99537670D01*
X66712656Y-99549981D01*
X66698231Y-99554514D01*
X66695472Y-99541025D01*
X66693282Y-99504653D01*
X66691942Y-99451542D01*
X66691657Y-99409372D01*
X66690434Y-99348447D01*
X66687136Y-99300115D01*
X66682321Y-99270518D01*
X66678496Y-99264229D01*
X66652783Y-99270652D01*
X66612418Y-99287125D01*
X66565679Y-99309458D01*
X66520845Y-99333457D01*
X66486193Y-99354930D01*
X66470002Y-99369685D01*
X66469938Y-99369845D01*
X66471330Y-99397152D01*
X66483818Y-99423219D01*
X66505743Y-99444392D01*
X66537743Y-99451474D01*
X66565092Y-99450649D01*
X66603826Y-99450042D01*
X66624158Y-99459116D01*
X66636369Y-99483092D01*
X66637909Y-99487613D01*
X66643203Y-99521806D01*
X66629047Y-99542568D01*
X66592148Y-99552462D01*
X66552289Y-99554292D01*
X66480562Y-99540727D01*
X66443432Y-99521355D01*
X66397576Y-99475845D01*
X66373256Y-99419983D01*
X66371073Y-99360957D01*
X66391629Y-99305953D01*
X66422549Y-99271486D01*
X66453420Y-99252189D01*
X66501942Y-99227759D01*
X66558485Y-99202985D01*
X66567910Y-99199199D01*
X66630019Y-99171791D01*
X66665822Y-99147634D01*
X66677337Y-99123619D01*
X66666580Y-99096635D01*
X66648114Y-99075543D01*
X66604469Y-99049572D01*
X66556446Y-99047624D01*
X66512406Y-99067637D01*
X66480709Y-99107551D01*
X66476549Y-99117848D01*
X66452327Y-99155724D01*
X66416965Y-99183842D01*
X66372343Y-99206917D01*
X66372343Y-99141485D01*
X66374969Y-99101506D01*
X66386230Y-99069997D01*
X66411199Y-99036378D01*
X66435169Y-99010484D01*
X66472441Y-98973817D01*
X66501401Y-98954121D01*
X66532505Y-98946220D01*
X66567713Y-98944914D01*
X66644876Y-98956335D01*
X66644876Y-98956335D01*
G37*
X66644876Y-98956335D02*
X66686667Y-98975344D01*
X66719469Y-98998378D01*
X66743503Y-99024133D01*
X66760097Y-99057358D01*
X66770577Y-99102800D01*
X66776271Y-99165207D01*
X66778507Y-99249327D01*
X66778743Y-99304721D01*
X66778743Y-99520826D01*
X66741774Y-99537670D01*
X66712656Y-99549981D01*
X66698231Y-99554514D01*
X66695472Y-99541025D01*
X66693282Y-99504653D01*
X66691942Y-99451542D01*
X66691657Y-99409372D01*
X66690434Y-99348447D01*
X66687136Y-99300115D01*
X66682321Y-99270518D01*
X66678496Y-99264229D01*
X66652783Y-99270652D01*
X66612418Y-99287125D01*
X66565679Y-99309458D01*
X66520845Y-99333457D01*
X66486193Y-99354930D01*
X66470002Y-99369685D01*
X66469938Y-99369845D01*
X66471330Y-99397152D01*
X66483818Y-99423219D01*
X66505743Y-99444392D01*
X66537743Y-99451474D01*
X66565092Y-99450649D01*
X66603826Y-99450042D01*
X66624158Y-99459116D01*
X66636369Y-99483092D01*
X66637909Y-99487613D01*
X66643203Y-99521806D01*
X66629047Y-99542568D01*
X66592148Y-99552462D01*
X66552289Y-99554292D01*
X66480562Y-99540727D01*
X66443432Y-99521355D01*
X66397576Y-99475845D01*
X66373256Y-99419983D01*
X66371073Y-99360957D01*
X66391629Y-99305953D01*
X66422549Y-99271486D01*
X66453420Y-99252189D01*
X66501942Y-99227759D01*
X66558485Y-99202985D01*
X66567910Y-99199199D01*
X66630019Y-99171791D01*
X66665822Y-99147634D01*
X66677337Y-99123619D01*
X66666580Y-99096635D01*
X66648114Y-99075543D01*
X66604469Y-99049572D01*
X66556446Y-99047624D01*
X66512406Y-99067637D01*
X66480709Y-99107551D01*
X66476549Y-99117848D01*
X66452327Y-99155724D01*
X66416965Y-99183842D01*
X66372343Y-99206917D01*
X66372343Y-99141485D01*
X66374969Y-99101506D01*
X66386230Y-99069997D01*
X66411199Y-99036378D01*
X66435169Y-99010484D01*
X66472441Y-98973817D01*
X66501401Y-98954121D01*
X66532505Y-98946220D01*
X66567713Y-98944914D01*
X66644876Y-98956335D01*
G36*
X67152600Y-98958752D02*
X67169948Y-98966334D01*
X67211356Y-98999128D01*
X67246765Y-99046547D01*
X67268664Y-99097151D01*
X67272229Y-99122098D01*
X67260279Y-99156927D01*
X67234067Y-99175357D01*
X67205964Y-99186516D01*
X67193095Y-99188572D01*
X67186829Y-99173649D01*
X67174456Y-99141175D01*
X67169028Y-99126502D01*
X67138590Y-99075744D01*
X67094520Y-99050427D01*
X67038010Y-99051206D01*
X67033825Y-99052203D01*
X67003655Y-99066507D01*
X66981476Y-99094393D01*
X66966327Y-99139287D01*
X66957250Y-99204615D01*
X66953286Y-99293804D01*
X66952914Y-99341261D01*
X66952730Y-99416071D01*
X66951522Y-99467069D01*
X66948309Y-99499471D01*
X66942109Y-99518495D01*
X66931940Y-99529356D01*
X66916819Y-99537272D01*
X66915946Y-99537670D01*
X66886828Y-99549981D01*
X66872403Y-99554514D01*
X66870186Y-99540809D01*
X66868289Y-99502925D01*
X66866847Y-99445715D01*
X66865998Y-99374027D01*
X66865829Y-99321565D01*
X66866692Y-99220047D01*
X66870070Y-99143032D01*
X66877142Y-99086023D01*
X66889088Y-99044526D01*
X66907090Y-99014043D01*
X66932327Y-98990080D01*
X66957247Y-98973355D01*
X67017171Y-98951097D01*
X67086911Y-98946076D01*
X67152600Y-98958752D01*
X67152600Y-98958752D01*
G37*
X67152600Y-98958752D02*
X67169948Y-98966334D01*
X67211356Y-98999128D01*
X67246765Y-99046547D01*
X67268664Y-99097151D01*
X67272229Y-99122098D01*
X67260279Y-99156927D01*
X67234067Y-99175357D01*
X67205964Y-99186516D01*
X67193095Y-99188572D01*
X67186829Y-99173649D01*
X67174456Y-99141175D01*
X67169028Y-99126502D01*
X67138590Y-99075744D01*
X67094520Y-99050427D01*
X67038010Y-99051206D01*
X67033825Y-99052203D01*
X67003655Y-99066507D01*
X66981476Y-99094393D01*
X66966327Y-99139287D01*
X66957250Y-99204615D01*
X66953286Y-99293804D01*
X66952914Y-99341261D01*
X66952730Y-99416071D01*
X66951522Y-99467069D01*
X66948309Y-99499471D01*
X66942109Y-99518495D01*
X66931940Y-99529356D01*
X66916819Y-99537272D01*
X66915946Y-99537670D01*
X66886828Y-99549981D01*
X66872403Y-99554514D01*
X66870186Y-99540809D01*
X66868289Y-99502925D01*
X66866847Y-99445715D01*
X66865998Y-99374027D01*
X66865829Y-99321565D01*
X66866692Y-99220047D01*
X66870070Y-99143032D01*
X66877142Y-99086023D01*
X66889088Y-99044526D01*
X66907090Y-99014043D01*
X66932327Y-98990080D01*
X66957247Y-98973355D01*
X67017171Y-98951097D01*
X67086911Y-98946076D01*
X67152600Y-98958752D01*
G36*
X67653595Y-98966966D02*
X67711021Y-99004497D01*
X67738719Y-99038096D01*
X67760662Y-99099064D01*
X67762405Y-99147308D01*
X67758457Y-99211816D01*
X67609686Y-99276934D01*
X67537349Y-99310202D01*
X67490084Y-99336964D01*
X67465507Y-99360144D01*
X67461237Y-99382667D01*
X67474889Y-99407455D01*
X67489943Y-99423886D01*
X67533746Y-99450235D01*
X67581389Y-99452081D01*
X67625145Y-99431546D01*
X67657289Y-99390752D01*
X67663038Y-99376347D01*
X67690576Y-99331356D01*
X67722258Y-99312182D01*
X67765714Y-99295779D01*
X67765714Y-99357966D01*
X67761872Y-99400283D01*
X67746823Y-99435969D01*
X67715280Y-99476943D01*
X67710592Y-99482267D01*
X67675506Y-99518720D01*
X67645347Y-99538283D01*
X67607615Y-99547283D01*
X67576335Y-99550230D01*
X67520385Y-99550965D01*
X67480555Y-99541660D01*
X67455708Y-99527846D01*
X67416656Y-99497467D01*
X67389625Y-99464613D01*
X67372517Y-99423294D01*
X67363238Y-99367521D01*
X67359693Y-99291305D01*
X67359410Y-99252622D01*
X67360372Y-99206247D01*
X67448007Y-99206247D01*
X67449023Y-99231126D01*
X67451556Y-99235200D01*
X67468274Y-99229665D01*
X67504249Y-99215017D01*
X67552331Y-99194190D01*
X67562386Y-99189714D01*
X67623152Y-99158814D01*
X67656632Y-99131657D01*
X67663990Y-99106220D01*
X67646391Y-99080481D01*
X67631856Y-99069109D01*
X67579410Y-99046364D01*
X67530322Y-99050122D01*
X67489227Y-99077884D01*
X67460758Y-99127152D01*
X67451631Y-99166257D01*
X67448007Y-99206247D01*
X67360372Y-99206247D01*
X67361285Y-99162249D01*
X67368196Y-99095384D01*
X67381884Y-99046695D01*
X67404096Y-99010849D01*
X67436574Y-98982513D01*
X67450733Y-98973355D01*
X67515053Y-98949507D01*
X67585473Y-98948006D01*
X67653595Y-98966966D01*
X67653595Y-98966966D01*
G37*
X67653595Y-98966966D02*
X67711021Y-99004497D01*
X67738719Y-99038096D01*
X67760662Y-99099064D01*
X67762405Y-99147308D01*
X67758457Y-99211816D01*
X67609686Y-99276934D01*
X67537349Y-99310202D01*
X67490084Y-99336964D01*
X67465507Y-99360144D01*
X67461237Y-99382667D01*
X67474889Y-99407455D01*
X67489943Y-99423886D01*
X67533746Y-99450235D01*
X67581389Y-99452081D01*
X67625145Y-99431546D01*
X67657289Y-99390752D01*
X67663038Y-99376347D01*
X67690576Y-99331356D01*
X67722258Y-99312182D01*
X67765714Y-99295779D01*
X67765714Y-99357966D01*
X67761872Y-99400283D01*
X67746823Y-99435969D01*
X67715280Y-99476943D01*
X67710592Y-99482267D01*
X67675506Y-99518720D01*
X67645347Y-99538283D01*
X67607615Y-99547283D01*
X67576335Y-99550230D01*
X67520385Y-99550965D01*
X67480555Y-99541660D01*
X67455708Y-99527846D01*
X67416656Y-99497467D01*
X67389625Y-99464613D01*
X67372517Y-99423294D01*
X67363238Y-99367521D01*
X67359693Y-99291305D01*
X67359410Y-99252622D01*
X67360372Y-99206247D01*
X67448007Y-99206247D01*
X67449023Y-99231126D01*
X67451556Y-99235200D01*
X67468274Y-99229665D01*
X67504249Y-99215017D01*
X67552331Y-99194190D01*
X67562386Y-99189714D01*
X67623152Y-99158814D01*
X67656632Y-99131657D01*
X67663990Y-99106220D01*
X67646391Y-99080481D01*
X67631856Y-99069109D01*
X67579410Y-99046364D01*
X67530322Y-99050122D01*
X67489227Y-99077884D01*
X67460758Y-99127152D01*
X67451631Y-99166257D01*
X67448007Y-99206247D01*
X67360372Y-99206247D01*
X67361285Y-99162249D01*
X67368196Y-99095384D01*
X67381884Y-99046695D01*
X67404096Y-99010849D01*
X67436574Y-98982513D01*
X67450733Y-98973355D01*
X67515053Y-98949507D01*
X67585473Y-98948006D01*
X67653595Y-98966966D01*
G36*
X64603910Y-94242348D02*
X64682454Y-94242778D01*
X64739298Y-94243942D01*
X64778105Y-94246207D01*
X64802538Y-94249940D01*
X64816262Y-94255506D01*
X64822940Y-94263273D01*
X64826236Y-94273605D01*
X64826556Y-94274943D01*
X64831562Y-94299079D01*
X64840829Y-94346701D01*
X64853392Y-94412741D01*
X64868287Y-94492128D01*
X64884551Y-94579796D01*
X64885119Y-94582875D01*
X64901410Y-94668789D01*
X64916652Y-94744696D01*
X64929861Y-94806045D01*
X64940054Y-94848282D01*
X64946248Y-94866855D01*
X64946543Y-94867184D01*
X64964788Y-94876253D01*
X65002405Y-94891367D01*
X65051271Y-94909262D01*
X65051543Y-94909358D01*
X65113093Y-94932493D01*
X65185657Y-94961965D01*
X65254057Y-94991597D01*
X65257294Y-94993062D01*
X65368702Y-95043626D01*
X65615399Y-94875160D01*
X65691077Y-94823803D01*
X65759631Y-94777889D01*
X65817088Y-94740030D01*
X65859476Y-94712837D01*
X65882825Y-94698921D01*
X65885042Y-94697889D01*
X65902010Y-94702484D01*
X65933701Y-94724655D01*
X65981352Y-94765447D01*
X66046198Y-94825905D01*
X66112397Y-94890227D01*
X66176214Y-94953612D01*
X66233329Y-95011451D01*
X66280305Y-95060175D01*
X66313703Y-95096210D01*
X66330085Y-95115984D01*
X66330694Y-95117002D01*
X66332505Y-95130572D01*
X66325683Y-95152733D01*
X66308540Y-95186478D01*
X66279393Y-95234800D01*
X66236555Y-95300692D01*
X66179448Y-95385517D01*
X66128766Y-95460177D01*
X66083461Y-95527140D01*
X66046150Y-95582516D01*
X66019452Y-95622420D01*
X66005985Y-95642962D01*
X66005137Y-95644356D01*
X66006781Y-95664038D01*
X66019245Y-95702293D01*
X66040048Y-95751889D01*
X66047462Y-95767728D01*
X66079814Y-95838290D01*
X66114328Y-95918353D01*
X66142365Y-95987629D01*
X66162568Y-96039045D01*
X66178615Y-96078119D01*
X66187888Y-96098541D01*
X66189041Y-96100114D01*
X66206096Y-96102721D01*
X66246298Y-96109863D01*
X66304302Y-96120523D01*
X66374763Y-96133685D01*
X66452335Y-96148333D01*
X66531672Y-96163449D01*
X66607431Y-96178018D01*
X66674264Y-96191022D01*
X66726828Y-96201445D01*
X66759776Y-96208270D01*
X66767857Y-96210199D01*
X66776205Y-96214962D01*
X66782506Y-96225718D01*
X66787045Y-96246098D01*
X66790104Y-96279734D01*
X66791967Y-96330255D01*
X66792918Y-96401292D01*
X66793240Y-96496476D01*
X66793257Y-96535492D01*
X66793257Y-96852799D01*
X66717057Y-96867839D01*
X66674663Y-96875995D01*
X66611400Y-96887899D01*
X66534962Y-96902116D01*
X66453043Y-96917210D01*
X66430400Y-96921355D01*
X66354806Y-96936053D01*
X66288953Y-96950505D01*
X66238366Y-96963375D01*
X66208574Y-96973322D01*
X66203612Y-96976287D01*
X66191426Y-96997283D01*
X66173953Y-97037967D01*
X66154577Y-97090322D01*
X66150734Y-97101600D01*
X66125339Y-97171523D01*
X66093817Y-97250418D01*
X66062969Y-97321266D01*
X66062817Y-97321595D01*
X66011447Y-97432733D01*
X66180399Y-97681253D01*
X66349352Y-97929772D01*
X66132429Y-98147058D01*
X66066819Y-98211726D01*
X66006979Y-98268733D01*
X65956267Y-98315033D01*
X65918046Y-98347584D01*
X65895675Y-98363343D01*
X65892466Y-98364343D01*
X65873626Y-98356469D01*
X65835180Y-98334578D01*
X65781330Y-98301267D01*
X65716276Y-98259131D01*
X65645940Y-98211943D01*
X65574555Y-98163810D01*
X65510908Y-98121928D01*
X65459041Y-98088871D01*
X65422995Y-98067218D01*
X65406867Y-98059543D01*
X65387189Y-98066037D01*
X65349875Y-98083150D01*
X65302621Y-98107326D01*
X65297612Y-98110013D01*
X65233977Y-98141927D01*
X65190341Y-98157579D01*
X65163202Y-98157745D01*
X65149057Y-98143204D01*
X65148975Y-98143000D01*
X65141905Y-98125779D01*
X65125042Y-98084899D01*
X65099695Y-98023525D01*
X65067171Y-97944819D01*
X65028778Y-97851947D01*
X64985822Y-97748072D01*
X64944222Y-97647502D01*
X64898504Y-97536516D01*
X64856526Y-97433703D01*
X64819548Y-97342215D01*
X64788827Y-97265201D01*
X64765622Y-97205815D01*
X64751190Y-97167209D01*
X64746743Y-97152800D01*
X64757896Y-97136272D01*
X64787069Y-97109930D01*
X64825971Y-97080887D01*
X64936757Y-96989039D01*
X65023351Y-96883759D01*
X65084716Y-96767266D01*
X65119815Y-96641776D01*
X65127608Y-96509507D01*
X65121943Y-96448457D01*
X65091078Y-96321795D01*
X65037920Y-96209941D01*
X64965767Y-96114001D01*
X64877917Y-96035076D01*
X64777665Y-95974270D01*
X64668310Y-95932687D01*
X64553147Y-95911428D01*
X64435475Y-95911599D01*
X64318590Y-95934301D01*
X64205789Y-95980638D01*
X64100369Y-96051713D01*
X64056368Y-96091911D01*
X63971979Y-96195129D01*
X63913222Y-96307925D01*
X63879704Y-96427010D01*
X63871035Y-96549095D01*
X63886823Y-96670893D01*
X63926678Y-96789116D01*
X63990207Y-96900475D01*
X64077021Y-97001684D01*
X64174029Y-97080887D01*
X64214437Y-97111162D01*
X64242982Y-97137219D01*
X64253257Y-97152825D01*
X64247877Y-97169843D01*
X64232575Y-97210500D01*
X64208612Y-97271642D01*
X64177244Y-97350119D01*
X64139732Y-97442780D01*
X64097333Y-97546472D01*
X64055663Y-97647526D01*
X64009690Y-97758607D01*
X63967107Y-97861541D01*
X63929221Y-97953165D01*
X63897340Y-98030316D01*
X63872771Y-98089831D01*
X63856820Y-98128544D01*
X63850910Y-98143000D01*
X63836948Y-98157685D01*
X63809940Y-98157642D01*
X63766413Y-98142099D01*
X63702890Y-98110284D01*
X63702388Y-98110013D01*
X63654560Y-98085323D01*
X63615897Y-98067338D01*
X63594095Y-98059614D01*
X63593133Y-98059543D01*
X63576721Y-98067378D01*
X63540487Y-98089165D01*
X63488474Y-98122328D01*
X63424725Y-98164291D01*
X63354060Y-98211943D01*
X63282116Y-98260191D01*
X63217274Y-98302151D01*
X63163735Y-98335227D01*
X63125697Y-98356821D01*
X63107533Y-98364343D01*
X63090808Y-98354457D01*
X63057180Y-98326826D01*
X63010010Y-98284495D01*
X62952658Y-98230505D01*
X62888484Y-98167899D01*
X62867497Y-98146983D01*
X62650499Y-97929623D01*
X62815668Y-97687220D01*
X62865864Y-97612781D01*
X62909919Y-97545972D01*
X62945362Y-97490665D01*
X62969719Y-97450729D01*
X62980522Y-97430036D01*
X62980838Y-97428563D01*
X62975143Y-97409058D01*
X62959826Y-97369822D01*
X62937537Y-97317430D01*
X62921893Y-97282355D01*
X62892641Y-97215201D01*
X62865094Y-97147358D01*
X62843737Y-97090034D01*
X62837935Y-97072572D01*
X62821452Y-97025938D01*
X62805340Y-96989905D01*
X62796490Y-96976287D01*
X62776960Y-96967952D01*
X62734334Y-96956137D01*
X62674145Y-96942181D01*
X62601922Y-96927422D01*
X62569600Y-96921355D01*
X62487522Y-96906273D01*
X62408795Y-96891669D01*
X62341109Y-96878980D01*
X62292160Y-96869642D01*
X62282943Y-96867839D01*
X62206743Y-96852799D01*
X62206743Y-96535492D01*
X62206914Y-96431154D01*
X62207616Y-96352213D01*
X62209134Y-96295038D01*
X62211749Y-96255999D01*
X62215746Y-96231465D01*
X62221409Y-96217805D01*
X62229020Y-96211389D01*
X62232143Y-96210199D01*
X62250978Y-96205980D01*
X62292588Y-96197562D01*
X62351630Y-96185961D01*
X62422757Y-96172195D01*
X62500625Y-96157280D01*
X62579887Y-96142232D01*
X62655198Y-96128069D01*
X62721213Y-96115806D01*
X62772587Y-96106461D01*
X62803975Y-96101050D01*
X62810959Y-96100114D01*
X62817285Y-96087596D01*
X62831290Y-96054246D01*
X62850355Y-96006377D01*
X62857634Y-95987629D01*
X62886996Y-95915195D01*
X62921571Y-95835170D01*
X62952537Y-95767728D01*
X62975323Y-95716159D01*
X62990482Y-95673785D01*
X62995542Y-95647834D01*
X62994736Y-95644356D01*
X62984041Y-95627936D01*
X62959620Y-95591417D01*
X62924095Y-95538687D01*
X62880087Y-95473635D01*
X62830217Y-95400151D01*
X62820356Y-95385645D01*
X62762492Y-95299704D01*
X62719956Y-95234261D01*
X62691054Y-95186304D01*
X62674090Y-95152820D01*
X62667367Y-95130795D01*
X62669190Y-95117217D01*
X62669236Y-95117131D01*
X62683586Y-95099297D01*
X62715323Y-95064817D01*
X62761010Y-95017268D01*
X62817204Y-94960222D01*
X62880468Y-94897255D01*
X62887602Y-94890227D01*
X62967330Y-94813020D01*
X63028857Y-94756330D01*
X63073421Y-94719110D01*
X63102257Y-94700315D01*
X63114958Y-94697889D01*
X63133494Y-94708471D01*
X63171961Y-94732916D01*
X63226386Y-94768612D01*
X63292798Y-94812947D01*
X63367225Y-94863311D01*
X63384601Y-94875160D01*
X63631297Y-95043626D01*
X63742706Y-94993062D01*
X63810457Y-94963595D01*
X63883183Y-94933959D01*
X63945703Y-94910330D01*
X63948457Y-94909358D01*
X63997360Y-94891457D01*
X64035057Y-94876320D01*
X64053425Y-94867210D01*
X64053456Y-94867184D01*
X64059285Y-94850717D01*
X64069192Y-94810219D01*
X64082195Y-94750242D01*
X64097309Y-94675340D01*
X64113552Y-94590064D01*
X64114881Y-94582875D01*
X64131175Y-94495014D01*
X64146133Y-94415260D01*
X64158791Y-94348681D01*
X64168186Y-94300347D01*
X64173354Y-94275325D01*
X64173444Y-94274943D01*
X64176589Y-94264299D01*
X64182704Y-94256262D01*
X64195453Y-94250467D01*
X64218500Y-94246547D01*
X64255509Y-94244135D01*
X64310144Y-94242865D01*
X64386067Y-94242371D01*
X64486944Y-94242286D01*
X64500000Y-94242286D01*
X64603910Y-94242348D01*
X64603910Y-94242348D01*
G37*
X64603910Y-94242348D02*
X64682454Y-94242778D01*
X64739298Y-94243942D01*
X64778105Y-94246207D01*
X64802538Y-94249940D01*
X64816262Y-94255506D01*
X64822940Y-94263273D01*
X64826236Y-94273605D01*
X64826556Y-94274943D01*
X64831562Y-94299079D01*
X64840829Y-94346701D01*
X64853392Y-94412741D01*
X64868287Y-94492128D01*
X64884551Y-94579796D01*
X64885119Y-94582875D01*
X64901410Y-94668789D01*
X64916652Y-94744696D01*
X64929861Y-94806045D01*
X64940054Y-94848282D01*
X64946248Y-94866855D01*
X64946543Y-94867184D01*
X64964788Y-94876253D01*
X65002405Y-94891367D01*
X65051271Y-94909262D01*
X65051543Y-94909358D01*
X65113093Y-94932493D01*
X65185657Y-94961965D01*
X65254057Y-94991597D01*
X65257294Y-94993062D01*
X65368702Y-95043626D01*
X65615399Y-94875160D01*
X65691077Y-94823803D01*
X65759631Y-94777889D01*
X65817088Y-94740030D01*
X65859476Y-94712837D01*
X65882825Y-94698921D01*
X65885042Y-94697889D01*
X65902010Y-94702484D01*
X65933701Y-94724655D01*
X65981352Y-94765447D01*
X66046198Y-94825905D01*
X66112397Y-94890227D01*
X66176214Y-94953612D01*
X66233329Y-95011451D01*
X66280305Y-95060175D01*
X66313703Y-95096210D01*
X66330085Y-95115984D01*
X66330694Y-95117002D01*
X66332505Y-95130572D01*
X66325683Y-95152733D01*
X66308540Y-95186478D01*
X66279393Y-95234800D01*
X66236555Y-95300692D01*
X66179448Y-95385517D01*
X66128766Y-95460177D01*
X66083461Y-95527140D01*
X66046150Y-95582516D01*
X66019452Y-95622420D01*
X66005985Y-95642962D01*
X66005137Y-95644356D01*
X66006781Y-95664038D01*
X66019245Y-95702293D01*
X66040048Y-95751889D01*
X66047462Y-95767728D01*
X66079814Y-95838290D01*
X66114328Y-95918353D01*
X66142365Y-95987629D01*
X66162568Y-96039045D01*
X66178615Y-96078119D01*
X66187888Y-96098541D01*
X66189041Y-96100114D01*
X66206096Y-96102721D01*
X66246298Y-96109863D01*
X66304302Y-96120523D01*
X66374763Y-96133685D01*
X66452335Y-96148333D01*
X66531672Y-96163449D01*
X66607431Y-96178018D01*
X66674264Y-96191022D01*
X66726828Y-96201445D01*
X66759776Y-96208270D01*
X66767857Y-96210199D01*
X66776205Y-96214962D01*
X66782506Y-96225718D01*
X66787045Y-96246098D01*
X66790104Y-96279734D01*
X66791967Y-96330255D01*
X66792918Y-96401292D01*
X66793240Y-96496476D01*
X66793257Y-96535492D01*
X66793257Y-96852799D01*
X66717057Y-96867839D01*
X66674663Y-96875995D01*
X66611400Y-96887899D01*
X66534962Y-96902116D01*
X66453043Y-96917210D01*
X66430400Y-96921355D01*
X66354806Y-96936053D01*
X66288953Y-96950505D01*
X66238366Y-96963375D01*
X66208574Y-96973322D01*
X66203612Y-96976287D01*
X66191426Y-96997283D01*
X66173953Y-97037967D01*
X66154577Y-97090322D01*
X66150734Y-97101600D01*
X66125339Y-97171523D01*
X66093817Y-97250418D01*
X66062969Y-97321266D01*
X66062817Y-97321595D01*
X66011447Y-97432733D01*
X66180399Y-97681253D01*
X66349352Y-97929772D01*
X66132429Y-98147058D01*
X66066819Y-98211726D01*
X66006979Y-98268733D01*
X65956267Y-98315033D01*
X65918046Y-98347584D01*
X65895675Y-98363343D01*
X65892466Y-98364343D01*
X65873626Y-98356469D01*
X65835180Y-98334578D01*
X65781330Y-98301267D01*
X65716276Y-98259131D01*
X65645940Y-98211943D01*
X65574555Y-98163810D01*
X65510908Y-98121928D01*
X65459041Y-98088871D01*
X65422995Y-98067218D01*
X65406867Y-98059543D01*
X65387189Y-98066037D01*
X65349875Y-98083150D01*
X65302621Y-98107326D01*
X65297612Y-98110013D01*
X65233977Y-98141927D01*
X65190341Y-98157579D01*
X65163202Y-98157745D01*
X65149057Y-98143204D01*
X65148975Y-98143000D01*
X65141905Y-98125779D01*
X65125042Y-98084899D01*
X65099695Y-98023525D01*
X65067171Y-97944819D01*
X65028778Y-97851947D01*
X64985822Y-97748072D01*
X64944222Y-97647502D01*
X64898504Y-97536516D01*
X64856526Y-97433703D01*
X64819548Y-97342215D01*
X64788827Y-97265201D01*
X64765622Y-97205815D01*
X64751190Y-97167209D01*
X64746743Y-97152800D01*
X64757896Y-97136272D01*
X64787069Y-97109930D01*
X64825971Y-97080887D01*
X64936757Y-96989039D01*
X65023351Y-96883759D01*
X65084716Y-96767266D01*
X65119815Y-96641776D01*
X65127608Y-96509507D01*
X65121943Y-96448457D01*
X65091078Y-96321795D01*
X65037920Y-96209941D01*
X64965767Y-96114001D01*
X64877917Y-96035076D01*
X64777665Y-95974270D01*
X64668310Y-95932687D01*
X64553147Y-95911428D01*
X64435475Y-95911599D01*
X64318590Y-95934301D01*
X64205789Y-95980638D01*
X64100369Y-96051713D01*
X64056368Y-96091911D01*
X63971979Y-96195129D01*
X63913222Y-96307925D01*
X63879704Y-96427010D01*
X63871035Y-96549095D01*
X63886823Y-96670893D01*
X63926678Y-96789116D01*
X63990207Y-96900475D01*
X64077021Y-97001684D01*
X64174029Y-97080887D01*
X64214437Y-97111162D01*
X64242982Y-97137219D01*
X64253257Y-97152825D01*
X64247877Y-97169843D01*
X64232575Y-97210500D01*
X64208612Y-97271642D01*
X64177244Y-97350119D01*
X64139732Y-97442780D01*
X64097333Y-97546472D01*
X64055663Y-97647526D01*
X64009690Y-97758607D01*
X63967107Y-97861541D01*
X63929221Y-97953165D01*
X63897340Y-98030316D01*
X63872771Y-98089831D01*
X63856820Y-98128544D01*
X63850910Y-98143000D01*
X63836948Y-98157685D01*
X63809940Y-98157642D01*
X63766413Y-98142099D01*
X63702890Y-98110284D01*
X63702388Y-98110013D01*
X63654560Y-98085323D01*
X63615897Y-98067338D01*
X63594095Y-98059614D01*
X63593133Y-98059543D01*
X63576721Y-98067378D01*
X63540487Y-98089165D01*
X63488474Y-98122328D01*
X63424725Y-98164291D01*
X63354060Y-98211943D01*
X63282116Y-98260191D01*
X63217274Y-98302151D01*
X63163735Y-98335227D01*
X63125697Y-98356821D01*
X63107533Y-98364343D01*
X63090808Y-98354457D01*
X63057180Y-98326826D01*
X63010010Y-98284495D01*
X62952658Y-98230505D01*
X62888484Y-98167899D01*
X62867497Y-98146983D01*
X62650499Y-97929623D01*
X62815668Y-97687220D01*
X62865864Y-97612781D01*
X62909919Y-97545972D01*
X62945362Y-97490665D01*
X62969719Y-97450729D01*
X62980522Y-97430036D01*
X62980838Y-97428563D01*
X62975143Y-97409058D01*
X62959826Y-97369822D01*
X62937537Y-97317430D01*
X62921893Y-97282355D01*
X62892641Y-97215201D01*
X62865094Y-97147358D01*
X62843737Y-97090034D01*
X62837935Y-97072572D01*
X62821452Y-97025938D01*
X62805340Y-96989905D01*
X62796490Y-96976287D01*
X62776960Y-96967952D01*
X62734334Y-96956137D01*
X62674145Y-96942181D01*
X62601922Y-96927422D01*
X62569600Y-96921355D01*
X62487522Y-96906273D01*
X62408795Y-96891669D01*
X62341109Y-96878980D01*
X62292160Y-96869642D01*
X62282943Y-96867839D01*
X62206743Y-96852799D01*
X62206743Y-96535492D01*
X62206914Y-96431154D01*
X62207616Y-96352213D01*
X62209134Y-96295038D01*
X62211749Y-96255999D01*
X62215746Y-96231465D01*
X62221409Y-96217805D01*
X62229020Y-96211389D01*
X62232143Y-96210199D01*
X62250978Y-96205980D01*
X62292588Y-96197562D01*
X62351630Y-96185961D01*
X62422757Y-96172195D01*
X62500625Y-96157280D01*
X62579887Y-96142232D01*
X62655198Y-96128069D01*
X62721213Y-96115806D01*
X62772587Y-96106461D01*
X62803975Y-96101050D01*
X62810959Y-96100114D01*
X62817285Y-96087596D01*
X62831290Y-96054246D01*
X62850355Y-96006377D01*
X62857634Y-95987629D01*
X62886996Y-95915195D01*
X62921571Y-95835170D01*
X62952537Y-95767728D01*
X62975323Y-95716159D01*
X62990482Y-95673785D01*
X62995542Y-95647834D01*
X62994736Y-95644356D01*
X62984041Y-95627936D01*
X62959620Y-95591417D01*
X62924095Y-95538687D01*
X62880087Y-95473635D01*
X62830217Y-95400151D01*
X62820356Y-95385645D01*
X62762492Y-95299704D01*
X62719956Y-95234261D01*
X62691054Y-95186304D01*
X62674090Y-95152820D01*
X62667367Y-95130795D01*
X62669190Y-95117217D01*
X62669236Y-95117131D01*
X62683586Y-95099297D01*
X62715323Y-95064817D01*
X62761010Y-95017268D01*
X62817204Y-94960222D01*
X62880468Y-94897255D01*
X62887602Y-94890227D01*
X62967330Y-94813020D01*
X63028857Y-94756330D01*
X63073421Y-94719110D01*
X63102257Y-94700315D01*
X63114958Y-94697889D01*
X63133494Y-94708471D01*
X63171961Y-94732916D01*
X63226386Y-94768612D01*
X63292798Y-94812947D01*
X63367225Y-94863311D01*
X63384601Y-94875160D01*
X63631297Y-95043626D01*
X63742706Y-94993062D01*
X63810457Y-94963595D01*
X63883183Y-94933959D01*
X63945703Y-94910330D01*
X63948457Y-94909358D01*
X63997360Y-94891457D01*
X64035057Y-94876320D01*
X64053425Y-94867210D01*
X64053456Y-94867184D01*
X64059285Y-94850717D01*
X64069192Y-94810219D01*
X64082195Y-94750242D01*
X64097309Y-94675340D01*
X64113552Y-94590064D01*
X64114881Y-94582875D01*
X64131175Y-94495014D01*
X64146133Y-94415260D01*
X64158791Y-94348681D01*
X64168186Y-94300347D01*
X64173354Y-94275325D01*
X64173444Y-94274943D01*
X64176589Y-94264299D01*
X64182704Y-94256262D01*
X64195453Y-94250467D01*
X64218500Y-94246547D01*
X64255509Y-94244135D01*
X64310144Y-94242865D01*
X64386067Y-94242371D01*
X64486944Y-94242286D01*
X64500000Y-94242286D01*
X64603910Y-94242348D01*
D14*
X53166667Y-57952381D02*
X53166667Y-58666667D01*
X53119047Y-58809524D01*
X53023809Y-58904762D01*
X52880952Y-58952381D01*
X52785714Y-58952381D01*
X54166667Y-58952381D02*
X53595238Y-58952381D01*
X53880952Y-58952381D02*
X53880952Y-57952381D01*
X53785714Y-58095238D01*
X53690476Y-58190476D01*
X53595238Y-58238095D01*
D13*
X53653572Y-63253571D02*
X52796429Y-63253571D01*
X53225001Y-63253571D02*
X53225001Y-61753571D01*
X53082144Y-61967857D01*
X52939286Y-62110714D01*
X52796429Y-62182143D01*
D14*
X53166667Y-77952381D02*
X53166667Y-78666667D01*
X53119047Y-78809524D01*
X53023809Y-78904762D01*
X52880952Y-78952381D01*
X52785714Y-78952381D01*
X53595238Y-78047619D02*
X53642857Y-78000000D01*
X53738095Y-77952381D01*
X53976191Y-77952381D01*
X54071429Y-78000000D01*
X54119048Y-78047619D01*
X54166667Y-78142857D01*
X54166667Y-78238095D01*
X54119048Y-78380952D01*
X53547619Y-78952381D01*
X54166667Y-78952381D01*
D13*
X53653572Y-83253571D02*
X52796429Y-83253571D01*
X53225001Y-83253571D02*
X53225001Y-81753571D01*
X53082144Y-81967857D01*
X52939286Y-82110714D01*
X52796429Y-82182143D01*
D14*
X97166667Y-69282381D02*
X97166667Y-69996667D01*
X97119047Y-70139524D01*
X97023809Y-70234762D01*
X96880952Y-70282381D01*
X96785714Y-70282381D01*
X97547619Y-69282381D02*
X98166667Y-69282381D01*
X97833333Y-69663333D01*
X97976191Y-69663333D01*
X98071429Y-69710952D01*
X98119048Y-69758571D01*
X98166667Y-69853810D01*
X98166667Y-70091905D01*
X98119048Y-70187143D01*
X98071429Y-70234762D01*
X97976191Y-70282381D01*
X97690476Y-70282381D01*
X97595238Y-70234762D01*
X97547619Y-70187143D01*
X97166667Y-76782381D02*
X97166667Y-77496667D01*
X97119047Y-77639524D01*
X97023809Y-77734762D01*
X96880952Y-77782381D01*
X96785714Y-77782381D01*
X98071429Y-77115714D02*
X98071429Y-77782381D01*
X97833333Y-76734762D02*
X97595238Y-77449048D01*
X98214286Y-77449048D01*
X97166667Y-84282381D02*
X97166667Y-84996667D01*
X97119047Y-85139524D01*
X97023809Y-85234762D01*
X96880952Y-85282381D01*
X96785714Y-85282381D01*
X98119048Y-84282381D02*
X97642857Y-84282381D01*
X97595238Y-84758571D01*
X97642857Y-84710952D01*
X97738095Y-84663333D01*
X97976191Y-84663333D01*
X98071429Y-84710952D01*
X98119048Y-84758571D01*
X98166667Y-84853810D01*
X98166667Y-85091905D01*
X98119048Y-85187143D01*
X98071429Y-85234762D01*
X97976191Y-85282381D01*
X97738095Y-85282381D01*
X97642857Y-85234762D01*
X97595238Y-85187143D01*
X97166667Y-91782381D02*
X97166667Y-92496667D01*
X97119047Y-92639524D01*
X97023809Y-92734762D01*
X96880952Y-92782381D01*
X96785714Y-92782381D01*
X98071429Y-91782381D02*
X97880952Y-91782381D01*
X97785714Y-91830000D01*
X97738095Y-91877619D01*
X97642857Y-92020476D01*
X97595238Y-92210952D01*
X97595238Y-92591905D01*
X97642857Y-92687143D01*
X97690476Y-92734762D01*
X97785714Y-92782381D01*
X97976191Y-92782381D01*
X98071429Y-92734762D01*
X98119048Y-92687143D01*
X98166667Y-92591905D01*
X98166667Y-92353810D01*
X98119048Y-92258571D01*
X98071429Y-92210952D01*
X97976191Y-92163333D01*
X97785714Y-92163333D01*
X97690476Y-92210952D01*
X97642857Y-92258571D01*
X97595238Y-92353810D01*
X86502381Y-66916666D02*
X86026190Y-67250000D01*
X86502381Y-67488095D02*
X85502381Y-67488095D01*
X85502381Y-67107142D01*
X85550000Y-67011904D01*
X85597619Y-66964285D01*
X85692857Y-66916666D01*
X85835714Y-66916666D01*
X85930952Y-66964285D01*
X85978571Y-67011904D01*
X86026190Y-67107142D01*
X86026190Y-67488095D01*
X86502381Y-65964285D02*
X86502381Y-66535714D01*
X86502381Y-66250000D02*
X85502381Y-66250000D01*
X85645238Y-66345238D01*
X85740476Y-66440476D01*
X85788095Y-66535714D01*
X86502381Y-74416666D02*
X86026190Y-74750000D01*
X86502381Y-74988095D02*
X85502381Y-74988095D01*
X85502381Y-74607142D01*
X85550000Y-74511904D01*
X85597619Y-74464285D01*
X85692857Y-74416666D01*
X85835714Y-74416666D01*
X85930952Y-74464285D01*
X85978571Y-74511904D01*
X86026190Y-74607142D01*
X86026190Y-74988095D01*
X85597619Y-74035714D02*
X85550000Y-73988095D01*
X85502381Y-73892857D01*
X85502381Y-73654761D01*
X85550000Y-73559523D01*
X85597619Y-73511904D01*
X85692857Y-73464285D01*
X85788095Y-73464285D01*
X85930952Y-73511904D01*
X86502381Y-74083333D01*
X86502381Y-73464285D01*
X86502381Y-81916666D02*
X86026190Y-82250000D01*
X86502381Y-82488095D02*
X85502381Y-82488095D01*
X85502381Y-82107142D01*
X85550000Y-82011904D01*
X85597619Y-81964285D01*
X85692857Y-81916666D01*
X85835714Y-81916666D01*
X85930952Y-81964285D01*
X85978571Y-82011904D01*
X86026190Y-82107142D01*
X86026190Y-82488095D01*
X85502381Y-81583333D02*
X85502381Y-80964285D01*
X85883333Y-81297619D01*
X85883333Y-81154761D01*
X85930952Y-81059523D01*
X85978571Y-81011904D01*
X86073810Y-80964285D01*
X86311905Y-80964285D01*
X86407143Y-81011904D01*
X86454762Y-81059523D01*
X86502381Y-81154761D01*
X86502381Y-81440476D01*
X86454762Y-81535714D01*
X86407143Y-81583333D01*
X86502381Y-89416666D02*
X86026190Y-89750000D01*
X86502381Y-89988095D02*
X85502381Y-89988095D01*
X85502381Y-89607142D01*
X85550000Y-89511904D01*
X85597619Y-89464285D01*
X85692857Y-89416666D01*
X85835714Y-89416666D01*
X85930952Y-89464285D01*
X85978571Y-89511904D01*
X86026190Y-89607142D01*
X86026190Y-89988095D01*
X85835714Y-88559523D02*
X86502381Y-88559523D01*
X85454762Y-88797619D02*
X86169048Y-89035714D01*
X86169048Y-88416666D01*
X74666667Y-91052381D02*
X74666667Y-91766667D01*
X74619047Y-91909524D01*
X74523809Y-92004762D01*
X74380952Y-92052381D01*
X74285714Y-92052381D01*
X75047619Y-91052381D02*
X75714286Y-91052381D01*
X75285714Y-92052381D01*
X73937143Y-54638571D02*
X73937143Y-55638571D01*
X73294286Y-54638571D02*
X73294286Y-55424286D01*
X73365714Y-55567143D01*
X73508572Y-55638571D01*
X73722857Y-55638571D01*
X73865714Y-55567143D01*
X73937143Y-55495714D01*
X74651429Y-55638571D02*
X74651429Y-54138571D01*
X75222857Y-54138571D01*
X75365715Y-54210000D01*
X75437143Y-54281429D01*
X75508572Y-54424286D01*
X75508572Y-54638571D01*
X75437143Y-54781429D01*
X75365715Y-54852857D01*
X75222857Y-54924286D01*
X74651429Y-54924286D01*
X76937143Y-55638571D02*
X76080000Y-55638571D01*
X76508572Y-55638571D02*
X76508572Y-54138571D01*
X76365715Y-54352857D01*
X76222857Y-54495714D01*
X76080000Y-54567143D01*
X67794285Y-52670000D02*
X68508571Y-52670000D01*
X67651428Y-53098571D02*
X68151428Y-51598571D01*
X68651428Y-53098571D01*
X70008571Y-53098571D02*
X69508571Y-52384286D01*
X69151428Y-53098571D02*
X69151428Y-51598571D01*
X69722856Y-51598571D01*
X69865714Y-51670000D01*
X69937142Y-51741429D01*
X70008571Y-51884286D01*
X70008571Y-52098571D01*
X69937142Y-52241429D01*
X69865714Y-52312857D01*
X69722856Y-52384286D01*
X69151428Y-52384286D01*
X70651428Y-53098571D02*
X70651428Y-51598571D01*
X71008571Y-51598571D01*
X71222856Y-51670000D01*
X71365714Y-51812857D01*
X71437142Y-51955714D01*
X71508571Y-52241429D01*
X71508571Y-52455714D01*
X71437142Y-52741429D01*
X71365714Y-52884286D01*
X71222856Y-53027143D01*
X71008571Y-53098571D01*
X70651428Y-53098571D01*
X72151428Y-51598571D02*
X72151428Y-52812857D01*
X72222856Y-52955714D01*
X72294285Y-53027143D01*
X72437142Y-53098571D01*
X72722856Y-53098571D01*
X72865714Y-53027143D01*
X72937142Y-52955714D01*
X73008571Y-52812857D01*
X73008571Y-51598571D01*
X73722857Y-53098571D02*
X73722857Y-51598571D01*
X74294285Y-51598571D01*
X74437143Y-51670000D01*
X74508571Y-51741429D01*
X74580000Y-51884286D01*
X74580000Y-52098571D01*
X74508571Y-52241429D01*
X74437143Y-52312857D01*
X74294285Y-52384286D01*
X73722857Y-52384286D01*
X76080000Y-53098571D02*
X75580000Y-52384286D01*
X75222857Y-53098571D02*
X75222857Y-51598571D01*
X75794285Y-51598571D01*
X75937143Y-51670000D01*
X76008571Y-51741429D01*
X76080000Y-51884286D01*
X76080000Y-52098571D01*
X76008571Y-52241429D01*
X75937143Y-52312857D01*
X75794285Y-52384286D01*
X75222857Y-52384286D01*
X77008571Y-51598571D02*
X77294285Y-51598571D01*
X77437143Y-51670000D01*
X77580000Y-51812857D01*
X77651428Y-52098571D01*
X77651428Y-52598571D01*
X77580000Y-52884286D01*
X77437143Y-53027143D01*
X77294285Y-53098571D01*
X77008571Y-53098571D01*
X76865714Y-53027143D01*
X76722857Y-52884286D01*
X76651428Y-52598571D01*
X76651428Y-52098571D01*
X76722857Y-51812857D01*
X76865714Y-51670000D01*
X77008571Y-51598571D01*
X78294286Y-53098571D02*
X78294286Y-51598571D01*
X78794286Y-52670000D01*
X79294286Y-51598571D01*
X79294286Y-53098571D01*
X80008572Y-53098571D02*
X80008572Y-51598571D01*
X80722858Y-53098571D02*
X80722858Y-51598571D01*
X81580001Y-53098571D01*
X81580001Y-51598571D01*
X82294287Y-53098571D02*
X82294287Y-51598571D01*
M02*
