G04 #@! TF.FileFunction,Copper,L1,Top,Signal*
%FSLAX46Y46*%
G04 Gerber Fmt 4.6, Leading zero omitted, Abs format (unit mm)*
G04 Created by KiCad (PCBNEW 4.0.7) date 12/17/17 19:14:41*
%MOMM*%
%LPD*%
G01*
G04 APERTURE LIST*
%ADD10C,0.100000*%
%ADD11C,1.524000*%
%ADD12R,1.700000X1.700000*%
%ADD13O,1.700000X1.700000*%
%ADD14R,0.900000X0.500000*%
%ADD15R,0.500000X2.300000*%
%ADD16O,1.800000X2.900000*%
%ADD17C,1.500000*%
%ADD18C,0.600000*%
%ADD19C,0.500000*%
%ADD20C,0.254000*%
G04 APERTURE END LIST*
D10*
D11*
X55000000Y-62500000D03*
X55000000Y-64500000D03*
X55000000Y-66500000D03*
X55000000Y-68500000D03*
X55000000Y-82500000D03*
X55000000Y-84500000D03*
X55000000Y-86500000D03*
X55000000Y-88500000D03*
D12*
X97500000Y-67500000D03*
D13*
X97500000Y-64960000D03*
D12*
X97500000Y-75000000D03*
D13*
X97500000Y-72460000D03*
D12*
X97500000Y-82500000D03*
D13*
X97500000Y-79960000D03*
D12*
X97500000Y-90000000D03*
D13*
X97500000Y-87460000D03*
D14*
X87500000Y-67500000D03*
X87500000Y-66000000D03*
X87500000Y-75000000D03*
X87500000Y-73500000D03*
X87500000Y-82500000D03*
X87500000Y-81000000D03*
X87500000Y-90000000D03*
X87500000Y-88500000D03*
D15*
X73400000Y-95000000D03*
X74200000Y-95000000D03*
X75000000Y-95000000D03*
X75800000Y-95000000D03*
X76600000Y-95000000D03*
D16*
X71300000Y-95000000D03*
X78700000Y-95000000D03*
X78700000Y-99750000D03*
X71300000Y-99750000D03*
D11*
X67460000Y-57500000D03*
X70000000Y-57500000D03*
X72540000Y-57500000D03*
X75080000Y-57500000D03*
X77620000Y-57500000D03*
X80160000Y-57500000D03*
X66190000Y-60040000D03*
X66190000Y-62580000D03*
X66190000Y-65120000D03*
X66190000Y-67660000D03*
X66190000Y-70200000D03*
X66190000Y-72740000D03*
X66190000Y-75280000D03*
X66190000Y-77820000D03*
X66190000Y-80360000D03*
X66190000Y-82900000D03*
X66190000Y-85440000D03*
X66190000Y-87980000D03*
X81430000Y-60040000D03*
X81430000Y-62580000D03*
X81430000Y-65120000D03*
X81430000Y-67660000D03*
X81430000Y-70200000D03*
X81430000Y-72740000D03*
X81430000Y-75280000D03*
X81430000Y-77820000D03*
X81430000Y-80360000D03*
X81430000Y-82900000D03*
X81430000Y-85440000D03*
X81430000Y-87980000D03*
D17*
X78509000Y-68803000D03*
X78509000Y-71343000D03*
X78509000Y-79217000D03*
X78509000Y-81757000D03*
D18*
X60000000Y-75000000D03*
X60000000Y-62500000D03*
X73500000Y-97500000D03*
X76500000Y-97500000D03*
X60000000Y-78000000D03*
X60000000Y-82500000D03*
X63000000Y-80500000D03*
X63000000Y-84500000D03*
X83000000Y-80500000D03*
X83000000Y-71500000D03*
X85000000Y-71500000D03*
X85000000Y-67500000D03*
X84000000Y-83000000D03*
X84000000Y-75000000D03*
X85000000Y-85500000D03*
X85000000Y-82500000D03*
X84500000Y-88000000D03*
X84500000Y-90000000D03*
D19*
X60000000Y-75000000D02*
X65910000Y-75000000D01*
X65910000Y-75000000D02*
X66190000Y-75280000D01*
X55000000Y-62500000D02*
X60000000Y-62500000D01*
X73400000Y-95000000D02*
X73400000Y-97400000D01*
X73400000Y-97400000D02*
X73500000Y-97500000D01*
X76600000Y-95000000D02*
X78700000Y-95000000D01*
X76600000Y-95000000D02*
X76600000Y-97400000D01*
X76600000Y-97400000D02*
X76500000Y-97500000D01*
X60000000Y-78000000D02*
X66010000Y-78000000D01*
X66010000Y-78000000D02*
X66190000Y-77820000D01*
X55000000Y-82500000D02*
X60000000Y-82500000D01*
X63000000Y-80500000D02*
X66050000Y-80500000D01*
X66050000Y-80500000D02*
X66190000Y-80360000D01*
X55000000Y-84500000D02*
X63000000Y-84500000D01*
X83000000Y-80500000D02*
X81570000Y-80500000D01*
X81570000Y-80500000D02*
X81430000Y-80360000D01*
X85000000Y-71500000D02*
X83000000Y-71500000D01*
X87500000Y-67500000D02*
X85000000Y-67500000D01*
X97500000Y-67500000D02*
X87500000Y-67500000D01*
X84000000Y-83000000D02*
X81530000Y-83000000D01*
X81530000Y-83000000D02*
X81430000Y-82900000D01*
X87500000Y-75000000D02*
X84000000Y-75000000D01*
X97500000Y-75000000D02*
X87500000Y-75000000D01*
X85000000Y-85500000D02*
X81490000Y-85500000D01*
X81490000Y-85500000D02*
X81430000Y-85440000D01*
X87500000Y-82500000D02*
X85000000Y-82500000D01*
X97500000Y-82500000D02*
X87500000Y-82500000D01*
X84500000Y-88000000D02*
X81450000Y-88000000D01*
X81450000Y-88000000D02*
X81430000Y-87980000D01*
X87500000Y-90000000D02*
X84500000Y-90000000D01*
X97500000Y-90000000D02*
X87500000Y-90000000D01*
D20*
G36*
X99290000Y-101290000D02*
X79876453Y-101290000D01*
X80118155Y-100928267D01*
X80235000Y-100340848D01*
X80235000Y-99159152D01*
X80118155Y-98571733D01*
X79785409Y-98073743D01*
X79589168Y-97942619D01*
X92764613Y-97942619D01*
X93104155Y-98764372D01*
X93732321Y-99393636D01*
X94553481Y-99734611D01*
X95442619Y-99735387D01*
X96264372Y-99395845D01*
X96893636Y-98767679D01*
X97234611Y-97946519D01*
X97235387Y-97057381D01*
X96895845Y-96235628D01*
X96267679Y-95606364D01*
X95446519Y-95265389D01*
X94557381Y-95264613D01*
X93735628Y-95604155D01*
X93106364Y-96232321D01*
X92765389Y-97053481D01*
X92764613Y-97942619D01*
X79589168Y-97942619D01*
X79287419Y-97740997D01*
X78700000Y-97624152D01*
X78112581Y-97740997D01*
X77614591Y-98073743D01*
X77281845Y-98571733D01*
X77165000Y-99159152D01*
X77165000Y-100340848D01*
X77281845Y-100928267D01*
X77523547Y-101290000D01*
X72476453Y-101290000D01*
X72718155Y-100928267D01*
X72835000Y-100340848D01*
X72835000Y-99159152D01*
X72718155Y-98571733D01*
X72385409Y-98073743D01*
X71887419Y-97740997D01*
X71300000Y-97624152D01*
X70712581Y-97740997D01*
X70214591Y-98073743D01*
X69881845Y-98571733D01*
X69765000Y-99159152D01*
X69765000Y-100340848D01*
X69881845Y-100928267D01*
X70123547Y-101290000D01*
X50710000Y-101290000D01*
X50710000Y-97942619D01*
X52764613Y-97942619D01*
X53104155Y-98764372D01*
X53732321Y-99393636D01*
X54553481Y-99734611D01*
X55442619Y-99735387D01*
X56264372Y-99395845D01*
X56893636Y-98767679D01*
X57234611Y-97946519D01*
X57235387Y-97057381D01*
X56895845Y-96235628D01*
X56267679Y-95606364D01*
X55446519Y-95265389D01*
X54557381Y-95264613D01*
X53735628Y-95604155D01*
X53106364Y-96232321D01*
X52765389Y-97053481D01*
X52764613Y-97942619D01*
X50710000Y-97942619D01*
X50710000Y-94409152D01*
X69765000Y-94409152D01*
X69765000Y-95590848D01*
X69881845Y-96178267D01*
X70214591Y-96676257D01*
X70712581Y-97009003D01*
X71300000Y-97125848D01*
X71887419Y-97009003D01*
X72385409Y-96676257D01*
X72567674Y-96403477D01*
X72611673Y-96509699D01*
X72790302Y-96688327D01*
X73023691Y-96785000D01*
X73116250Y-96785000D01*
X73275000Y-96626250D01*
X73275000Y-95127000D01*
X73253000Y-95127000D01*
X73253000Y-94873000D01*
X73275000Y-94873000D01*
X73275000Y-93850000D01*
X73302560Y-93850000D01*
X73302560Y-96150000D01*
X73346838Y-96385317D01*
X73485910Y-96601441D01*
X73530999Y-96632249D01*
X73683750Y-96785000D01*
X73776309Y-96785000D01*
X73813171Y-96769731D01*
X73950000Y-96797440D01*
X74450000Y-96797440D01*
X74605507Y-96768179D01*
X74750000Y-96797440D01*
X75250000Y-96797440D01*
X75405507Y-96768179D01*
X75550000Y-96797440D01*
X75715000Y-96797440D01*
X75715000Y-96962494D01*
X75707808Y-96969673D01*
X75565162Y-97313201D01*
X75564838Y-97685167D01*
X75706883Y-98028943D01*
X75969673Y-98292192D01*
X76313201Y-98434838D01*
X76685167Y-98435162D01*
X77028943Y-98293117D01*
X77292192Y-98030327D01*
X77406179Y-97755817D01*
X77417633Y-97738675D01*
X77421620Y-97718632D01*
X77434838Y-97686799D01*
X77434868Y-97652028D01*
X77485000Y-97400000D01*
X77485000Y-96482310D01*
X77614591Y-96676257D01*
X78112581Y-97009003D01*
X78700000Y-97125848D01*
X79287419Y-97009003D01*
X79785409Y-96676257D01*
X80118155Y-96178267D01*
X80235000Y-95590848D01*
X80235000Y-94409152D01*
X80118155Y-93821733D01*
X79785409Y-93323743D01*
X79287419Y-92990997D01*
X78700000Y-92874152D01*
X78112581Y-92990997D01*
X77614591Y-93323743D01*
X77436987Y-93589546D01*
X77314090Y-93398559D01*
X77101890Y-93253569D01*
X76850000Y-93202560D01*
X76350000Y-93202560D01*
X76194493Y-93231821D01*
X76050000Y-93202560D01*
X75550000Y-93202560D01*
X75394493Y-93231821D01*
X75250000Y-93202560D01*
X74750000Y-93202560D01*
X74594493Y-93231821D01*
X74450000Y-93202560D01*
X73950000Y-93202560D01*
X73809913Y-93228919D01*
X73776309Y-93215000D01*
X73683750Y-93215000D01*
X73538616Y-93360134D01*
X73498559Y-93385910D01*
X73353569Y-93598110D01*
X73302560Y-93850000D01*
X73275000Y-93850000D01*
X73275000Y-93373750D01*
X73116250Y-93215000D01*
X73023691Y-93215000D01*
X72790302Y-93311673D01*
X72611673Y-93490301D01*
X72567674Y-93596523D01*
X72385409Y-93323743D01*
X71887419Y-92990997D01*
X71300000Y-92874152D01*
X70712581Y-92990997D01*
X70214591Y-93323743D01*
X69881845Y-93821733D01*
X69765000Y-94409152D01*
X50710000Y-94409152D01*
X50710000Y-90185167D01*
X83564838Y-90185167D01*
X83706883Y-90528943D01*
X83969673Y-90792192D01*
X84313201Y-90934838D01*
X84685167Y-90935162D01*
X84806569Y-90885000D01*
X86988569Y-90885000D01*
X87050000Y-90897440D01*
X87950000Y-90897440D01*
X88016113Y-90885000D01*
X96009146Y-90885000D01*
X96046838Y-91085317D01*
X96185910Y-91301441D01*
X96398110Y-91446431D01*
X96650000Y-91497440D01*
X98350000Y-91497440D01*
X98585317Y-91453162D01*
X98801441Y-91314090D01*
X98946431Y-91101890D01*
X98997440Y-90850000D01*
X98997440Y-89150000D01*
X98953162Y-88914683D01*
X98814090Y-88698559D01*
X98601890Y-88553569D01*
X98534459Y-88539914D01*
X98579147Y-88510054D01*
X98901054Y-88028285D01*
X99014093Y-87460000D01*
X98901054Y-86891715D01*
X98579147Y-86409946D01*
X98097378Y-86088039D01*
X97529093Y-85975000D01*
X97470907Y-85975000D01*
X96902622Y-86088039D01*
X96420853Y-86409946D01*
X96098946Y-86891715D01*
X95985907Y-87460000D01*
X96098946Y-88028285D01*
X96420853Y-88510054D01*
X96462452Y-88537850D01*
X96414683Y-88546838D01*
X96198559Y-88685910D01*
X96053569Y-88898110D01*
X96009648Y-89115000D01*
X88483025Y-89115000D01*
X88488327Y-89109698D01*
X88585000Y-88876309D01*
X88585000Y-88783750D01*
X88426250Y-88625000D01*
X87627000Y-88625000D01*
X87627000Y-88647000D01*
X87373000Y-88647000D01*
X87373000Y-88625000D01*
X86573750Y-88625000D01*
X86415000Y-88783750D01*
X86415000Y-88876309D01*
X86511673Y-89109698D01*
X86516975Y-89115000D01*
X84806822Y-89115000D01*
X84686799Y-89065162D01*
X84314833Y-89064838D01*
X83971057Y-89206883D01*
X83707808Y-89469673D01*
X83565162Y-89813201D01*
X83564838Y-90185167D01*
X50710000Y-90185167D01*
X50710000Y-88776661D01*
X53602758Y-88776661D01*
X53814990Y-89290303D01*
X54207630Y-89683629D01*
X54720900Y-89896757D01*
X55276661Y-89897242D01*
X55790303Y-89685010D01*
X56183629Y-89292370D01*
X56396757Y-88779100D01*
X56397242Y-88223339D01*
X56185010Y-87709697D01*
X55792370Y-87316371D01*
X55526273Y-87205878D01*
X55000000Y-86679605D01*
X54473698Y-87205907D01*
X54209697Y-87314990D01*
X53816371Y-87707630D01*
X53603243Y-88220900D01*
X53602758Y-88776661D01*
X50710000Y-88776661D01*
X50710000Y-86292302D01*
X53590856Y-86292302D01*
X53618638Y-86847368D01*
X53777603Y-87231143D01*
X54019787Y-87300608D01*
X54820395Y-86500000D01*
X55179605Y-86500000D01*
X55980213Y-87300608D01*
X56222397Y-87231143D01*
X56409144Y-86707698D01*
X56381362Y-86152632D01*
X56222397Y-85768857D01*
X55980213Y-85699392D01*
X55179605Y-86500000D01*
X54820395Y-86500000D01*
X54019787Y-85699392D01*
X53777603Y-85768857D01*
X53590856Y-86292302D01*
X50710000Y-86292302D01*
X50710000Y-82776661D01*
X53602758Y-82776661D01*
X53814990Y-83290303D01*
X54024342Y-83500021D01*
X53816371Y-83707630D01*
X53603243Y-84220900D01*
X53602758Y-84776661D01*
X53814990Y-85290303D01*
X54207630Y-85683629D01*
X54473727Y-85794122D01*
X55000000Y-86320395D01*
X55526302Y-85794093D01*
X55790303Y-85685010D01*
X56090837Y-85385000D01*
X62693178Y-85385000D01*
X62813201Y-85434838D01*
X63185167Y-85435162D01*
X63528943Y-85293117D01*
X63792192Y-85030327D01*
X63934838Y-84686799D01*
X63935162Y-84314833D01*
X63793117Y-83971057D01*
X63530327Y-83707808D01*
X63186799Y-83565162D01*
X62814833Y-83564838D01*
X62693431Y-83615000D01*
X56090478Y-83615000D01*
X55975658Y-83499979D01*
X56090837Y-83385000D01*
X59693178Y-83385000D01*
X59813201Y-83434838D01*
X60185167Y-83435162D01*
X60528943Y-83293117D01*
X60792192Y-83030327D01*
X60934838Y-82686799D01*
X60935162Y-82314833D01*
X60793117Y-81971057D01*
X60530327Y-81707808D01*
X60186799Y-81565162D01*
X59814833Y-81564838D01*
X59693431Y-81615000D01*
X56090478Y-81615000D01*
X55792370Y-81316371D01*
X55279100Y-81103243D01*
X54723339Y-81102758D01*
X54209697Y-81314990D01*
X53816371Y-81707630D01*
X53603243Y-82220900D01*
X53602758Y-82776661D01*
X50710000Y-82776661D01*
X50710000Y-75185167D01*
X59064838Y-75185167D01*
X59206883Y-75528943D01*
X59469673Y-75792192D01*
X59813201Y-75934838D01*
X60185167Y-75935162D01*
X60306569Y-75885000D01*
X64928425Y-75885000D01*
X65004990Y-76070303D01*
X65397630Y-76463629D01*
X65605512Y-76549949D01*
X65399697Y-76634990D01*
X65006371Y-77027630D01*
X64970092Y-77115000D01*
X60306822Y-77115000D01*
X60186799Y-77065162D01*
X59814833Y-77064838D01*
X59471057Y-77206883D01*
X59207808Y-77469673D01*
X59065162Y-77813201D01*
X59064838Y-78185167D01*
X59206883Y-78528943D01*
X59469673Y-78792192D01*
X59813201Y-78934838D01*
X60185167Y-78935162D01*
X60306569Y-78885000D01*
X65279208Y-78885000D01*
X65397630Y-79003629D01*
X65605512Y-79089949D01*
X65399697Y-79174990D01*
X65006371Y-79567630D01*
X64986701Y-79615000D01*
X63306822Y-79615000D01*
X63186799Y-79565162D01*
X62814833Y-79564838D01*
X62471057Y-79706883D01*
X62207808Y-79969673D01*
X62065162Y-80313201D01*
X62064838Y-80685167D01*
X62206883Y-81028943D01*
X62469673Y-81292192D01*
X62813201Y-81434838D01*
X63185167Y-81435162D01*
X63306569Y-81385000D01*
X65239278Y-81385000D01*
X65397630Y-81543629D01*
X65605512Y-81629949D01*
X65399697Y-81714990D01*
X65006371Y-82107630D01*
X64793243Y-82620900D01*
X64792758Y-83176661D01*
X65004990Y-83690303D01*
X65397630Y-84083629D01*
X65605512Y-84169949D01*
X65399697Y-84254990D01*
X65006371Y-84647630D01*
X64793243Y-85160900D01*
X64792758Y-85716661D01*
X65004990Y-86230303D01*
X65397630Y-86623629D01*
X65605512Y-86709949D01*
X65399697Y-86794990D01*
X65006371Y-87187630D01*
X64793243Y-87700900D01*
X64792758Y-88256661D01*
X65004990Y-88770303D01*
X65397630Y-89163629D01*
X65910900Y-89376757D01*
X66466661Y-89377242D01*
X66980303Y-89165010D01*
X67373629Y-88772370D01*
X67586757Y-88259100D01*
X67587242Y-87703339D01*
X67375010Y-87189697D01*
X66982370Y-86796371D01*
X66774488Y-86710051D01*
X66980303Y-86625010D01*
X67373629Y-86232370D01*
X67586757Y-85719100D01*
X67587242Y-85163339D01*
X67375010Y-84649697D01*
X66982370Y-84256371D01*
X66774488Y-84170051D01*
X66980303Y-84085010D01*
X67373629Y-83692370D01*
X67586757Y-83179100D01*
X67587242Y-82623339D01*
X67375010Y-82109697D01*
X66982370Y-81716371D01*
X66774488Y-81630051D01*
X66980303Y-81545010D01*
X67373629Y-81152370D01*
X67586757Y-80639100D01*
X67587242Y-80083339D01*
X67375010Y-79569697D01*
X67296735Y-79491285D01*
X77123760Y-79491285D01*
X77334169Y-80000515D01*
X77723436Y-80390461D01*
X77955870Y-80486976D01*
X77725485Y-80582169D01*
X77335539Y-80971436D01*
X77124241Y-81480298D01*
X77123760Y-82031285D01*
X77334169Y-82540515D01*
X77723436Y-82930461D01*
X78232298Y-83141759D01*
X78783285Y-83142240D01*
X79292515Y-82931831D01*
X79682461Y-82542564D01*
X79893759Y-82033702D01*
X79894240Y-81482715D01*
X79683831Y-80973485D01*
X79294564Y-80583539D01*
X79062130Y-80487024D01*
X79292515Y-80391831D01*
X79682461Y-80002564D01*
X79893759Y-79493702D01*
X79894240Y-78942715D01*
X79683831Y-78433485D01*
X79294564Y-78043539D01*
X78785702Y-77832241D01*
X78234715Y-77831760D01*
X77725485Y-78042169D01*
X77335539Y-78431436D01*
X77124241Y-78940298D01*
X77123760Y-79491285D01*
X67296735Y-79491285D01*
X66982370Y-79176371D01*
X66774488Y-79090051D01*
X66980303Y-79005010D01*
X67373629Y-78612370D01*
X67586757Y-78099100D01*
X67587242Y-77543339D01*
X67375010Y-77029697D01*
X66982370Y-76636371D01*
X66774488Y-76550051D01*
X66980303Y-76465010D01*
X67373629Y-76072370D01*
X67586757Y-75559100D01*
X67587242Y-75003339D01*
X67375010Y-74489697D01*
X66982370Y-74096371D01*
X66774488Y-74010051D01*
X66980303Y-73925010D01*
X67373629Y-73532370D01*
X67586757Y-73019100D01*
X67587242Y-72463339D01*
X67375010Y-71949697D01*
X66982370Y-71556371D01*
X66774488Y-71470051D01*
X66980303Y-71385010D01*
X67373629Y-70992370D01*
X67586757Y-70479100D01*
X67587242Y-69923339D01*
X67375010Y-69409697D01*
X67043178Y-69077285D01*
X77123760Y-69077285D01*
X77334169Y-69586515D01*
X77723436Y-69976461D01*
X77955870Y-70072976D01*
X77725485Y-70168169D01*
X77335539Y-70557436D01*
X77124241Y-71066298D01*
X77123760Y-71617285D01*
X77334169Y-72126515D01*
X77723436Y-72516461D01*
X78232298Y-72727759D01*
X78783285Y-72728240D01*
X79292515Y-72517831D01*
X79682461Y-72128564D01*
X79893759Y-71619702D01*
X79894240Y-71068715D01*
X79683831Y-70559485D01*
X79601152Y-70476661D01*
X80032758Y-70476661D01*
X80244990Y-70990303D01*
X80637630Y-71383629D01*
X80845512Y-71469949D01*
X80639697Y-71554990D01*
X80246371Y-71947630D01*
X80033243Y-72460900D01*
X80032758Y-73016661D01*
X80244990Y-73530303D01*
X80637630Y-73923629D01*
X80845512Y-74009949D01*
X80639697Y-74094990D01*
X80246371Y-74487630D01*
X80033243Y-75000900D01*
X80032758Y-75556661D01*
X80244990Y-76070303D01*
X80637630Y-76463629D01*
X80845512Y-76549949D01*
X80639697Y-76634990D01*
X80246371Y-77027630D01*
X80033243Y-77540900D01*
X80032758Y-78096661D01*
X80244990Y-78610303D01*
X80637630Y-79003629D01*
X80845512Y-79089949D01*
X80639697Y-79174990D01*
X80246371Y-79567630D01*
X80033243Y-80080900D01*
X80032758Y-80636661D01*
X80244990Y-81150303D01*
X80637630Y-81543629D01*
X80845512Y-81629949D01*
X80639697Y-81714990D01*
X80246371Y-82107630D01*
X80033243Y-82620900D01*
X80032758Y-83176661D01*
X80244990Y-83690303D01*
X80637630Y-84083629D01*
X80845512Y-84169949D01*
X80639697Y-84254990D01*
X80246371Y-84647630D01*
X80033243Y-85160900D01*
X80032758Y-85716661D01*
X80244990Y-86230303D01*
X80637630Y-86623629D01*
X80845512Y-86709949D01*
X80639697Y-86794990D01*
X80246371Y-87187630D01*
X80033243Y-87700900D01*
X80032758Y-88256661D01*
X80244990Y-88770303D01*
X80637630Y-89163629D01*
X81150900Y-89376757D01*
X81706661Y-89377242D01*
X82220303Y-89165010D01*
X82500802Y-88885000D01*
X84193178Y-88885000D01*
X84313201Y-88934838D01*
X84685167Y-88935162D01*
X85028943Y-88793117D01*
X85292192Y-88530327D01*
X85434838Y-88186799D01*
X85434892Y-88123691D01*
X86415000Y-88123691D01*
X86415000Y-88216250D01*
X86573750Y-88375000D01*
X87373000Y-88375000D01*
X87373000Y-87773750D01*
X87627000Y-87773750D01*
X87627000Y-88375000D01*
X88426250Y-88375000D01*
X88585000Y-88216250D01*
X88585000Y-88123691D01*
X88488327Y-87890302D01*
X88309699Y-87711673D01*
X88076310Y-87615000D01*
X87785750Y-87615000D01*
X87627000Y-87773750D01*
X87373000Y-87773750D01*
X87214250Y-87615000D01*
X86923690Y-87615000D01*
X86690301Y-87711673D01*
X86511673Y-87890302D01*
X86415000Y-88123691D01*
X85434892Y-88123691D01*
X85435162Y-87814833D01*
X85293117Y-87471057D01*
X85030327Y-87207808D01*
X84686799Y-87065162D01*
X84314833Y-87064838D01*
X84193431Y-87115000D01*
X82540443Y-87115000D01*
X82222370Y-86796371D01*
X82014488Y-86710051D01*
X82220303Y-86625010D01*
X82460732Y-86385000D01*
X84693178Y-86385000D01*
X84813201Y-86434838D01*
X85185167Y-86435162D01*
X85528943Y-86293117D01*
X85792192Y-86030327D01*
X85934838Y-85686799D01*
X85935162Y-85314833D01*
X85793117Y-84971057D01*
X85530327Y-84707808D01*
X85186799Y-84565162D01*
X84814833Y-84564838D01*
X84693431Y-84615000D01*
X82580374Y-84615000D01*
X82222370Y-84256371D01*
X82014488Y-84170051D01*
X82220303Y-84085010D01*
X82420662Y-83885000D01*
X83693178Y-83885000D01*
X83813201Y-83934838D01*
X84185167Y-83935162D01*
X84528943Y-83793117D01*
X84792192Y-83530327D01*
X84831836Y-83434854D01*
X85185167Y-83435162D01*
X85306569Y-83385000D01*
X86988569Y-83385000D01*
X87050000Y-83397440D01*
X87950000Y-83397440D01*
X88016113Y-83385000D01*
X96009146Y-83385000D01*
X96046838Y-83585317D01*
X96185910Y-83801441D01*
X96398110Y-83946431D01*
X96650000Y-83997440D01*
X98350000Y-83997440D01*
X98585317Y-83953162D01*
X98801441Y-83814090D01*
X98946431Y-83601890D01*
X98997440Y-83350000D01*
X98997440Y-81650000D01*
X98953162Y-81414683D01*
X98814090Y-81198559D01*
X98601890Y-81053569D01*
X98534459Y-81039914D01*
X98579147Y-81010054D01*
X98901054Y-80528285D01*
X99014093Y-79960000D01*
X98901054Y-79391715D01*
X98579147Y-78909946D01*
X98097378Y-78588039D01*
X97529093Y-78475000D01*
X97470907Y-78475000D01*
X96902622Y-78588039D01*
X96420853Y-78909946D01*
X96098946Y-79391715D01*
X95985907Y-79960000D01*
X96098946Y-80528285D01*
X96420853Y-81010054D01*
X96462452Y-81037850D01*
X96414683Y-81046838D01*
X96198559Y-81185910D01*
X96053569Y-81398110D01*
X96009648Y-81615000D01*
X88483025Y-81615000D01*
X88488327Y-81609698D01*
X88585000Y-81376309D01*
X88585000Y-81283750D01*
X88426250Y-81125000D01*
X87627000Y-81125000D01*
X87627000Y-81147000D01*
X87373000Y-81147000D01*
X87373000Y-81125000D01*
X86573750Y-81125000D01*
X86415000Y-81283750D01*
X86415000Y-81376309D01*
X86511673Y-81609698D01*
X86516975Y-81615000D01*
X85306822Y-81615000D01*
X85186799Y-81565162D01*
X84814833Y-81564838D01*
X84471057Y-81706883D01*
X84207808Y-81969673D01*
X84168164Y-82065146D01*
X83814833Y-82064838D01*
X83693431Y-82115000D01*
X82617201Y-82115000D01*
X82615010Y-82109697D01*
X82222370Y-81716371D01*
X82014488Y-81630051D01*
X82220303Y-81545010D01*
X82380593Y-81385000D01*
X82693178Y-81385000D01*
X82813201Y-81434838D01*
X83185167Y-81435162D01*
X83528943Y-81293117D01*
X83792192Y-81030327D01*
X83934838Y-80686799D01*
X83934892Y-80623691D01*
X86415000Y-80623691D01*
X86415000Y-80716250D01*
X86573750Y-80875000D01*
X87373000Y-80875000D01*
X87373000Y-80273750D01*
X87627000Y-80273750D01*
X87627000Y-80875000D01*
X88426250Y-80875000D01*
X88585000Y-80716250D01*
X88585000Y-80623691D01*
X88488327Y-80390302D01*
X88309699Y-80211673D01*
X88076310Y-80115000D01*
X87785750Y-80115000D01*
X87627000Y-80273750D01*
X87373000Y-80273750D01*
X87214250Y-80115000D01*
X86923690Y-80115000D01*
X86690301Y-80211673D01*
X86511673Y-80390302D01*
X86415000Y-80623691D01*
X83934892Y-80623691D01*
X83935162Y-80314833D01*
X83793117Y-79971057D01*
X83530327Y-79707808D01*
X83186799Y-79565162D01*
X82814833Y-79564838D01*
X82693431Y-79615000D01*
X82633729Y-79615000D01*
X82615010Y-79569697D01*
X82222370Y-79176371D01*
X82014488Y-79090051D01*
X82220303Y-79005010D01*
X82613629Y-78612370D01*
X82826757Y-78099100D01*
X82827242Y-77543339D01*
X82615010Y-77029697D01*
X82222370Y-76636371D01*
X82014488Y-76550051D01*
X82220303Y-76465010D01*
X82613629Y-76072370D01*
X82826757Y-75559100D01*
X82827083Y-75185167D01*
X83064838Y-75185167D01*
X83206883Y-75528943D01*
X83469673Y-75792192D01*
X83813201Y-75934838D01*
X84185167Y-75935162D01*
X84306569Y-75885000D01*
X86988569Y-75885000D01*
X87050000Y-75897440D01*
X87950000Y-75897440D01*
X88016113Y-75885000D01*
X96009146Y-75885000D01*
X96046838Y-76085317D01*
X96185910Y-76301441D01*
X96398110Y-76446431D01*
X96650000Y-76497440D01*
X98350000Y-76497440D01*
X98585317Y-76453162D01*
X98801441Y-76314090D01*
X98946431Y-76101890D01*
X98997440Y-75850000D01*
X98997440Y-74150000D01*
X98953162Y-73914683D01*
X98814090Y-73698559D01*
X98601890Y-73553569D01*
X98534459Y-73539914D01*
X98579147Y-73510054D01*
X98901054Y-73028285D01*
X99014093Y-72460000D01*
X98901054Y-71891715D01*
X98579147Y-71409946D01*
X98097378Y-71088039D01*
X97529093Y-70975000D01*
X97470907Y-70975000D01*
X96902622Y-71088039D01*
X96420853Y-71409946D01*
X96098946Y-71891715D01*
X95985907Y-72460000D01*
X96098946Y-73028285D01*
X96420853Y-73510054D01*
X96462452Y-73537850D01*
X96414683Y-73546838D01*
X96198559Y-73685910D01*
X96053569Y-73898110D01*
X96009648Y-74115000D01*
X88483025Y-74115000D01*
X88488327Y-74109698D01*
X88585000Y-73876309D01*
X88585000Y-73783750D01*
X88426250Y-73625000D01*
X87627000Y-73625000D01*
X87627000Y-73647000D01*
X87373000Y-73647000D01*
X87373000Y-73625000D01*
X86573750Y-73625000D01*
X86415000Y-73783750D01*
X86415000Y-73876309D01*
X86511673Y-74109698D01*
X86516975Y-74115000D01*
X84306822Y-74115000D01*
X84186799Y-74065162D01*
X83814833Y-74064838D01*
X83471057Y-74206883D01*
X83207808Y-74469673D01*
X83065162Y-74813201D01*
X83064838Y-75185167D01*
X82827083Y-75185167D01*
X82827242Y-75003339D01*
X82615010Y-74489697D01*
X82222370Y-74096371D01*
X82014488Y-74010051D01*
X82220303Y-73925010D01*
X82613629Y-73532370D01*
X82783327Y-73123691D01*
X86415000Y-73123691D01*
X86415000Y-73216250D01*
X86573750Y-73375000D01*
X87373000Y-73375000D01*
X87373000Y-72773750D01*
X87627000Y-72773750D01*
X87627000Y-73375000D01*
X88426250Y-73375000D01*
X88585000Y-73216250D01*
X88585000Y-73123691D01*
X88488327Y-72890302D01*
X88309699Y-72711673D01*
X88076310Y-72615000D01*
X87785750Y-72615000D01*
X87627000Y-72773750D01*
X87373000Y-72773750D01*
X87214250Y-72615000D01*
X86923690Y-72615000D01*
X86690301Y-72711673D01*
X86511673Y-72890302D01*
X86415000Y-73123691D01*
X82783327Y-73123691D01*
X82826757Y-73019100D01*
X82827242Y-72463339D01*
X82815466Y-72434840D01*
X83185167Y-72435162D01*
X83306569Y-72385000D01*
X84693178Y-72385000D01*
X84813201Y-72434838D01*
X85185167Y-72435162D01*
X85528943Y-72293117D01*
X85792192Y-72030327D01*
X85934838Y-71686799D01*
X85935162Y-71314833D01*
X85793117Y-70971057D01*
X85530327Y-70707808D01*
X85186799Y-70565162D01*
X84814833Y-70564838D01*
X84693431Y-70615000D01*
X83306822Y-70615000D01*
X83186799Y-70565162D01*
X82814833Y-70564838D01*
X82786252Y-70576647D01*
X82826757Y-70479100D01*
X82827242Y-69923339D01*
X82615010Y-69409697D01*
X82222370Y-69016371D01*
X82030273Y-68936605D01*
X82161143Y-68882397D01*
X82230608Y-68640213D01*
X81430000Y-67839605D01*
X80629392Y-68640213D01*
X80698857Y-68882397D01*
X80839318Y-68932509D01*
X80639697Y-69014990D01*
X80246371Y-69407630D01*
X80033243Y-69920900D01*
X80032758Y-70476661D01*
X79601152Y-70476661D01*
X79294564Y-70169539D01*
X79062130Y-70073024D01*
X79292515Y-69977831D01*
X79682461Y-69588564D01*
X79893759Y-69079702D01*
X79894240Y-68528715D01*
X79683831Y-68019485D01*
X79294564Y-67629539D01*
X78867730Y-67452302D01*
X80020856Y-67452302D01*
X80048638Y-68007368D01*
X80207603Y-68391143D01*
X80449787Y-68460608D01*
X81250395Y-67660000D01*
X81609605Y-67660000D01*
X82410213Y-68460608D01*
X82652397Y-68391143D01*
X82839144Y-67867698D01*
X82830009Y-67685167D01*
X84064838Y-67685167D01*
X84206883Y-68028943D01*
X84469673Y-68292192D01*
X84813201Y-68434838D01*
X85185167Y-68435162D01*
X85306569Y-68385000D01*
X86988569Y-68385000D01*
X87050000Y-68397440D01*
X87950000Y-68397440D01*
X88016113Y-68385000D01*
X96009146Y-68385000D01*
X96046838Y-68585317D01*
X96185910Y-68801441D01*
X96398110Y-68946431D01*
X96650000Y-68997440D01*
X98350000Y-68997440D01*
X98585317Y-68953162D01*
X98801441Y-68814090D01*
X98946431Y-68601890D01*
X98997440Y-68350000D01*
X98997440Y-66650000D01*
X98953162Y-66414683D01*
X98814090Y-66198559D01*
X98601890Y-66053569D01*
X98534459Y-66039914D01*
X98579147Y-66010054D01*
X98901054Y-65528285D01*
X99014093Y-64960000D01*
X98901054Y-64391715D01*
X98579147Y-63909946D01*
X98097378Y-63588039D01*
X97529093Y-63475000D01*
X97470907Y-63475000D01*
X96902622Y-63588039D01*
X96420853Y-63909946D01*
X96098946Y-64391715D01*
X95985907Y-64960000D01*
X96098946Y-65528285D01*
X96420853Y-66010054D01*
X96462452Y-66037850D01*
X96414683Y-66046838D01*
X96198559Y-66185910D01*
X96053569Y-66398110D01*
X96009648Y-66615000D01*
X88483025Y-66615000D01*
X88488327Y-66609698D01*
X88585000Y-66376309D01*
X88585000Y-66283750D01*
X88426250Y-66125000D01*
X87627000Y-66125000D01*
X87627000Y-66147000D01*
X87373000Y-66147000D01*
X87373000Y-66125000D01*
X86573750Y-66125000D01*
X86415000Y-66283750D01*
X86415000Y-66376309D01*
X86511673Y-66609698D01*
X86516975Y-66615000D01*
X85306822Y-66615000D01*
X85186799Y-66565162D01*
X84814833Y-66564838D01*
X84471057Y-66706883D01*
X84207808Y-66969673D01*
X84065162Y-67313201D01*
X84064838Y-67685167D01*
X82830009Y-67685167D01*
X82811362Y-67312632D01*
X82652397Y-66928857D01*
X82410213Y-66859392D01*
X81609605Y-67660000D01*
X81250395Y-67660000D01*
X80449787Y-66859392D01*
X80207603Y-66928857D01*
X80020856Y-67452302D01*
X78867730Y-67452302D01*
X78785702Y-67418241D01*
X78234715Y-67417760D01*
X77725485Y-67628169D01*
X77335539Y-68017436D01*
X77124241Y-68526298D01*
X77123760Y-69077285D01*
X67043178Y-69077285D01*
X66982370Y-69016371D01*
X66774488Y-68930051D01*
X66980303Y-68845010D01*
X67373629Y-68452370D01*
X67586757Y-67939100D01*
X67587242Y-67383339D01*
X67375010Y-66869697D01*
X66982370Y-66476371D01*
X66774488Y-66390051D01*
X66980303Y-66305010D01*
X67373629Y-65912370D01*
X67586757Y-65399100D01*
X67587242Y-64843339D01*
X67375010Y-64329697D01*
X66982370Y-63936371D01*
X66774488Y-63850051D01*
X66980303Y-63765010D01*
X67373629Y-63372370D01*
X67586757Y-62859100D01*
X67587242Y-62303339D01*
X67375010Y-61789697D01*
X66982370Y-61396371D01*
X66774488Y-61310051D01*
X66980303Y-61225010D01*
X67373629Y-60832370D01*
X67586757Y-60319100D01*
X67586759Y-60316661D01*
X80032758Y-60316661D01*
X80244990Y-60830303D01*
X80637630Y-61223629D01*
X80845512Y-61309949D01*
X80639697Y-61394990D01*
X80246371Y-61787630D01*
X80033243Y-62300900D01*
X80032758Y-62856661D01*
X80244990Y-63370303D01*
X80637630Y-63763629D01*
X80845512Y-63849949D01*
X80639697Y-63934990D01*
X80246371Y-64327630D01*
X80033243Y-64840900D01*
X80032758Y-65396661D01*
X80244990Y-65910303D01*
X80637630Y-66303629D01*
X80829727Y-66383395D01*
X80698857Y-66437603D01*
X80629392Y-66679787D01*
X81430000Y-67480395D01*
X82230608Y-66679787D01*
X82161143Y-66437603D01*
X82020682Y-66387491D01*
X82220303Y-66305010D01*
X82613629Y-65912370D01*
X82733498Y-65623691D01*
X86415000Y-65623691D01*
X86415000Y-65716250D01*
X86573750Y-65875000D01*
X87373000Y-65875000D01*
X87373000Y-65273750D01*
X87627000Y-65273750D01*
X87627000Y-65875000D01*
X88426250Y-65875000D01*
X88585000Y-65716250D01*
X88585000Y-65623691D01*
X88488327Y-65390302D01*
X88309699Y-65211673D01*
X88076310Y-65115000D01*
X87785750Y-65115000D01*
X87627000Y-65273750D01*
X87373000Y-65273750D01*
X87214250Y-65115000D01*
X86923690Y-65115000D01*
X86690301Y-65211673D01*
X86511673Y-65390302D01*
X86415000Y-65623691D01*
X82733498Y-65623691D01*
X82826757Y-65399100D01*
X82827242Y-64843339D01*
X82615010Y-64329697D01*
X82222370Y-63936371D01*
X82014488Y-63850051D01*
X82220303Y-63765010D01*
X82613629Y-63372370D01*
X82826757Y-62859100D01*
X82827242Y-62303339D01*
X82615010Y-61789697D01*
X82222370Y-61396371D01*
X82014488Y-61310051D01*
X82220303Y-61225010D01*
X82613629Y-60832370D01*
X82826757Y-60319100D01*
X82827242Y-59763339D01*
X82615010Y-59249697D01*
X82222370Y-58856371D01*
X81709100Y-58643243D01*
X81153339Y-58642758D01*
X80639697Y-58854990D01*
X80246371Y-59247630D01*
X80033243Y-59760900D01*
X80032758Y-60316661D01*
X67586759Y-60316661D01*
X67587242Y-59763339D01*
X67375010Y-59249697D01*
X66982370Y-58856371D01*
X66469100Y-58643243D01*
X65913339Y-58642758D01*
X65399697Y-58854990D01*
X65006371Y-59247630D01*
X64793243Y-59760900D01*
X64792758Y-60316661D01*
X65004990Y-60830303D01*
X65397630Y-61223629D01*
X65605512Y-61309949D01*
X65399697Y-61394990D01*
X65006371Y-61787630D01*
X64793243Y-62300900D01*
X64792758Y-62856661D01*
X65004990Y-63370303D01*
X65397630Y-63763629D01*
X65605512Y-63849949D01*
X65399697Y-63934990D01*
X65006371Y-64327630D01*
X64793243Y-64840900D01*
X64792758Y-65396661D01*
X65004990Y-65910303D01*
X65397630Y-66303629D01*
X65605512Y-66389949D01*
X65399697Y-66474990D01*
X65006371Y-66867630D01*
X64793243Y-67380900D01*
X64792758Y-67936661D01*
X65004990Y-68450303D01*
X65397630Y-68843629D01*
X65605512Y-68929949D01*
X65399697Y-69014990D01*
X65006371Y-69407630D01*
X64793243Y-69920900D01*
X64792758Y-70476661D01*
X65004990Y-70990303D01*
X65397630Y-71383629D01*
X65605512Y-71469949D01*
X65399697Y-71554990D01*
X65006371Y-71947630D01*
X64793243Y-72460900D01*
X64792758Y-73016661D01*
X65004990Y-73530303D01*
X65397630Y-73923629D01*
X65605512Y-74009949D01*
X65399697Y-74094990D01*
X65379652Y-74115000D01*
X60306822Y-74115000D01*
X60186799Y-74065162D01*
X59814833Y-74064838D01*
X59471057Y-74206883D01*
X59207808Y-74469673D01*
X59065162Y-74813201D01*
X59064838Y-75185167D01*
X50710000Y-75185167D01*
X50710000Y-68776661D01*
X53602758Y-68776661D01*
X53814990Y-69290303D01*
X54207630Y-69683629D01*
X54720900Y-69896757D01*
X55276661Y-69897242D01*
X55790303Y-69685010D01*
X56183629Y-69292370D01*
X56396757Y-68779100D01*
X56397242Y-68223339D01*
X56185010Y-67709697D01*
X55792370Y-67316371D01*
X55526273Y-67205878D01*
X55000000Y-66679605D01*
X54473698Y-67205907D01*
X54209697Y-67314990D01*
X53816371Y-67707630D01*
X53603243Y-68220900D01*
X53602758Y-68776661D01*
X50710000Y-68776661D01*
X50710000Y-66292302D01*
X53590856Y-66292302D01*
X53618638Y-66847368D01*
X53777603Y-67231143D01*
X54019787Y-67300608D01*
X54820395Y-66500000D01*
X55179605Y-66500000D01*
X55980213Y-67300608D01*
X56222397Y-67231143D01*
X56409144Y-66707698D01*
X56381362Y-66152632D01*
X56222397Y-65768857D01*
X55980213Y-65699392D01*
X55179605Y-66500000D01*
X54820395Y-66500000D01*
X54019787Y-65699392D01*
X53777603Y-65768857D01*
X53590856Y-66292302D01*
X50710000Y-66292302D01*
X50710000Y-62776661D01*
X53602758Y-62776661D01*
X53814990Y-63290303D01*
X54024342Y-63500021D01*
X53816371Y-63707630D01*
X53603243Y-64220900D01*
X53602758Y-64776661D01*
X53814990Y-65290303D01*
X54207630Y-65683629D01*
X54473727Y-65794122D01*
X55000000Y-66320395D01*
X55526302Y-65794093D01*
X55790303Y-65685010D01*
X56183629Y-65292370D01*
X56396757Y-64779100D01*
X56397242Y-64223339D01*
X56185010Y-63709697D01*
X55975658Y-63499979D01*
X56090837Y-63385000D01*
X59693178Y-63385000D01*
X59813201Y-63434838D01*
X60185167Y-63435162D01*
X60528943Y-63293117D01*
X60792192Y-63030327D01*
X60934838Y-62686799D01*
X60935162Y-62314833D01*
X60793117Y-61971057D01*
X60530327Y-61707808D01*
X60186799Y-61565162D01*
X59814833Y-61564838D01*
X59693431Y-61615000D01*
X56090478Y-61615000D01*
X55792370Y-61316371D01*
X55279100Y-61103243D01*
X54723339Y-61102758D01*
X54209697Y-61314990D01*
X53816371Y-61707630D01*
X53603243Y-62220900D01*
X53602758Y-62776661D01*
X50710000Y-62776661D01*
X50710000Y-57776661D01*
X66062758Y-57776661D01*
X66274990Y-58290303D01*
X66667630Y-58683629D01*
X67180900Y-58896757D01*
X67736661Y-58897242D01*
X68250303Y-58685010D01*
X68643629Y-58292370D01*
X68729949Y-58084488D01*
X68814990Y-58290303D01*
X69207630Y-58683629D01*
X69720900Y-58896757D01*
X70276661Y-58897242D01*
X70790303Y-58685010D01*
X71183629Y-58292370D01*
X71269949Y-58084488D01*
X71354990Y-58290303D01*
X71747630Y-58683629D01*
X72260900Y-58896757D01*
X72816661Y-58897242D01*
X73330303Y-58685010D01*
X73723629Y-58292370D01*
X73809949Y-58084488D01*
X73894990Y-58290303D01*
X74287630Y-58683629D01*
X74800900Y-58896757D01*
X75356661Y-58897242D01*
X75870303Y-58685010D01*
X76263629Y-58292370D01*
X76349949Y-58084488D01*
X76434990Y-58290303D01*
X76827630Y-58683629D01*
X77340900Y-58896757D01*
X77896661Y-58897242D01*
X78410303Y-58685010D01*
X78803629Y-58292370D01*
X78889949Y-58084488D01*
X78974990Y-58290303D01*
X79367630Y-58683629D01*
X79880900Y-58896757D01*
X80436661Y-58897242D01*
X80950303Y-58685010D01*
X81343629Y-58292370D01*
X81556757Y-57779100D01*
X81557242Y-57223339D01*
X81345010Y-56709697D01*
X80952370Y-56316371D01*
X80439100Y-56103243D01*
X79883339Y-56102758D01*
X79369697Y-56314990D01*
X78976371Y-56707630D01*
X78890051Y-56915512D01*
X78805010Y-56709697D01*
X78412370Y-56316371D01*
X77899100Y-56103243D01*
X77343339Y-56102758D01*
X76829697Y-56314990D01*
X76436371Y-56707630D01*
X76350051Y-56915512D01*
X76265010Y-56709697D01*
X75872370Y-56316371D01*
X75359100Y-56103243D01*
X74803339Y-56102758D01*
X74289697Y-56314990D01*
X73896371Y-56707630D01*
X73810051Y-56915512D01*
X73725010Y-56709697D01*
X73332370Y-56316371D01*
X72819100Y-56103243D01*
X72263339Y-56102758D01*
X71749697Y-56314990D01*
X71356371Y-56707630D01*
X71270051Y-56915512D01*
X71185010Y-56709697D01*
X70792370Y-56316371D01*
X70279100Y-56103243D01*
X69723339Y-56102758D01*
X69209697Y-56314990D01*
X68816371Y-56707630D01*
X68730051Y-56915512D01*
X68645010Y-56709697D01*
X68252370Y-56316371D01*
X67739100Y-56103243D01*
X67183339Y-56102758D01*
X66669697Y-56314990D01*
X66276371Y-56707630D01*
X66063243Y-57220900D01*
X66062758Y-57776661D01*
X50710000Y-57776661D01*
X50710000Y-55442619D01*
X52764613Y-55442619D01*
X53104155Y-56264372D01*
X53732321Y-56893636D01*
X54553481Y-57234611D01*
X55442619Y-57235387D01*
X56264372Y-56895845D01*
X56893636Y-56267679D01*
X57234611Y-55446519D01*
X57234614Y-55442619D01*
X92764613Y-55442619D01*
X93104155Y-56264372D01*
X93732321Y-56893636D01*
X94553481Y-57234611D01*
X95442619Y-57235387D01*
X96264372Y-56895845D01*
X96893636Y-56267679D01*
X97234611Y-55446519D01*
X97235387Y-54557381D01*
X96895845Y-53735628D01*
X96267679Y-53106364D01*
X95446519Y-52765389D01*
X94557381Y-52764613D01*
X93735628Y-53104155D01*
X93106364Y-53732321D01*
X92765389Y-54553481D01*
X92764613Y-55442619D01*
X57234614Y-55442619D01*
X57235387Y-54557381D01*
X56895845Y-53735628D01*
X56267679Y-53106364D01*
X55446519Y-52765389D01*
X54557381Y-52764613D01*
X53735628Y-53104155D01*
X53106364Y-53732321D01*
X52765389Y-54553481D01*
X52764613Y-55442619D01*
X50710000Y-55442619D01*
X50710000Y-50710000D01*
X99290000Y-50710000D01*
X99290000Y-101290000D01*
X99290000Y-101290000D01*
G37*
X99290000Y-101290000D02*
X79876453Y-101290000D01*
X80118155Y-100928267D01*
X80235000Y-100340848D01*
X80235000Y-99159152D01*
X80118155Y-98571733D01*
X79785409Y-98073743D01*
X79589168Y-97942619D01*
X92764613Y-97942619D01*
X93104155Y-98764372D01*
X93732321Y-99393636D01*
X94553481Y-99734611D01*
X95442619Y-99735387D01*
X96264372Y-99395845D01*
X96893636Y-98767679D01*
X97234611Y-97946519D01*
X97235387Y-97057381D01*
X96895845Y-96235628D01*
X96267679Y-95606364D01*
X95446519Y-95265389D01*
X94557381Y-95264613D01*
X93735628Y-95604155D01*
X93106364Y-96232321D01*
X92765389Y-97053481D01*
X92764613Y-97942619D01*
X79589168Y-97942619D01*
X79287419Y-97740997D01*
X78700000Y-97624152D01*
X78112581Y-97740997D01*
X77614591Y-98073743D01*
X77281845Y-98571733D01*
X77165000Y-99159152D01*
X77165000Y-100340848D01*
X77281845Y-100928267D01*
X77523547Y-101290000D01*
X72476453Y-101290000D01*
X72718155Y-100928267D01*
X72835000Y-100340848D01*
X72835000Y-99159152D01*
X72718155Y-98571733D01*
X72385409Y-98073743D01*
X71887419Y-97740997D01*
X71300000Y-97624152D01*
X70712581Y-97740997D01*
X70214591Y-98073743D01*
X69881845Y-98571733D01*
X69765000Y-99159152D01*
X69765000Y-100340848D01*
X69881845Y-100928267D01*
X70123547Y-101290000D01*
X50710000Y-101290000D01*
X50710000Y-97942619D01*
X52764613Y-97942619D01*
X53104155Y-98764372D01*
X53732321Y-99393636D01*
X54553481Y-99734611D01*
X55442619Y-99735387D01*
X56264372Y-99395845D01*
X56893636Y-98767679D01*
X57234611Y-97946519D01*
X57235387Y-97057381D01*
X56895845Y-96235628D01*
X56267679Y-95606364D01*
X55446519Y-95265389D01*
X54557381Y-95264613D01*
X53735628Y-95604155D01*
X53106364Y-96232321D01*
X52765389Y-97053481D01*
X52764613Y-97942619D01*
X50710000Y-97942619D01*
X50710000Y-94409152D01*
X69765000Y-94409152D01*
X69765000Y-95590848D01*
X69881845Y-96178267D01*
X70214591Y-96676257D01*
X70712581Y-97009003D01*
X71300000Y-97125848D01*
X71887419Y-97009003D01*
X72385409Y-96676257D01*
X72567674Y-96403477D01*
X72611673Y-96509699D01*
X72790302Y-96688327D01*
X73023691Y-96785000D01*
X73116250Y-96785000D01*
X73275000Y-96626250D01*
X73275000Y-95127000D01*
X73253000Y-95127000D01*
X73253000Y-94873000D01*
X73275000Y-94873000D01*
X73275000Y-93850000D01*
X73302560Y-93850000D01*
X73302560Y-96150000D01*
X73346838Y-96385317D01*
X73485910Y-96601441D01*
X73530999Y-96632249D01*
X73683750Y-96785000D01*
X73776309Y-96785000D01*
X73813171Y-96769731D01*
X73950000Y-96797440D01*
X74450000Y-96797440D01*
X74605507Y-96768179D01*
X74750000Y-96797440D01*
X75250000Y-96797440D01*
X75405507Y-96768179D01*
X75550000Y-96797440D01*
X75715000Y-96797440D01*
X75715000Y-96962494D01*
X75707808Y-96969673D01*
X75565162Y-97313201D01*
X75564838Y-97685167D01*
X75706883Y-98028943D01*
X75969673Y-98292192D01*
X76313201Y-98434838D01*
X76685167Y-98435162D01*
X77028943Y-98293117D01*
X77292192Y-98030327D01*
X77406179Y-97755817D01*
X77417633Y-97738675D01*
X77421620Y-97718632D01*
X77434838Y-97686799D01*
X77434868Y-97652028D01*
X77485000Y-97400000D01*
X77485000Y-96482310D01*
X77614591Y-96676257D01*
X78112581Y-97009003D01*
X78700000Y-97125848D01*
X79287419Y-97009003D01*
X79785409Y-96676257D01*
X80118155Y-96178267D01*
X80235000Y-95590848D01*
X80235000Y-94409152D01*
X80118155Y-93821733D01*
X79785409Y-93323743D01*
X79287419Y-92990997D01*
X78700000Y-92874152D01*
X78112581Y-92990997D01*
X77614591Y-93323743D01*
X77436987Y-93589546D01*
X77314090Y-93398559D01*
X77101890Y-93253569D01*
X76850000Y-93202560D01*
X76350000Y-93202560D01*
X76194493Y-93231821D01*
X76050000Y-93202560D01*
X75550000Y-93202560D01*
X75394493Y-93231821D01*
X75250000Y-93202560D01*
X74750000Y-93202560D01*
X74594493Y-93231821D01*
X74450000Y-93202560D01*
X73950000Y-93202560D01*
X73809913Y-93228919D01*
X73776309Y-93215000D01*
X73683750Y-93215000D01*
X73538616Y-93360134D01*
X73498559Y-93385910D01*
X73353569Y-93598110D01*
X73302560Y-93850000D01*
X73275000Y-93850000D01*
X73275000Y-93373750D01*
X73116250Y-93215000D01*
X73023691Y-93215000D01*
X72790302Y-93311673D01*
X72611673Y-93490301D01*
X72567674Y-93596523D01*
X72385409Y-93323743D01*
X71887419Y-92990997D01*
X71300000Y-92874152D01*
X70712581Y-92990997D01*
X70214591Y-93323743D01*
X69881845Y-93821733D01*
X69765000Y-94409152D01*
X50710000Y-94409152D01*
X50710000Y-90185167D01*
X83564838Y-90185167D01*
X83706883Y-90528943D01*
X83969673Y-90792192D01*
X84313201Y-90934838D01*
X84685167Y-90935162D01*
X84806569Y-90885000D01*
X86988569Y-90885000D01*
X87050000Y-90897440D01*
X87950000Y-90897440D01*
X88016113Y-90885000D01*
X96009146Y-90885000D01*
X96046838Y-91085317D01*
X96185910Y-91301441D01*
X96398110Y-91446431D01*
X96650000Y-91497440D01*
X98350000Y-91497440D01*
X98585317Y-91453162D01*
X98801441Y-91314090D01*
X98946431Y-91101890D01*
X98997440Y-90850000D01*
X98997440Y-89150000D01*
X98953162Y-88914683D01*
X98814090Y-88698559D01*
X98601890Y-88553569D01*
X98534459Y-88539914D01*
X98579147Y-88510054D01*
X98901054Y-88028285D01*
X99014093Y-87460000D01*
X98901054Y-86891715D01*
X98579147Y-86409946D01*
X98097378Y-86088039D01*
X97529093Y-85975000D01*
X97470907Y-85975000D01*
X96902622Y-86088039D01*
X96420853Y-86409946D01*
X96098946Y-86891715D01*
X95985907Y-87460000D01*
X96098946Y-88028285D01*
X96420853Y-88510054D01*
X96462452Y-88537850D01*
X96414683Y-88546838D01*
X96198559Y-88685910D01*
X96053569Y-88898110D01*
X96009648Y-89115000D01*
X88483025Y-89115000D01*
X88488327Y-89109698D01*
X88585000Y-88876309D01*
X88585000Y-88783750D01*
X88426250Y-88625000D01*
X87627000Y-88625000D01*
X87627000Y-88647000D01*
X87373000Y-88647000D01*
X87373000Y-88625000D01*
X86573750Y-88625000D01*
X86415000Y-88783750D01*
X86415000Y-88876309D01*
X86511673Y-89109698D01*
X86516975Y-89115000D01*
X84806822Y-89115000D01*
X84686799Y-89065162D01*
X84314833Y-89064838D01*
X83971057Y-89206883D01*
X83707808Y-89469673D01*
X83565162Y-89813201D01*
X83564838Y-90185167D01*
X50710000Y-90185167D01*
X50710000Y-88776661D01*
X53602758Y-88776661D01*
X53814990Y-89290303D01*
X54207630Y-89683629D01*
X54720900Y-89896757D01*
X55276661Y-89897242D01*
X55790303Y-89685010D01*
X56183629Y-89292370D01*
X56396757Y-88779100D01*
X56397242Y-88223339D01*
X56185010Y-87709697D01*
X55792370Y-87316371D01*
X55526273Y-87205878D01*
X55000000Y-86679605D01*
X54473698Y-87205907D01*
X54209697Y-87314990D01*
X53816371Y-87707630D01*
X53603243Y-88220900D01*
X53602758Y-88776661D01*
X50710000Y-88776661D01*
X50710000Y-86292302D01*
X53590856Y-86292302D01*
X53618638Y-86847368D01*
X53777603Y-87231143D01*
X54019787Y-87300608D01*
X54820395Y-86500000D01*
X55179605Y-86500000D01*
X55980213Y-87300608D01*
X56222397Y-87231143D01*
X56409144Y-86707698D01*
X56381362Y-86152632D01*
X56222397Y-85768857D01*
X55980213Y-85699392D01*
X55179605Y-86500000D01*
X54820395Y-86500000D01*
X54019787Y-85699392D01*
X53777603Y-85768857D01*
X53590856Y-86292302D01*
X50710000Y-86292302D01*
X50710000Y-82776661D01*
X53602758Y-82776661D01*
X53814990Y-83290303D01*
X54024342Y-83500021D01*
X53816371Y-83707630D01*
X53603243Y-84220900D01*
X53602758Y-84776661D01*
X53814990Y-85290303D01*
X54207630Y-85683629D01*
X54473727Y-85794122D01*
X55000000Y-86320395D01*
X55526302Y-85794093D01*
X55790303Y-85685010D01*
X56090837Y-85385000D01*
X62693178Y-85385000D01*
X62813201Y-85434838D01*
X63185167Y-85435162D01*
X63528943Y-85293117D01*
X63792192Y-85030327D01*
X63934838Y-84686799D01*
X63935162Y-84314833D01*
X63793117Y-83971057D01*
X63530327Y-83707808D01*
X63186799Y-83565162D01*
X62814833Y-83564838D01*
X62693431Y-83615000D01*
X56090478Y-83615000D01*
X55975658Y-83499979D01*
X56090837Y-83385000D01*
X59693178Y-83385000D01*
X59813201Y-83434838D01*
X60185167Y-83435162D01*
X60528943Y-83293117D01*
X60792192Y-83030327D01*
X60934838Y-82686799D01*
X60935162Y-82314833D01*
X60793117Y-81971057D01*
X60530327Y-81707808D01*
X60186799Y-81565162D01*
X59814833Y-81564838D01*
X59693431Y-81615000D01*
X56090478Y-81615000D01*
X55792370Y-81316371D01*
X55279100Y-81103243D01*
X54723339Y-81102758D01*
X54209697Y-81314990D01*
X53816371Y-81707630D01*
X53603243Y-82220900D01*
X53602758Y-82776661D01*
X50710000Y-82776661D01*
X50710000Y-75185167D01*
X59064838Y-75185167D01*
X59206883Y-75528943D01*
X59469673Y-75792192D01*
X59813201Y-75934838D01*
X60185167Y-75935162D01*
X60306569Y-75885000D01*
X64928425Y-75885000D01*
X65004990Y-76070303D01*
X65397630Y-76463629D01*
X65605512Y-76549949D01*
X65399697Y-76634990D01*
X65006371Y-77027630D01*
X64970092Y-77115000D01*
X60306822Y-77115000D01*
X60186799Y-77065162D01*
X59814833Y-77064838D01*
X59471057Y-77206883D01*
X59207808Y-77469673D01*
X59065162Y-77813201D01*
X59064838Y-78185167D01*
X59206883Y-78528943D01*
X59469673Y-78792192D01*
X59813201Y-78934838D01*
X60185167Y-78935162D01*
X60306569Y-78885000D01*
X65279208Y-78885000D01*
X65397630Y-79003629D01*
X65605512Y-79089949D01*
X65399697Y-79174990D01*
X65006371Y-79567630D01*
X64986701Y-79615000D01*
X63306822Y-79615000D01*
X63186799Y-79565162D01*
X62814833Y-79564838D01*
X62471057Y-79706883D01*
X62207808Y-79969673D01*
X62065162Y-80313201D01*
X62064838Y-80685167D01*
X62206883Y-81028943D01*
X62469673Y-81292192D01*
X62813201Y-81434838D01*
X63185167Y-81435162D01*
X63306569Y-81385000D01*
X65239278Y-81385000D01*
X65397630Y-81543629D01*
X65605512Y-81629949D01*
X65399697Y-81714990D01*
X65006371Y-82107630D01*
X64793243Y-82620900D01*
X64792758Y-83176661D01*
X65004990Y-83690303D01*
X65397630Y-84083629D01*
X65605512Y-84169949D01*
X65399697Y-84254990D01*
X65006371Y-84647630D01*
X64793243Y-85160900D01*
X64792758Y-85716661D01*
X65004990Y-86230303D01*
X65397630Y-86623629D01*
X65605512Y-86709949D01*
X65399697Y-86794990D01*
X65006371Y-87187630D01*
X64793243Y-87700900D01*
X64792758Y-88256661D01*
X65004990Y-88770303D01*
X65397630Y-89163629D01*
X65910900Y-89376757D01*
X66466661Y-89377242D01*
X66980303Y-89165010D01*
X67373629Y-88772370D01*
X67586757Y-88259100D01*
X67587242Y-87703339D01*
X67375010Y-87189697D01*
X66982370Y-86796371D01*
X66774488Y-86710051D01*
X66980303Y-86625010D01*
X67373629Y-86232370D01*
X67586757Y-85719100D01*
X67587242Y-85163339D01*
X67375010Y-84649697D01*
X66982370Y-84256371D01*
X66774488Y-84170051D01*
X66980303Y-84085010D01*
X67373629Y-83692370D01*
X67586757Y-83179100D01*
X67587242Y-82623339D01*
X67375010Y-82109697D01*
X66982370Y-81716371D01*
X66774488Y-81630051D01*
X66980303Y-81545010D01*
X67373629Y-81152370D01*
X67586757Y-80639100D01*
X67587242Y-80083339D01*
X67375010Y-79569697D01*
X67296735Y-79491285D01*
X77123760Y-79491285D01*
X77334169Y-80000515D01*
X77723436Y-80390461D01*
X77955870Y-80486976D01*
X77725485Y-80582169D01*
X77335539Y-80971436D01*
X77124241Y-81480298D01*
X77123760Y-82031285D01*
X77334169Y-82540515D01*
X77723436Y-82930461D01*
X78232298Y-83141759D01*
X78783285Y-83142240D01*
X79292515Y-82931831D01*
X79682461Y-82542564D01*
X79893759Y-82033702D01*
X79894240Y-81482715D01*
X79683831Y-80973485D01*
X79294564Y-80583539D01*
X79062130Y-80487024D01*
X79292515Y-80391831D01*
X79682461Y-80002564D01*
X79893759Y-79493702D01*
X79894240Y-78942715D01*
X79683831Y-78433485D01*
X79294564Y-78043539D01*
X78785702Y-77832241D01*
X78234715Y-77831760D01*
X77725485Y-78042169D01*
X77335539Y-78431436D01*
X77124241Y-78940298D01*
X77123760Y-79491285D01*
X67296735Y-79491285D01*
X66982370Y-79176371D01*
X66774488Y-79090051D01*
X66980303Y-79005010D01*
X67373629Y-78612370D01*
X67586757Y-78099100D01*
X67587242Y-77543339D01*
X67375010Y-77029697D01*
X66982370Y-76636371D01*
X66774488Y-76550051D01*
X66980303Y-76465010D01*
X67373629Y-76072370D01*
X67586757Y-75559100D01*
X67587242Y-75003339D01*
X67375010Y-74489697D01*
X66982370Y-74096371D01*
X66774488Y-74010051D01*
X66980303Y-73925010D01*
X67373629Y-73532370D01*
X67586757Y-73019100D01*
X67587242Y-72463339D01*
X67375010Y-71949697D01*
X66982370Y-71556371D01*
X66774488Y-71470051D01*
X66980303Y-71385010D01*
X67373629Y-70992370D01*
X67586757Y-70479100D01*
X67587242Y-69923339D01*
X67375010Y-69409697D01*
X67043178Y-69077285D01*
X77123760Y-69077285D01*
X77334169Y-69586515D01*
X77723436Y-69976461D01*
X77955870Y-70072976D01*
X77725485Y-70168169D01*
X77335539Y-70557436D01*
X77124241Y-71066298D01*
X77123760Y-71617285D01*
X77334169Y-72126515D01*
X77723436Y-72516461D01*
X78232298Y-72727759D01*
X78783285Y-72728240D01*
X79292515Y-72517831D01*
X79682461Y-72128564D01*
X79893759Y-71619702D01*
X79894240Y-71068715D01*
X79683831Y-70559485D01*
X79601152Y-70476661D01*
X80032758Y-70476661D01*
X80244990Y-70990303D01*
X80637630Y-71383629D01*
X80845512Y-71469949D01*
X80639697Y-71554990D01*
X80246371Y-71947630D01*
X80033243Y-72460900D01*
X80032758Y-73016661D01*
X80244990Y-73530303D01*
X80637630Y-73923629D01*
X80845512Y-74009949D01*
X80639697Y-74094990D01*
X80246371Y-74487630D01*
X80033243Y-75000900D01*
X80032758Y-75556661D01*
X80244990Y-76070303D01*
X80637630Y-76463629D01*
X80845512Y-76549949D01*
X80639697Y-76634990D01*
X80246371Y-77027630D01*
X80033243Y-77540900D01*
X80032758Y-78096661D01*
X80244990Y-78610303D01*
X80637630Y-79003629D01*
X80845512Y-79089949D01*
X80639697Y-79174990D01*
X80246371Y-79567630D01*
X80033243Y-80080900D01*
X80032758Y-80636661D01*
X80244990Y-81150303D01*
X80637630Y-81543629D01*
X80845512Y-81629949D01*
X80639697Y-81714990D01*
X80246371Y-82107630D01*
X80033243Y-82620900D01*
X80032758Y-83176661D01*
X80244990Y-83690303D01*
X80637630Y-84083629D01*
X80845512Y-84169949D01*
X80639697Y-84254990D01*
X80246371Y-84647630D01*
X80033243Y-85160900D01*
X80032758Y-85716661D01*
X80244990Y-86230303D01*
X80637630Y-86623629D01*
X80845512Y-86709949D01*
X80639697Y-86794990D01*
X80246371Y-87187630D01*
X80033243Y-87700900D01*
X80032758Y-88256661D01*
X80244990Y-88770303D01*
X80637630Y-89163629D01*
X81150900Y-89376757D01*
X81706661Y-89377242D01*
X82220303Y-89165010D01*
X82500802Y-88885000D01*
X84193178Y-88885000D01*
X84313201Y-88934838D01*
X84685167Y-88935162D01*
X85028943Y-88793117D01*
X85292192Y-88530327D01*
X85434838Y-88186799D01*
X85434892Y-88123691D01*
X86415000Y-88123691D01*
X86415000Y-88216250D01*
X86573750Y-88375000D01*
X87373000Y-88375000D01*
X87373000Y-87773750D01*
X87627000Y-87773750D01*
X87627000Y-88375000D01*
X88426250Y-88375000D01*
X88585000Y-88216250D01*
X88585000Y-88123691D01*
X88488327Y-87890302D01*
X88309699Y-87711673D01*
X88076310Y-87615000D01*
X87785750Y-87615000D01*
X87627000Y-87773750D01*
X87373000Y-87773750D01*
X87214250Y-87615000D01*
X86923690Y-87615000D01*
X86690301Y-87711673D01*
X86511673Y-87890302D01*
X86415000Y-88123691D01*
X85434892Y-88123691D01*
X85435162Y-87814833D01*
X85293117Y-87471057D01*
X85030327Y-87207808D01*
X84686799Y-87065162D01*
X84314833Y-87064838D01*
X84193431Y-87115000D01*
X82540443Y-87115000D01*
X82222370Y-86796371D01*
X82014488Y-86710051D01*
X82220303Y-86625010D01*
X82460732Y-86385000D01*
X84693178Y-86385000D01*
X84813201Y-86434838D01*
X85185167Y-86435162D01*
X85528943Y-86293117D01*
X85792192Y-86030327D01*
X85934838Y-85686799D01*
X85935162Y-85314833D01*
X85793117Y-84971057D01*
X85530327Y-84707808D01*
X85186799Y-84565162D01*
X84814833Y-84564838D01*
X84693431Y-84615000D01*
X82580374Y-84615000D01*
X82222370Y-84256371D01*
X82014488Y-84170051D01*
X82220303Y-84085010D01*
X82420662Y-83885000D01*
X83693178Y-83885000D01*
X83813201Y-83934838D01*
X84185167Y-83935162D01*
X84528943Y-83793117D01*
X84792192Y-83530327D01*
X84831836Y-83434854D01*
X85185167Y-83435162D01*
X85306569Y-83385000D01*
X86988569Y-83385000D01*
X87050000Y-83397440D01*
X87950000Y-83397440D01*
X88016113Y-83385000D01*
X96009146Y-83385000D01*
X96046838Y-83585317D01*
X96185910Y-83801441D01*
X96398110Y-83946431D01*
X96650000Y-83997440D01*
X98350000Y-83997440D01*
X98585317Y-83953162D01*
X98801441Y-83814090D01*
X98946431Y-83601890D01*
X98997440Y-83350000D01*
X98997440Y-81650000D01*
X98953162Y-81414683D01*
X98814090Y-81198559D01*
X98601890Y-81053569D01*
X98534459Y-81039914D01*
X98579147Y-81010054D01*
X98901054Y-80528285D01*
X99014093Y-79960000D01*
X98901054Y-79391715D01*
X98579147Y-78909946D01*
X98097378Y-78588039D01*
X97529093Y-78475000D01*
X97470907Y-78475000D01*
X96902622Y-78588039D01*
X96420853Y-78909946D01*
X96098946Y-79391715D01*
X95985907Y-79960000D01*
X96098946Y-80528285D01*
X96420853Y-81010054D01*
X96462452Y-81037850D01*
X96414683Y-81046838D01*
X96198559Y-81185910D01*
X96053569Y-81398110D01*
X96009648Y-81615000D01*
X88483025Y-81615000D01*
X88488327Y-81609698D01*
X88585000Y-81376309D01*
X88585000Y-81283750D01*
X88426250Y-81125000D01*
X87627000Y-81125000D01*
X87627000Y-81147000D01*
X87373000Y-81147000D01*
X87373000Y-81125000D01*
X86573750Y-81125000D01*
X86415000Y-81283750D01*
X86415000Y-81376309D01*
X86511673Y-81609698D01*
X86516975Y-81615000D01*
X85306822Y-81615000D01*
X85186799Y-81565162D01*
X84814833Y-81564838D01*
X84471057Y-81706883D01*
X84207808Y-81969673D01*
X84168164Y-82065146D01*
X83814833Y-82064838D01*
X83693431Y-82115000D01*
X82617201Y-82115000D01*
X82615010Y-82109697D01*
X82222370Y-81716371D01*
X82014488Y-81630051D01*
X82220303Y-81545010D01*
X82380593Y-81385000D01*
X82693178Y-81385000D01*
X82813201Y-81434838D01*
X83185167Y-81435162D01*
X83528943Y-81293117D01*
X83792192Y-81030327D01*
X83934838Y-80686799D01*
X83934892Y-80623691D01*
X86415000Y-80623691D01*
X86415000Y-80716250D01*
X86573750Y-80875000D01*
X87373000Y-80875000D01*
X87373000Y-80273750D01*
X87627000Y-80273750D01*
X87627000Y-80875000D01*
X88426250Y-80875000D01*
X88585000Y-80716250D01*
X88585000Y-80623691D01*
X88488327Y-80390302D01*
X88309699Y-80211673D01*
X88076310Y-80115000D01*
X87785750Y-80115000D01*
X87627000Y-80273750D01*
X87373000Y-80273750D01*
X87214250Y-80115000D01*
X86923690Y-80115000D01*
X86690301Y-80211673D01*
X86511673Y-80390302D01*
X86415000Y-80623691D01*
X83934892Y-80623691D01*
X83935162Y-80314833D01*
X83793117Y-79971057D01*
X83530327Y-79707808D01*
X83186799Y-79565162D01*
X82814833Y-79564838D01*
X82693431Y-79615000D01*
X82633729Y-79615000D01*
X82615010Y-79569697D01*
X82222370Y-79176371D01*
X82014488Y-79090051D01*
X82220303Y-79005010D01*
X82613629Y-78612370D01*
X82826757Y-78099100D01*
X82827242Y-77543339D01*
X82615010Y-77029697D01*
X82222370Y-76636371D01*
X82014488Y-76550051D01*
X82220303Y-76465010D01*
X82613629Y-76072370D01*
X82826757Y-75559100D01*
X82827083Y-75185167D01*
X83064838Y-75185167D01*
X83206883Y-75528943D01*
X83469673Y-75792192D01*
X83813201Y-75934838D01*
X84185167Y-75935162D01*
X84306569Y-75885000D01*
X86988569Y-75885000D01*
X87050000Y-75897440D01*
X87950000Y-75897440D01*
X88016113Y-75885000D01*
X96009146Y-75885000D01*
X96046838Y-76085317D01*
X96185910Y-76301441D01*
X96398110Y-76446431D01*
X96650000Y-76497440D01*
X98350000Y-76497440D01*
X98585317Y-76453162D01*
X98801441Y-76314090D01*
X98946431Y-76101890D01*
X98997440Y-75850000D01*
X98997440Y-74150000D01*
X98953162Y-73914683D01*
X98814090Y-73698559D01*
X98601890Y-73553569D01*
X98534459Y-73539914D01*
X98579147Y-73510054D01*
X98901054Y-73028285D01*
X99014093Y-72460000D01*
X98901054Y-71891715D01*
X98579147Y-71409946D01*
X98097378Y-71088039D01*
X97529093Y-70975000D01*
X97470907Y-70975000D01*
X96902622Y-71088039D01*
X96420853Y-71409946D01*
X96098946Y-71891715D01*
X95985907Y-72460000D01*
X96098946Y-73028285D01*
X96420853Y-73510054D01*
X96462452Y-73537850D01*
X96414683Y-73546838D01*
X96198559Y-73685910D01*
X96053569Y-73898110D01*
X96009648Y-74115000D01*
X88483025Y-74115000D01*
X88488327Y-74109698D01*
X88585000Y-73876309D01*
X88585000Y-73783750D01*
X88426250Y-73625000D01*
X87627000Y-73625000D01*
X87627000Y-73647000D01*
X87373000Y-73647000D01*
X87373000Y-73625000D01*
X86573750Y-73625000D01*
X86415000Y-73783750D01*
X86415000Y-73876309D01*
X86511673Y-74109698D01*
X86516975Y-74115000D01*
X84306822Y-74115000D01*
X84186799Y-74065162D01*
X83814833Y-74064838D01*
X83471057Y-74206883D01*
X83207808Y-74469673D01*
X83065162Y-74813201D01*
X83064838Y-75185167D01*
X82827083Y-75185167D01*
X82827242Y-75003339D01*
X82615010Y-74489697D01*
X82222370Y-74096371D01*
X82014488Y-74010051D01*
X82220303Y-73925010D01*
X82613629Y-73532370D01*
X82783327Y-73123691D01*
X86415000Y-73123691D01*
X86415000Y-73216250D01*
X86573750Y-73375000D01*
X87373000Y-73375000D01*
X87373000Y-72773750D01*
X87627000Y-72773750D01*
X87627000Y-73375000D01*
X88426250Y-73375000D01*
X88585000Y-73216250D01*
X88585000Y-73123691D01*
X88488327Y-72890302D01*
X88309699Y-72711673D01*
X88076310Y-72615000D01*
X87785750Y-72615000D01*
X87627000Y-72773750D01*
X87373000Y-72773750D01*
X87214250Y-72615000D01*
X86923690Y-72615000D01*
X86690301Y-72711673D01*
X86511673Y-72890302D01*
X86415000Y-73123691D01*
X82783327Y-73123691D01*
X82826757Y-73019100D01*
X82827242Y-72463339D01*
X82815466Y-72434840D01*
X83185167Y-72435162D01*
X83306569Y-72385000D01*
X84693178Y-72385000D01*
X84813201Y-72434838D01*
X85185167Y-72435162D01*
X85528943Y-72293117D01*
X85792192Y-72030327D01*
X85934838Y-71686799D01*
X85935162Y-71314833D01*
X85793117Y-70971057D01*
X85530327Y-70707808D01*
X85186799Y-70565162D01*
X84814833Y-70564838D01*
X84693431Y-70615000D01*
X83306822Y-70615000D01*
X83186799Y-70565162D01*
X82814833Y-70564838D01*
X82786252Y-70576647D01*
X82826757Y-70479100D01*
X82827242Y-69923339D01*
X82615010Y-69409697D01*
X82222370Y-69016371D01*
X82030273Y-68936605D01*
X82161143Y-68882397D01*
X82230608Y-68640213D01*
X81430000Y-67839605D01*
X80629392Y-68640213D01*
X80698857Y-68882397D01*
X80839318Y-68932509D01*
X80639697Y-69014990D01*
X80246371Y-69407630D01*
X80033243Y-69920900D01*
X80032758Y-70476661D01*
X79601152Y-70476661D01*
X79294564Y-70169539D01*
X79062130Y-70073024D01*
X79292515Y-69977831D01*
X79682461Y-69588564D01*
X79893759Y-69079702D01*
X79894240Y-68528715D01*
X79683831Y-68019485D01*
X79294564Y-67629539D01*
X78867730Y-67452302D01*
X80020856Y-67452302D01*
X80048638Y-68007368D01*
X80207603Y-68391143D01*
X80449787Y-68460608D01*
X81250395Y-67660000D01*
X81609605Y-67660000D01*
X82410213Y-68460608D01*
X82652397Y-68391143D01*
X82839144Y-67867698D01*
X82830009Y-67685167D01*
X84064838Y-67685167D01*
X84206883Y-68028943D01*
X84469673Y-68292192D01*
X84813201Y-68434838D01*
X85185167Y-68435162D01*
X85306569Y-68385000D01*
X86988569Y-68385000D01*
X87050000Y-68397440D01*
X87950000Y-68397440D01*
X88016113Y-68385000D01*
X96009146Y-68385000D01*
X96046838Y-68585317D01*
X96185910Y-68801441D01*
X96398110Y-68946431D01*
X96650000Y-68997440D01*
X98350000Y-68997440D01*
X98585317Y-68953162D01*
X98801441Y-68814090D01*
X98946431Y-68601890D01*
X98997440Y-68350000D01*
X98997440Y-66650000D01*
X98953162Y-66414683D01*
X98814090Y-66198559D01*
X98601890Y-66053569D01*
X98534459Y-66039914D01*
X98579147Y-66010054D01*
X98901054Y-65528285D01*
X99014093Y-64960000D01*
X98901054Y-64391715D01*
X98579147Y-63909946D01*
X98097378Y-63588039D01*
X97529093Y-63475000D01*
X97470907Y-63475000D01*
X96902622Y-63588039D01*
X96420853Y-63909946D01*
X96098946Y-64391715D01*
X95985907Y-64960000D01*
X96098946Y-65528285D01*
X96420853Y-66010054D01*
X96462452Y-66037850D01*
X96414683Y-66046838D01*
X96198559Y-66185910D01*
X96053569Y-66398110D01*
X96009648Y-66615000D01*
X88483025Y-66615000D01*
X88488327Y-66609698D01*
X88585000Y-66376309D01*
X88585000Y-66283750D01*
X88426250Y-66125000D01*
X87627000Y-66125000D01*
X87627000Y-66147000D01*
X87373000Y-66147000D01*
X87373000Y-66125000D01*
X86573750Y-66125000D01*
X86415000Y-66283750D01*
X86415000Y-66376309D01*
X86511673Y-66609698D01*
X86516975Y-66615000D01*
X85306822Y-66615000D01*
X85186799Y-66565162D01*
X84814833Y-66564838D01*
X84471057Y-66706883D01*
X84207808Y-66969673D01*
X84065162Y-67313201D01*
X84064838Y-67685167D01*
X82830009Y-67685167D01*
X82811362Y-67312632D01*
X82652397Y-66928857D01*
X82410213Y-66859392D01*
X81609605Y-67660000D01*
X81250395Y-67660000D01*
X80449787Y-66859392D01*
X80207603Y-66928857D01*
X80020856Y-67452302D01*
X78867730Y-67452302D01*
X78785702Y-67418241D01*
X78234715Y-67417760D01*
X77725485Y-67628169D01*
X77335539Y-68017436D01*
X77124241Y-68526298D01*
X77123760Y-69077285D01*
X67043178Y-69077285D01*
X66982370Y-69016371D01*
X66774488Y-68930051D01*
X66980303Y-68845010D01*
X67373629Y-68452370D01*
X67586757Y-67939100D01*
X67587242Y-67383339D01*
X67375010Y-66869697D01*
X66982370Y-66476371D01*
X66774488Y-66390051D01*
X66980303Y-66305010D01*
X67373629Y-65912370D01*
X67586757Y-65399100D01*
X67587242Y-64843339D01*
X67375010Y-64329697D01*
X66982370Y-63936371D01*
X66774488Y-63850051D01*
X66980303Y-63765010D01*
X67373629Y-63372370D01*
X67586757Y-62859100D01*
X67587242Y-62303339D01*
X67375010Y-61789697D01*
X66982370Y-61396371D01*
X66774488Y-61310051D01*
X66980303Y-61225010D01*
X67373629Y-60832370D01*
X67586757Y-60319100D01*
X67586759Y-60316661D01*
X80032758Y-60316661D01*
X80244990Y-60830303D01*
X80637630Y-61223629D01*
X80845512Y-61309949D01*
X80639697Y-61394990D01*
X80246371Y-61787630D01*
X80033243Y-62300900D01*
X80032758Y-62856661D01*
X80244990Y-63370303D01*
X80637630Y-63763629D01*
X80845512Y-63849949D01*
X80639697Y-63934990D01*
X80246371Y-64327630D01*
X80033243Y-64840900D01*
X80032758Y-65396661D01*
X80244990Y-65910303D01*
X80637630Y-66303629D01*
X80829727Y-66383395D01*
X80698857Y-66437603D01*
X80629392Y-66679787D01*
X81430000Y-67480395D01*
X82230608Y-66679787D01*
X82161143Y-66437603D01*
X82020682Y-66387491D01*
X82220303Y-66305010D01*
X82613629Y-65912370D01*
X82733498Y-65623691D01*
X86415000Y-65623691D01*
X86415000Y-65716250D01*
X86573750Y-65875000D01*
X87373000Y-65875000D01*
X87373000Y-65273750D01*
X87627000Y-65273750D01*
X87627000Y-65875000D01*
X88426250Y-65875000D01*
X88585000Y-65716250D01*
X88585000Y-65623691D01*
X88488327Y-65390302D01*
X88309699Y-65211673D01*
X88076310Y-65115000D01*
X87785750Y-65115000D01*
X87627000Y-65273750D01*
X87373000Y-65273750D01*
X87214250Y-65115000D01*
X86923690Y-65115000D01*
X86690301Y-65211673D01*
X86511673Y-65390302D01*
X86415000Y-65623691D01*
X82733498Y-65623691D01*
X82826757Y-65399100D01*
X82827242Y-64843339D01*
X82615010Y-64329697D01*
X82222370Y-63936371D01*
X82014488Y-63850051D01*
X82220303Y-63765010D01*
X82613629Y-63372370D01*
X82826757Y-62859100D01*
X82827242Y-62303339D01*
X82615010Y-61789697D01*
X82222370Y-61396371D01*
X82014488Y-61310051D01*
X82220303Y-61225010D01*
X82613629Y-60832370D01*
X82826757Y-60319100D01*
X82827242Y-59763339D01*
X82615010Y-59249697D01*
X82222370Y-58856371D01*
X81709100Y-58643243D01*
X81153339Y-58642758D01*
X80639697Y-58854990D01*
X80246371Y-59247630D01*
X80033243Y-59760900D01*
X80032758Y-60316661D01*
X67586759Y-60316661D01*
X67587242Y-59763339D01*
X67375010Y-59249697D01*
X66982370Y-58856371D01*
X66469100Y-58643243D01*
X65913339Y-58642758D01*
X65399697Y-58854990D01*
X65006371Y-59247630D01*
X64793243Y-59760900D01*
X64792758Y-60316661D01*
X65004990Y-60830303D01*
X65397630Y-61223629D01*
X65605512Y-61309949D01*
X65399697Y-61394990D01*
X65006371Y-61787630D01*
X64793243Y-62300900D01*
X64792758Y-62856661D01*
X65004990Y-63370303D01*
X65397630Y-63763629D01*
X65605512Y-63849949D01*
X65399697Y-63934990D01*
X65006371Y-64327630D01*
X64793243Y-64840900D01*
X64792758Y-65396661D01*
X65004990Y-65910303D01*
X65397630Y-66303629D01*
X65605512Y-66389949D01*
X65399697Y-66474990D01*
X65006371Y-66867630D01*
X64793243Y-67380900D01*
X64792758Y-67936661D01*
X65004990Y-68450303D01*
X65397630Y-68843629D01*
X65605512Y-68929949D01*
X65399697Y-69014990D01*
X65006371Y-69407630D01*
X64793243Y-69920900D01*
X64792758Y-70476661D01*
X65004990Y-70990303D01*
X65397630Y-71383629D01*
X65605512Y-71469949D01*
X65399697Y-71554990D01*
X65006371Y-71947630D01*
X64793243Y-72460900D01*
X64792758Y-73016661D01*
X65004990Y-73530303D01*
X65397630Y-73923629D01*
X65605512Y-74009949D01*
X65399697Y-74094990D01*
X65379652Y-74115000D01*
X60306822Y-74115000D01*
X60186799Y-74065162D01*
X59814833Y-74064838D01*
X59471057Y-74206883D01*
X59207808Y-74469673D01*
X59065162Y-74813201D01*
X59064838Y-75185167D01*
X50710000Y-75185167D01*
X50710000Y-68776661D01*
X53602758Y-68776661D01*
X53814990Y-69290303D01*
X54207630Y-69683629D01*
X54720900Y-69896757D01*
X55276661Y-69897242D01*
X55790303Y-69685010D01*
X56183629Y-69292370D01*
X56396757Y-68779100D01*
X56397242Y-68223339D01*
X56185010Y-67709697D01*
X55792370Y-67316371D01*
X55526273Y-67205878D01*
X55000000Y-66679605D01*
X54473698Y-67205907D01*
X54209697Y-67314990D01*
X53816371Y-67707630D01*
X53603243Y-68220900D01*
X53602758Y-68776661D01*
X50710000Y-68776661D01*
X50710000Y-66292302D01*
X53590856Y-66292302D01*
X53618638Y-66847368D01*
X53777603Y-67231143D01*
X54019787Y-67300608D01*
X54820395Y-66500000D01*
X55179605Y-66500000D01*
X55980213Y-67300608D01*
X56222397Y-67231143D01*
X56409144Y-66707698D01*
X56381362Y-66152632D01*
X56222397Y-65768857D01*
X55980213Y-65699392D01*
X55179605Y-66500000D01*
X54820395Y-66500000D01*
X54019787Y-65699392D01*
X53777603Y-65768857D01*
X53590856Y-66292302D01*
X50710000Y-66292302D01*
X50710000Y-62776661D01*
X53602758Y-62776661D01*
X53814990Y-63290303D01*
X54024342Y-63500021D01*
X53816371Y-63707630D01*
X53603243Y-64220900D01*
X53602758Y-64776661D01*
X53814990Y-65290303D01*
X54207630Y-65683629D01*
X54473727Y-65794122D01*
X55000000Y-66320395D01*
X55526302Y-65794093D01*
X55790303Y-65685010D01*
X56183629Y-65292370D01*
X56396757Y-64779100D01*
X56397242Y-64223339D01*
X56185010Y-63709697D01*
X55975658Y-63499979D01*
X56090837Y-63385000D01*
X59693178Y-63385000D01*
X59813201Y-63434838D01*
X60185167Y-63435162D01*
X60528943Y-63293117D01*
X60792192Y-63030327D01*
X60934838Y-62686799D01*
X60935162Y-62314833D01*
X60793117Y-61971057D01*
X60530327Y-61707808D01*
X60186799Y-61565162D01*
X59814833Y-61564838D01*
X59693431Y-61615000D01*
X56090478Y-61615000D01*
X55792370Y-61316371D01*
X55279100Y-61103243D01*
X54723339Y-61102758D01*
X54209697Y-61314990D01*
X53816371Y-61707630D01*
X53603243Y-62220900D01*
X53602758Y-62776661D01*
X50710000Y-62776661D01*
X50710000Y-57776661D01*
X66062758Y-57776661D01*
X66274990Y-58290303D01*
X66667630Y-58683629D01*
X67180900Y-58896757D01*
X67736661Y-58897242D01*
X68250303Y-58685010D01*
X68643629Y-58292370D01*
X68729949Y-58084488D01*
X68814990Y-58290303D01*
X69207630Y-58683629D01*
X69720900Y-58896757D01*
X70276661Y-58897242D01*
X70790303Y-58685010D01*
X71183629Y-58292370D01*
X71269949Y-58084488D01*
X71354990Y-58290303D01*
X71747630Y-58683629D01*
X72260900Y-58896757D01*
X72816661Y-58897242D01*
X73330303Y-58685010D01*
X73723629Y-58292370D01*
X73809949Y-58084488D01*
X73894990Y-58290303D01*
X74287630Y-58683629D01*
X74800900Y-58896757D01*
X75356661Y-58897242D01*
X75870303Y-58685010D01*
X76263629Y-58292370D01*
X76349949Y-58084488D01*
X76434990Y-58290303D01*
X76827630Y-58683629D01*
X77340900Y-58896757D01*
X77896661Y-58897242D01*
X78410303Y-58685010D01*
X78803629Y-58292370D01*
X78889949Y-58084488D01*
X78974990Y-58290303D01*
X79367630Y-58683629D01*
X79880900Y-58896757D01*
X80436661Y-58897242D01*
X80950303Y-58685010D01*
X81343629Y-58292370D01*
X81556757Y-57779100D01*
X81557242Y-57223339D01*
X81345010Y-56709697D01*
X80952370Y-56316371D01*
X80439100Y-56103243D01*
X79883339Y-56102758D01*
X79369697Y-56314990D01*
X78976371Y-56707630D01*
X78890051Y-56915512D01*
X78805010Y-56709697D01*
X78412370Y-56316371D01*
X77899100Y-56103243D01*
X77343339Y-56102758D01*
X76829697Y-56314990D01*
X76436371Y-56707630D01*
X76350051Y-56915512D01*
X76265010Y-56709697D01*
X75872370Y-56316371D01*
X75359100Y-56103243D01*
X74803339Y-56102758D01*
X74289697Y-56314990D01*
X73896371Y-56707630D01*
X73810051Y-56915512D01*
X73725010Y-56709697D01*
X73332370Y-56316371D01*
X72819100Y-56103243D01*
X72263339Y-56102758D01*
X71749697Y-56314990D01*
X71356371Y-56707630D01*
X71270051Y-56915512D01*
X71185010Y-56709697D01*
X70792370Y-56316371D01*
X70279100Y-56103243D01*
X69723339Y-56102758D01*
X69209697Y-56314990D01*
X68816371Y-56707630D01*
X68730051Y-56915512D01*
X68645010Y-56709697D01*
X68252370Y-56316371D01*
X67739100Y-56103243D01*
X67183339Y-56102758D01*
X66669697Y-56314990D01*
X66276371Y-56707630D01*
X66063243Y-57220900D01*
X66062758Y-57776661D01*
X50710000Y-57776661D01*
X50710000Y-55442619D01*
X52764613Y-55442619D01*
X53104155Y-56264372D01*
X53732321Y-56893636D01*
X54553481Y-57234611D01*
X55442619Y-57235387D01*
X56264372Y-56895845D01*
X56893636Y-56267679D01*
X57234611Y-55446519D01*
X57234614Y-55442619D01*
X92764613Y-55442619D01*
X93104155Y-56264372D01*
X93732321Y-56893636D01*
X94553481Y-57234611D01*
X95442619Y-57235387D01*
X96264372Y-56895845D01*
X96893636Y-56267679D01*
X97234611Y-55446519D01*
X97235387Y-54557381D01*
X96895845Y-53735628D01*
X96267679Y-53106364D01*
X95446519Y-52765389D01*
X94557381Y-52764613D01*
X93735628Y-53104155D01*
X93106364Y-53732321D01*
X92765389Y-54553481D01*
X92764613Y-55442619D01*
X57234614Y-55442619D01*
X57235387Y-54557381D01*
X56895845Y-53735628D01*
X56267679Y-53106364D01*
X55446519Y-52765389D01*
X54557381Y-52764613D01*
X53735628Y-53104155D01*
X53106364Y-53732321D01*
X52765389Y-54553481D01*
X52764613Y-55442619D01*
X50710000Y-55442619D01*
X50710000Y-50710000D01*
X99290000Y-50710000D01*
X99290000Y-101290000D01*
M02*
