G04 #@! TF.FileFunction,Legend,Top*
%FSLAX46Y46*%
G04 Gerber Fmt 4.6, Leading zero omitted, Abs format (unit mm)*
G04 Created by KiCad (PCBNEW 4.0.7) date 12/17/17 19:04:04*
%MOMM*%
%LPD*%
G01*
G04 APERTURE LIST*
%ADD10C,0.100000*%
%ADD11C,0.300000*%
%ADD12C,0.120000*%
%ADD13C,0.150000*%
G04 APERTURE END LIST*
D10*
D11*
X91678571Y-92071429D02*
X91678571Y-91214286D01*
X93178571Y-91642857D02*
X91678571Y-91642857D01*
X93178571Y-90714286D02*
X91678571Y-90714286D01*
X93178571Y-90000000D02*
X91678571Y-90000000D01*
X92750000Y-89500000D01*
X91678571Y-89000000D01*
X93178571Y-89000000D01*
X92392857Y-88285714D02*
X92392857Y-87785714D01*
X93178571Y-87571428D02*
X93178571Y-88285714D01*
X91678571Y-88285714D01*
X91678571Y-87571428D01*
X93178571Y-86071428D02*
X92464286Y-86571428D01*
X93178571Y-86928571D02*
X91678571Y-86928571D01*
X91678571Y-86357143D01*
X91750000Y-86214285D01*
X91821429Y-86142857D01*
X91964286Y-86071428D01*
X92178571Y-86071428D01*
X92321429Y-86142857D01*
X92392857Y-86214285D01*
X92464286Y-86357143D01*
X92464286Y-86928571D01*
X92607143Y-82285714D02*
X92607143Y-81142857D01*
X93178571Y-79642857D02*
X93178571Y-80500000D01*
X93178571Y-80071428D02*
X91678571Y-80071428D01*
X91892857Y-80214285D01*
X92035714Y-80357143D01*
X92107143Y-80500000D01*
X92607143Y-75285714D02*
X92607143Y-74142857D01*
X93178571Y-74714286D02*
X92035714Y-74714286D01*
X93178571Y-72642857D02*
X93178571Y-73500000D01*
X93178571Y-73071428D02*
X91678571Y-73071428D01*
X91892857Y-73214285D01*
X92035714Y-73357143D01*
X92107143Y-73500000D01*
X91678571Y-69785715D02*
X91678571Y-69500001D01*
X91750000Y-69357143D01*
X91892857Y-69214286D01*
X92178571Y-69142858D01*
X92678571Y-69142858D01*
X92964286Y-69214286D01*
X93107143Y-69357143D01*
X93178571Y-69500001D01*
X93178571Y-69785715D01*
X93107143Y-69928572D01*
X92964286Y-70071429D01*
X92678571Y-70142858D01*
X92178571Y-70142858D01*
X91892857Y-70071429D01*
X91750000Y-69928572D01*
X91678571Y-69785715D01*
X93178571Y-68500000D02*
X91678571Y-68500000D01*
X93178571Y-67642857D01*
X91678571Y-67642857D01*
X91607143Y-65857143D02*
X93535714Y-67142857D01*
X91678571Y-65071428D02*
X91678571Y-64785714D01*
X91750000Y-64642856D01*
X91892857Y-64499999D01*
X92178571Y-64428571D01*
X92678571Y-64428571D01*
X92964286Y-64499999D01*
X93107143Y-64642856D01*
X93178571Y-64785714D01*
X93178571Y-65071428D01*
X93107143Y-65214285D01*
X92964286Y-65357142D01*
X92678571Y-65428571D01*
X92178571Y-65428571D01*
X91892857Y-65357142D01*
X91750000Y-65214285D01*
X91678571Y-65071428D01*
X92392857Y-63285713D02*
X92392857Y-63785713D01*
X93178571Y-63785713D02*
X91678571Y-63785713D01*
X91678571Y-63071427D01*
X92392857Y-61999999D02*
X92392857Y-62499999D01*
X93178571Y-62499999D02*
X91678571Y-62499999D01*
X91678571Y-61785713D01*
X51892858Y-93178571D02*
X51892858Y-91678571D01*
X52250001Y-91678571D01*
X52464286Y-91750000D01*
X52607144Y-91892857D01*
X52678572Y-92035714D01*
X52750001Y-92321429D01*
X52750001Y-92535714D01*
X52678572Y-92821429D01*
X52607144Y-92964286D01*
X52464286Y-93107143D01*
X52250001Y-93178571D01*
X51892858Y-93178571D01*
X53392858Y-93178571D02*
X53392858Y-91678571D01*
X54035715Y-93107143D02*
X54250001Y-93178571D01*
X54607144Y-93178571D01*
X54750001Y-93107143D01*
X54821430Y-93035714D01*
X54892858Y-92892857D01*
X54892858Y-92750000D01*
X54821430Y-92607143D01*
X54750001Y-92535714D01*
X54607144Y-92464286D01*
X54321430Y-92392857D01*
X54178572Y-92321429D01*
X54107144Y-92250000D01*
X54035715Y-92107143D01*
X54035715Y-91964286D01*
X54107144Y-91821429D01*
X54178572Y-91750000D01*
X54321430Y-91678571D01*
X54678572Y-91678571D01*
X54892858Y-91750000D01*
X55535715Y-93178571D02*
X55535715Y-91678571D01*
X56107143Y-91678571D01*
X56250001Y-91750000D01*
X56321429Y-91821429D01*
X56392858Y-91964286D01*
X56392858Y-92178571D01*
X56321429Y-92321429D01*
X56250001Y-92392857D01*
X56107143Y-92464286D01*
X55535715Y-92464286D01*
X57750001Y-93178571D02*
X57035715Y-93178571D01*
X57035715Y-91678571D01*
X58178572Y-92750000D02*
X58892858Y-92750000D01*
X58035715Y-93178571D02*
X58535715Y-91678571D01*
X59035715Y-93178571D01*
X59821429Y-92464286D02*
X59821429Y-93178571D01*
X59321429Y-91678571D02*
X59821429Y-92464286D01*
X60321429Y-91678571D01*
X52892858Y-73178571D02*
X52392858Y-72464286D01*
X52035715Y-73178571D02*
X52035715Y-71678571D01*
X52607143Y-71678571D01*
X52750001Y-71750000D01*
X52821429Y-71821429D01*
X52892858Y-71964286D01*
X52892858Y-72178571D01*
X52821429Y-72321429D01*
X52750001Y-72392857D01*
X52607143Y-72464286D01*
X52035715Y-72464286D01*
X53535715Y-72392857D02*
X54035715Y-72392857D01*
X54250001Y-73178571D02*
X53535715Y-73178571D01*
X53535715Y-71678571D01*
X54250001Y-71678571D01*
X55607144Y-73178571D02*
X54892858Y-73178571D01*
X54892858Y-71678571D01*
X56035715Y-72750000D02*
X56750001Y-72750000D01*
X55892858Y-73178571D02*
X56392858Y-71678571D01*
X56892858Y-73178571D01*
X57678572Y-72464286D02*
X57678572Y-73178571D01*
X57178572Y-71678571D02*
X57678572Y-72464286D01*
X58178572Y-71678571D01*
D12*
X51700000Y-67500000D02*
X51700000Y-68100000D01*
X51700000Y-62900000D02*
X51700000Y-63500000D01*
X57550000Y-60000000D02*
X57550000Y-71050000D01*
X51700000Y-60000000D02*
X57550000Y-60000000D01*
X51700000Y-63750000D02*
X51700000Y-67250000D01*
X51700000Y-71050000D02*
X57550000Y-71050000D01*
X51700000Y-60000000D02*
X51700000Y-62650000D01*
X51700000Y-68400000D02*
X51700000Y-71050000D01*
X51700000Y-87500000D02*
X51700000Y-88100000D01*
X51700000Y-82900000D02*
X51700000Y-83500000D01*
X57550000Y-80000000D02*
X57550000Y-91050000D01*
X51700000Y-80000000D02*
X57550000Y-80000000D01*
X51700000Y-83750000D02*
X51700000Y-87250000D01*
X51700000Y-91050000D02*
X57550000Y-91050000D01*
X51700000Y-80000000D02*
X51700000Y-82650000D01*
X51700000Y-88400000D02*
X51700000Y-91050000D01*
X98830000Y-63630000D02*
X96170000Y-63630000D01*
X98830000Y-66230000D02*
X98830000Y-63630000D01*
X96170000Y-66230000D02*
X96170000Y-63630000D01*
X98830000Y-66230000D02*
X96170000Y-66230000D01*
X98830000Y-67500000D02*
X98830000Y-68830000D01*
X98830000Y-68830000D02*
X97500000Y-68830000D01*
X98830000Y-71130000D02*
X96170000Y-71130000D01*
X98830000Y-73730000D02*
X98830000Y-71130000D01*
X96170000Y-73730000D02*
X96170000Y-71130000D01*
X98830000Y-73730000D02*
X96170000Y-73730000D01*
X98830000Y-75000000D02*
X98830000Y-76330000D01*
X98830000Y-76330000D02*
X97500000Y-76330000D01*
X98830000Y-78630000D02*
X96170000Y-78630000D01*
X98830000Y-81230000D02*
X98830000Y-78630000D01*
X96170000Y-81230000D02*
X96170000Y-78630000D01*
X98830000Y-81230000D02*
X96170000Y-81230000D01*
X98830000Y-82500000D02*
X98830000Y-83830000D01*
X98830000Y-83830000D02*
X97500000Y-83830000D01*
X98830000Y-86130000D02*
X96170000Y-86130000D01*
X98830000Y-88730000D02*
X98830000Y-86130000D01*
X96170000Y-88730000D02*
X96170000Y-86130000D01*
X98830000Y-88730000D02*
X96170000Y-88730000D01*
X98830000Y-90000000D02*
X98830000Y-91330000D01*
X98830000Y-91330000D02*
X97500000Y-91330000D01*
X88180000Y-66250000D02*
X88180000Y-67250000D01*
X86820000Y-67250000D02*
X86820000Y-66250000D01*
X88180000Y-73750000D02*
X88180000Y-74750000D01*
X86820000Y-74750000D02*
X86820000Y-73750000D01*
X88180000Y-81250000D02*
X88180000Y-82250000D01*
X86820000Y-82250000D02*
X86820000Y-81250000D01*
X88180000Y-88750000D02*
X88180000Y-89750000D01*
X86820000Y-89750000D02*
X86820000Y-88750000D01*
D13*
X73600000Y-93200000D02*
G75*
G03X73600000Y-93200000I-200000J0D01*
G01*
X72000000Y-93600000D02*
X78000000Y-93600000D01*
X79000000Y-98200000D02*
X79000000Y-96600000D01*
X71000000Y-98200000D02*
X71000000Y-96600000D01*
X79000000Y-101800000D02*
X79000000Y-101400000D01*
X71000000Y-101800000D02*
X71000000Y-101400000D01*
X79000000Y-101800000D02*
X71000000Y-101800000D01*
X53166667Y-57952381D02*
X53166667Y-58666667D01*
X53119047Y-58809524D01*
X53023809Y-58904762D01*
X52880952Y-58952381D01*
X52785714Y-58952381D01*
X54166667Y-58952381D02*
X53595238Y-58952381D01*
X53880952Y-58952381D02*
X53880952Y-57952381D01*
X53785714Y-58095238D01*
X53690476Y-58190476D01*
X53595238Y-58238095D01*
D12*
X53653572Y-63253571D02*
X52796429Y-63253571D01*
X53225001Y-63253571D02*
X53225001Y-61753571D01*
X53082144Y-61967857D01*
X52939286Y-62110714D01*
X52796429Y-62182143D01*
D13*
X53166667Y-77952381D02*
X53166667Y-78666667D01*
X53119047Y-78809524D01*
X53023809Y-78904762D01*
X52880952Y-78952381D01*
X52785714Y-78952381D01*
X53595238Y-78047619D02*
X53642857Y-78000000D01*
X53738095Y-77952381D01*
X53976191Y-77952381D01*
X54071429Y-78000000D01*
X54119048Y-78047619D01*
X54166667Y-78142857D01*
X54166667Y-78238095D01*
X54119048Y-78380952D01*
X53547619Y-78952381D01*
X54166667Y-78952381D01*
D12*
X53653572Y-83253571D02*
X52796429Y-83253571D01*
X53225001Y-83253571D02*
X53225001Y-81753571D01*
X53082144Y-81967857D01*
X52939286Y-82110714D01*
X52796429Y-82182143D01*
D13*
X97166667Y-69282381D02*
X97166667Y-69996667D01*
X97119047Y-70139524D01*
X97023809Y-70234762D01*
X96880952Y-70282381D01*
X96785714Y-70282381D01*
X97547619Y-69282381D02*
X98166667Y-69282381D01*
X97833333Y-69663333D01*
X97976191Y-69663333D01*
X98071429Y-69710952D01*
X98119048Y-69758571D01*
X98166667Y-69853810D01*
X98166667Y-70091905D01*
X98119048Y-70187143D01*
X98071429Y-70234762D01*
X97976191Y-70282381D01*
X97690476Y-70282381D01*
X97595238Y-70234762D01*
X97547619Y-70187143D01*
X97166667Y-76782381D02*
X97166667Y-77496667D01*
X97119047Y-77639524D01*
X97023809Y-77734762D01*
X96880952Y-77782381D01*
X96785714Y-77782381D01*
X98071429Y-77115714D02*
X98071429Y-77782381D01*
X97833333Y-76734762D02*
X97595238Y-77449048D01*
X98214286Y-77449048D01*
X97166667Y-84282381D02*
X97166667Y-84996667D01*
X97119047Y-85139524D01*
X97023809Y-85234762D01*
X96880952Y-85282381D01*
X96785714Y-85282381D01*
X98119048Y-84282381D02*
X97642857Y-84282381D01*
X97595238Y-84758571D01*
X97642857Y-84710952D01*
X97738095Y-84663333D01*
X97976191Y-84663333D01*
X98071429Y-84710952D01*
X98119048Y-84758571D01*
X98166667Y-84853810D01*
X98166667Y-85091905D01*
X98119048Y-85187143D01*
X98071429Y-85234762D01*
X97976191Y-85282381D01*
X97738095Y-85282381D01*
X97642857Y-85234762D01*
X97595238Y-85187143D01*
X97166667Y-91782381D02*
X97166667Y-92496667D01*
X97119047Y-92639524D01*
X97023809Y-92734762D01*
X96880952Y-92782381D01*
X96785714Y-92782381D01*
X98071429Y-91782381D02*
X97880952Y-91782381D01*
X97785714Y-91830000D01*
X97738095Y-91877619D01*
X97642857Y-92020476D01*
X97595238Y-92210952D01*
X97595238Y-92591905D01*
X97642857Y-92687143D01*
X97690476Y-92734762D01*
X97785714Y-92782381D01*
X97976191Y-92782381D01*
X98071429Y-92734762D01*
X98119048Y-92687143D01*
X98166667Y-92591905D01*
X98166667Y-92353810D01*
X98119048Y-92258571D01*
X98071429Y-92210952D01*
X97976191Y-92163333D01*
X97785714Y-92163333D01*
X97690476Y-92210952D01*
X97642857Y-92258571D01*
X97595238Y-92353810D01*
X86502381Y-66916666D02*
X86026190Y-67250000D01*
X86502381Y-67488095D02*
X85502381Y-67488095D01*
X85502381Y-67107142D01*
X85550000Y-67011904D01*
X85597619Y-66964285D01*
X85692857Y-66916666D01*
X85835714Y-66916666D01*
X85930952Y-66964285D01*
X85978571Y-67011904D01*
X86026190Y-67107142D01*
X86026190Y-67488095D01*
X86502381Y-65964285D02*
X86502381Y-66535714D01*
X86502381Y-66250000D02*
X85502381Y-66250000D01*
X85645238Y-66345238D01*
X85740476Y-66440476D01*
X85788095Y-66535714D01*
X86502381Y-74416666D02*
X86026190Y-74750000D01*
X86502381Y-74988095D02*
X85502381Y-74988095D01*
X85502381Y-74607142D01*
X85550000Y-74511904D01*
X85597619Y-74464285D01*
X85692857Y-74416666D01*
X85835714Y-74416666D01*
X85930952Y-74464285D01*
X85978571Y-74511904D01*
X86026190Y-74607142D01*
X86026190Y-74988095D01*
X85597619Y-74035714D02*
X85550000Y-73988095D01*
X85502381Y-73892857D01*
X85502381Y-73654761D01*
X85550000Y-73559523D01*
X85597619Y-73511904D01*
X85692857Y-73464285D01*
X85788095Y-73464285D01*
X85930952Y-73511904D01*
X86502381Y-74083333D01*
X86502381Y-73464285D01*
X86502381Y-81916666D02*
X86026190Y-82250000D01*
X86502381Y-82488095D02*
X85502381Y-82488095D01*
X85502381Y-82107142D01*
X85550000Y-82011904D01*
X85597619Y-81964285D01*
X85692857Y-81916666D01*
X85835714Y-81916666D01*
X85930952Y-81964285D01*
X85978571Y-82011904D01*
X86026190Y-82107142D01*
X86026190Y-82488095D01*
X85502381Y-81583333D02*
X85502381Y-80964285D01*
X85883333Y-81297619D01*
X85883333Y-81154761D01*
X85930952Y-81059523D01*
X85978571Y-81011904D01*
X86073810Y-80964285D01*
X86311905Y-80964285D01*
X86407143Y-81011904D01*
X86454762Y-81059523D01*
X86502381Y-81154761D01*
X86502381Y-81440476D01*
X86454762Y-81535714D01*
X86407143Y-81583333D01*
X86502381Y-89416666D02*
X86026190Y-89750000D01*
X86502381Y-89988095D02*
X85502381Y-89988095D01*
X85502381Y-89607142D01*
X85550000Y-89511904D01*
X85597619Y-89464285D01*
X85692857Y-89416666D01*
X85835714Y-89416666D01*
X85930952Y-89464285D01*
X85978571Y-89511904D01*
X86026190Y-89607142D01*
X86026190Y-89988095D01*
X85835714Y-88559523D02*
X86502381Y-88559523D01*
X85454762Y-88797619D02*
X86169048Y-89035714D01*
X86169048Y-88416666D01*
X74666667Y-91052381D02*
X74666667Y-91766667D01*
X74619047Y-91909524D01*
X74523809Y-92004762D01*
X74380952Y-92052381D01*
X74285714Y-92052381D01*
X75047619Y-91052381D02*
X75714286Y-91052381D01*
X75285714Y-92052381D01*
X73937143Y-54638571D02*
X73937143Y-55638571D01*
X73294286Y-54638571D02*
X73294286Y-55424286D01*
X73365714Y-55567143D01*
X73508572Y-55638571D01*
X73722857Y-55638571D01*
X73865714Y-55567143D01*
X73937143Y-55495714D01*
X74651429Y-55638571D02*
X74651429Y-54138571D01*
X75222857Y-54138571D01*
X75365715Y-54210000D01*
X75437143Y-54281429D01*
X75508572Y-54424286D01*
X75508572Y-54638571D01*
X75437143Y-54781429D01*
X75365715Y-54852857D01*
X75222857Y-54924286D01*
X74651429Y-54924286D01*
X76937143Y-55638571D02*
X76080000Y-55638571D01*
X76508572Y-55638571D02*
X76508572Y-54138571D01*
X76365715Y-54352857D01*
X76222857Y-54495714D01*
X76080000Y-54567143D01*
X67794285Y-52670000D02*
X68508571Y-52670000D01*
X67651428Y-53098571D02*
X68151428Y-51598571D01*
X68651428Y-53098571D01*
X70008571Y-53098571D02*
X69508571Y-52384286D01*
X69151428Y-53098571D02*
X69151428Y-51598571D01*
X69722856Y-51598571D01*
X69865714Y-51670000D01*
X69937142Y-51741429D01*
X70008571Y-51884286D01*
X70008571Y-52098571D01*
X69937142Y-52241429D01*
X69865714Y-52312857D01*
X69722856Y-52384286D01*
X69151428Y-52384286D01*
X70651428Y-53098571D02*
X70651428Y-51598571D01*
X71008571Y-51598571D01*
X71222856Y-51670000D01*
X71365714Y-51812857D01*
X71437142Y-51955714D01*
X71508571Y-52241429D01*
X71508571Y-52455714D01*
X71437142Y-52741429D01*
X71365714Y-52884286D01*
X71222856Y-53027143D01*
X71008571Y-53098571D01*
X70651428Y-53098571D01*
X72151428Y-51598571D02*
X72151428Y-52812857D01*
X72222856Y-52955714D01*
X72294285Y-53027143D01*
X72437142Y-53098571D01*
X72722856Y-53098571D01*
X72865714Y-53027143D01*
X72937142Y-52955714D01*
X73008571Y-52812857D01*
X73008571Y-51598571D01*
X73722857Y-53098571D02*
X73722857Y-51598571D01*
X74294285Y-51598571D01*
X74437143Y-51670000D01*
X74508571Y-51741429D01*
X74580000Y-51884286D01*
X74580000Y-52098571D01*
X74508571Y-52241429D01*
X74437143Y-52312857D01*
X74294285Y-52384286D01*
X73722857Y-52384286D01*
X76080000Y-53098571D02*
X75580000Y-52384286D01*
X75222857Y-53098571D02*
X75222857Y-51598571D01*
X75794285Y-51598571D01*
X75937143Y-51670000D01*
X76008571Y-51741429D01*
X76080000Y-51884286D01*
X76080000Y-52098571D01*
X76008571Y-52241429D01*
X75937143Y-52312857D01*
X75794285Y-52384286D01*
X75222857Y-52384286D01*
X77008571Y-51598571D02*
X77294285Y-51598571D01*
X77437143Y-51670000D01*
X77580000Y-51812857D01*
X77651428Y-52098571D01*
X77651428Y-52598571D01*
X77580000Y-52884286D01*
X77437143Y-53027143D01*
X77294285Y-53098571D01*
X77008571Y-53098571D01*
X76865714Y-53027143D01*
X76722857Y-52884286D01*
X76651428Y-52598571D01*
X76651428Y-52098571D01*
X76722857Y-51812857D01*
X76865714Y-51670000D01*
X77008571Y-51598571D01*
X78294286Y-53098571D02*
X78294286Y-51598571D01*
X78794286Y-52670000D01*
X79294286Y-51598571D01*
X79294286Y-53098571D01*
X80008572Y-53098571D02*
X80008572Y-51598571D01*
X80722858Y-53098571D02*
X80722858Y-51598571D01*
X81580001Y-53098571D01*
X81580001Y-51598571D01*
X82294287Y-53098571D02*
X82294287Y-51598571D01*
M02*
