G04 #@! TF.FileFunction,Soldermask,Bot*
%FSLAX46Y46*%
G04 Gerber Fmt 4.6, Leading zero omitted, Abs format (unit mm)*
G04 Created by KiCad (PCBNEW 4.0.7) date 12/17/17 19:04:04*
%MOMM*%
%LPD*%
G01*
G04 APERTURE LIST*
%ADD10C,0.100000*%
%ADD11C,1.924000*%
%ADD12R,2.100000X2.100000*%
%ADD13O,2.100000X2.100000*%
%ADD14O,2.200000X3.300000*%
%ADD15C,3.600000*%
%ADD16C,1.900000*%
G04 APERTURE END LIST*
D10*
D11*
X55000000Y-62500000D03*
X55000000Y-64500000D03*
X55000000Y-66500000D03*
X55000000Y-68500000D03*
X55000000Y-82500000D03*
X55000000Y-84500000D03*
X55000000Y-86500000D03*
X55000000Y-88500000D03*
D12*
X97500000Y-67500000D03*
D13*
X97500000Y-64960000D03*
D12*
X97500000Y-75000000D03*
D13*
X97500000Y-72460000D03*
D12*
X97500000Y-82500000D03*
D13*
X97500000Y-79960000D03*
D12*
X97500000Y-90000000D03*
D13*
X97500000Y-87460000D03*
D14*
X71300000Y-95000000D03*
X78700000Y-95000000D03*
X78700000Y-99750000D03*
X71300000Y-99750000D03*
D15*
X55000000Y-97500000D03*
X55000000Y-55000000D03*
X95000000Y-55000000D03*
X95000000Y-97500000D03*
D11*
X67460000Y-57500000D03*
X70000000Y-57500000D03*
X72540000Y-57500000D03*
X75080000Y-57500000D03*
X77620000Y-57500000D03*
X80160000Y-57500000D03*
X66190000Y-60040000D03*
X66190000Y-62580000D03*
X66190000Y-65120000D03*
X66190000Y-67660000D03*
X66190000Y-70200000D03*
X66190000Y-72740000D03*
X66190000Y-75280000D03*
X66190000Y-77820000D03*
X66190000Y-80360000D03*
X66190000Y-82900000D03*
X66190000Y-85440000D03*
X66190000Y-87980000D03*
X81430000Y-60040000D03*
X81430000Y-62580000D03*
X81430000Y-65120000D03*
X81430000Y-67660000D03*
X81430000Y-70200000D03*
X81430000Y-72740000D03*
X81430000Y-75280000D03*
X81430000Y-77820000D03*
X81430000Y-80360000D03*
X81430000Y-82900000D03*
X81430000Y-85440000D03*
X81430000Y-87980000D03*
D16*
X78509000Y-68803000D03*
X78509000Y-71343000D03*
X78509000Y-79217000D03*
X78509000Y-81757000D03*
M02*
