M48
;DRILL file {KiCad 4.0.7} date 12/17/17 19:14:43
;FORMAT={3:3/ absolute / metric / suppress leading zeros}
FMAT,2
METRIC,TZ
T1C0.400
T2C0.600
T3C0.762
T4C0.800
T5C1.000
T6C3.200
%
G90
G05
M71
T1
X60000Y-62500
X60000Y-75000
X60000Y-78000
X60000Y-82500
X63000Y-80500
X63000Y-84500
X73500Y-97500
X76500Y-97500
X83000Y-71500
X83000Y-80500
X84000Y-75000
X84000Y-83000
X84500Y-88000
X84500Y-90000
X85000Y-67500
X85000Y-71500
X85000Y-82500
X85000Y-85500
T2
X78509Y-68803
X78509Y-71343
X78509Y-79217
X78509Y-81757
T3
X55000Y-62500
X55000Y-64500
X55000Y-66500
X55000Y-68500
X55000Y-82500
X55000Y-84500
X55000Y-86500
X55000Y-88500
X66190Y-60040
X66190Y-62580
X66190Y-65120
X66190Y-67660
X66190Y-70200
X66190Y-72740
X66190Y-75280
X66190Y-77820
X66190Y-80360
X66190Y-82900
X66190Y-85440
X66190Y-87980
X67460Y-57500
X70000Y-57500
X72540Y-57500
X75080Y-57500
X77620Y-57500
X80160Y-57500
X81430Y-60040
X81430Y-62580
X81430Y-65120
X81430Y-67660
X81430Y-70200
X81430Y-72740
X81430Y-75280
X81430Y-77820
X81430Y-80360
X81430Y-82900
X81430Y-85440
X81430Y-87980
T5
X97500Y-64960
X97500Y-67500
X97500Y-72460
X97500Y-75000
X97500Y-79960
X97500Y-82500
X97500Y-87460
X97500Y-90000
T6
X55000Y-55000
X55000Y-97500
X95000Y-55000
X95000Y-97500
T4
X71300Y-95550G85X71300Y-94450
G05
X71300Y-100300G85X71300Y-99200
G05
X78700Y-95550G85X78700Y-94450
G05
X78700Y-100300G85X78700Y-99200
G05
T0
M30
